  0
SECTION
  2
HEADER
  9
$ACADVER
  1
AC1021
  9
$ACADMAINTVER
 70
    25
  9
$DWGCODEPAGE
  3
ANSI_1252
  9
$LASTSAVEDBY
  1
koskeju
  9
$INSBASE
 10
0.0
 20
0.0
 30
0.0
  9
$EXTMIN
 10
0.0
 20
0.0
 30
0.0
  9
$EXTMAX
 10
2100.0
 20
1485.0
 30
0.0
  9
$LIMMIN
 10
0.0
 20
0.0
  9
$LIMMAX
 10
2100.0
 20
1485.0
  9
$ORTHOMODE
 70
     0
  9
$REGENMODE
 70
     1
  9
$FILLMODE
 70
     1
  9
$QTEXTMODE
 70
     0
  9
$MIRRTEXT
 70
     1
  9
$LTSCALE
 40
5.0
  9
$ATTMODE
 70
     1
  9
$TEXTSIZE
 40
17.5
  9
$TRACEWID
 40
1.0
  9
$TEXTSTYLE
  7
STANDARD
  9
$CLAYER
  8
0
  9
$CELTYPE
  6
ByLayer
  9
$CECOLOR
 62
   256
  9
$CELTSCALE
 40
1.0
  9
$DISPSILH
 70
     0
  9
$DIMSCALE
 40
1.0
  9
$DIMASZ
 40
17.5
  9
$DIMEXO
 40
5.0
  9
$DIMDLI
 40
3.75
  9
$DIMRND
 40
0.0
  9
$DIMDLE
 40
0.0
  9
$DIMEXE
 40
5.0
  9
$DIMTP
 40
0.0
  9
$DIMTM
 40
0.0
  9
$DIMTXT
 40
17.5
  9
$DIMCEN
 40
2.5
  9
$DIMTSZ
 40
0.0
  9
$DIMTOL
 70
     0
  9
$DIMLIM
 70
     0
  9
$DIMTIH
 70
     1
  9
$DIMTOH
 70
     1
  9
$DIMSE1
 70
     0
  9
$DIMSE2
 70
     0
  9
$DIMTAD
 70
     1
  9
$DIMZIN
 70
     0
  9
$DIMBLK
  1

  9
$DIMASO
 70
     1
  9
$DIMSHO
 70
     1
  9
$DIMPOST
  1

  9
$DIMAPOST
  1

  9
$DIMALT
 70
     0
  9
$DIMALTD
 70
     3
  9
$DIMALTF
 40
0.0393700787
  9
$DIMLFAC
 40
1.0
  9
$DIMTOFL
 70
     1
  9
$DIMTVP
 40
0.0
  9
$DIMTIX
 70
     0
  9
$DIMSOXD
 70
     0
  9
$DIMSAH
 70
     0
  9
$DIMBLK1
  1

  9
$DIMBLK2
  1

  9
$DIMSTYLE
  2
ISO-25
  9
$DIMCLRD
 70
     0
  9
$DIMCLRE
 70
     0
  9
$DIMCLRT
 70
     0
  9
$DIMTFAC
 40
1.0
  9
$DIMGAP
 40
7.62
  9
$DIMJUST
 70
     0
  9
$DIMSD1
 70
     0
  9
$DIMSD2
 70
     0
  9
$DIMTOLJ
 70
     0
  9
$DIMTZIN
 70
     0
  9
$DIMALTZ
 70
     0
  9
$DIMALTTZ
 70
     0
  9
$DIMUPT
 70
     0
  9
$DIMDEC
 70
     1
  9
$DIMTDEC
 70
     1
  9
$DIMALTU
 70
     2
  9
$DIMALTTD
 70
     3
  9
$DIMTXSTY
  7
STANDARD
  9
$DIMAUNIT
 70
     0
  9
$DIMADEC
 70
     1
  9
$DIMALTRND
 40
0.0
  9
$DIMAZIN
 70
     0
  9
$DIMDSEP
 70
    44
  9
$DIMATFIT
 70
     3
  9
$DIMFRAC
 70
     0
  9
$DIMLDRBLK
  1

  9
$DIMLUNIT
 70
     2
  9
$DIMLWD
 70
    -2
  9
$DIMLWE
 70
    -2
  9
$DIMTMOVE
 70
     0
  9
$DIMFXL
 40
1.0
  9
$DIMFXLON
 70
     0
  9
$DIMJOGANG
 40
0.7853981634
  9
$DIMTFILL
 70
     0
  9
$DIMTFILLCLR
 70
     0
  9
$DIMARCSYM
 70
     0
  9
$DIMLTYPE
  6

  9
$DIMLTEX1
  6

  9
$DIMLTEX2
  6

  9
$LUNITS
 70
     2
  9
$LUPREC
 70
     1
  9
$SKETCHINC
 40
1.0
  9
$FILLETRAD
 40
0.0
  9
$AUNITS
 70
     0
  9
$AUPREC
 70
     1
  9
$MENU
  1
.
  9
$ELEVATION
 40
0.0
  9
$PELEVATION
 40
0.0
  9
$THICKNESS
 40
0.0
  9
$LIMCHECK
 70
     0
  9
$CHAMFERA
 40
0.0
  9
$CHAMFERB
 40
0.0
  9
$CHAMFERC
 40
0.0
  9
$CHAMFERD
 40
0.0
  9
$SKPOLY
 70
     0
  9
$TDCREATE
 40
2461179.505316887
  9
$TDUCREATE
 40
2461179.380316887
  9
$TDUPDATE
 40
2461179.505318229
  9
$TDUUPDATE
 40
2461179.380318229
  9
$TDINDWG
 40
0.0000000116
  9
$TDUSRTIMER
 40
0.0000000116
  9
$USRTIMER
 70
     1
  9
$ANGBASE
 50
0.0
  9
$ANGDIR
 70
     0
  9
$PDMODE
 70
     0
  9
$PDSIZE
 40
-1.0
  9
$PLINEWID
 40
0.0
  9
$SPLFRAME
 70
     0
  9
$SPLINETYPE
 70
     6
  9
$SPLINESEGS
 70
     8
  9
$HANDSEED
  5
2F5
  9
$SURFTAB1
 70
     6
  9
$SURFTAB2
 70
     6
  9
$SURFTYPE
 70
     6
  9
$SURFU
 70
     6
  9
$SURFV
 70
     6
  9
$UCSBASE
  2

  9
$UCSNAME
  2

  9
$UCSORG
 10
0.0
 20
0.0
 30
0.0
  9
$UCSXDIR
 10
1.0
 20
0.0
 30
0.0
  9
$UCSYDIR
 10
0.0
 20
1.0
 30
0.0
  9
$UCSORTHOREF
  2

  9
$UCSORTHOVIEW
 70
     0
  9
$UCSORGTOP
 10
0.0
 20
0.0
 30
0.0
  9
$UCSORGBOTTOM
 10
0.0
 20
0.0
 30
0.0
  9
$UCSORGLEFT
 10
0.0
 20
0.0
 30
0.0
  9
$UCSORGRIGHT
 10
0.0
 20
0.0
 30
0.0
  9
$UCSORGFRONT
 10
0.0
 20
0.0
 30
0.0
  9
$UCSORGBACK
 10
0.0
 20
0.0
 30
0.0
  9
$PUCSBASE
  2

  9
$PUCSNAME
  2

  9
$PUCSORG
 10
0.0
 20
0.0
 30
0.0
  9
$PUCSXDIR
 10
1.0
 20
0.0
 30
0.0
  9
$PUCSYDIR
 10
0.0
 20
1.0
 30
0.0
  9
$PUCSORTHOREF
  2

  9
$PUCSORTHOVIEW
 70
     0
  9
$PUCSORGTOP
 10
0.0
 20
0.0
 30
0.0
  9
$PUCSORGBOTTOM
 10
0.0
 20
0.0
 30
0.0
  9
$PUCSORGLEFT
 10
0.0
 20
0.0
 30
0.0
  9
$PUCSORGRIGHT
 10
0.0
 20
0.0
 30
0.0
  9
$PUCSORGFRONT
 10
0.0
 20
0.0
 30
0.0
  9
$PUCSORGBACK
 10
0.0
 20
0.0
 30
0.0
  9
$USERI1
 70
     0
  9
$USERI2
 70
     0
  9
$USERI3
 70
     0
  9
$USERI4
 70
     0
  9
$USERI5
 70
     0
  9
$USERR1
 40
0.0
  9
$USERR2
 40
0.0
  9
$USERR3
 40
0.0
  9
$USERR4
 40
0.0
  9
$USERR5
 40
0.0
  9
$WORLDVIEW
 70
     1
  9
$SHADEDGE
 70
     3
  9
$SHADEDIF
 70
    70
  9
$TILEMODE
 70
     1
  9
$MAXACTVP
 70
    64
  9
$PINSBASE
 10
0.0
 20
0.0
 30
0.0
  9
$PLIMCHECK
 70
     0
  9
$PEXTMIN
 10
1.0000000000E+20
 20
1.0000000000E+20
 30
1.0000000000E+20
  9
$PEXTMAX
 10
-1.0000000000E+20
 20
-1.0000000000E+20
 30
-1.0000000000E+20
  9
$PLIMMIN
 10
0.0
 20
0.0
  9
$PLIMMAX
 10
420.0
 20
297.0
  9
$UNITMODE
 70
     0
  9
$VISRETAIN
 70
     1
  9
$PLINEGEN
 70
     0
  9
$PSLTSCALE
 70
     1
  9
$TREEDEPTH
 70
  3020
  9
$CMLSTYLE
  2
Standard
  9
$CMLJUST
 70
     0
  9
$CMLSCALE
 40
20.0
  9
$PROXYGRAPHICS
 70
     1
  9
$MEASUREMENT
 70
     1
  9
$CELWEIGHT
370
    -1
  9
$ENDCAPS
280
     0
  9
$JOINSTYLE
280
     0
  9
$LWDISPLAY
290
     1
  9
$INSUNITS
 70
     4
  9
$HYPERLINKBASE
  1

  9
$STYLESHEET
  1

  9
$XEDIT
290
     1
  9
$CEPSNTYPE
380
     0
  9
$PSTYLEMODE
290
     1
  9
$FINGERPRINTGUID
  2
{049dc60c-330e-4570-885b-85214f521cff}
  9
$VERSIONGUID
  2
{FAEB1C32-E019-11D5-929B-00C0DF256EC4}
  9
$EXTNAMES
290
     1
  9
$PSVPSCALE
 40
0.0
  9
$OLESTARTUP
290
     0
  9
$SORTENTS
280
   127
  9
$INDEXCTL
280
     0
  9
$HIDETEXT
280
     1
  9
$XCLIPFRAME
290
     0
  9
$HALOGAP
280
     0
  9
$OBSCOLOR
 70
   257
  9
$OBSLTYPE
280
     0
  9
$INTERSECTIONDISPLAY
280
     0
  9
$INTERSECTIONCOLOR
 70
   257
  9
$DIMASSOC
280
     2
  9
$PROJECTNAME
  1

  9
$CAMERADISPLAY
290
     0
  9
$LENSLENGTH
 40
50.0
  9
$CAMERAHEIGHT
 40
0.0
  9
$STEPSPERSEC
 40
2.0
  9
$STEPSIZE
 40
6.0
  9
$3DDWFPREC
 40
2.0
  9
$PSOLWIDTH
 40
5.0
  9
$PSOLHEIGHT
 40
80.0
  9
$LOFTANG1
 40
1.5707963268
  9
$LOFTANG2
 40
1.5707963268
  9
$LOFTMAG1
 40
0.0
  9
$LOFTMAG2
 40
0.0
  9
$LOFTPARAM
 70
     7
  9
$LOFTNORMALS
280
     1
  9
$LATITUDE
 40
37.795
  9
$LONGITUDE
 40
-122.394
  9
$NORTHDIRECTION
 40
0.0
  9
$TIMEZONE
 70
 -8000
  9
$LIGHTGLYPHDISPLAY
280
     1
  9
$TILEMODELIGHTSYNCH
280
     1
  9
$CMATERIAL
347
44
  9
$SOLIDHIST
280
     0
  9
$SHOWHIST
280
     1
  9
$DWFFRAME
280
     2
  9
$DGNFRAME
280
     2
  9
$REALWORLDSCALE
290
     1
  9
$INTERFERECOLOR
 62
   256
  9
$CSHADOW
280
     0
  9
$SHADOWPLANELOCATION
 40
0.0
  0
ENDSEC
  0
SECTION
  2
CLASSES
  0
CLASS
  1
ACDBDICTIONARYWDFLT
  2
AcDbDictionaryWithDefault
  3
ObjectDBX Classes
 90
        0
 91
        3
280
     0
281
     0
  0
CLASS
  1
VISUALSTYLE
  2
AcDbVisualStyle
  3
ObjectDBX Classes
 90
     4095
 91
        3
280
     0
281
     0
  0
CLASS
  1
MATERIAL
  2
AcDbMaterial
  3
ObjectDBX Classes
 90
     1153
 91
        3
280
     0
281
     0
  0
CLASS
  1
SCALE
  2
AcDbScale
  3
ObjectDBX Classes
 90
     1153
 91
        3
280
     0
281
     0
  0
CLASS
  1
TABLESTYLE
  2
AcDbTableStyle
  3
ObjectDBX Classes
 90
     4095
 91
        3
280
     0
281
     0
  0
CLASS
  1
MLEADERSTYLE
  2
AcDbMLeaderStyle
  3
ACDB_MLEADERSTYLE_CLASS
 90
     4095
 91
        3
280
     0
281
     0
  0
CLASS
  1
SUN
  2
AcDbSun
  3
SCENEOE
 90
     1153
 91
        3
280
     0
281
     0
  0
CLASS
  1
DICTIONARYVAR
  2
AcDbDictionaryVar
  3
ObjectDBX Classes
 90
        0
 91
        3
280
     0
281
     0
  0
CLASS
  1
CELLSTYLEMAP
  2
AcDbCellStyleMap
  3
ObjectDBX Classes
 90
     1152
 91
        3
280
     0
281
     0
  0
ENDSEC
  0
SECTION
  2
TABLES
  0
TABLE
  2
VPORT
  5
8
330
0
100
AcDbSymbolTable
 70
     1
  0
VPORT
  5
29
330
8
100
AcDbSymbolTableRecord
100
AcDbViewportTableRecord
  2
*Active
 70
     0
 10
0.0
 20
0.0
 11
1.0
 21
1.0
 12
1050.0
 22
742.5
 13
0.0
 23
0.0
 14
10.0
 24
10.0
 15
10.0
 25
10.0
 16
0.0
 26
0.0
 36
1.0
 17
0.0
 27
0.0
 37
0.0
 40
1485.0
 41
1.4141414141
 42
50.0
 43
0.0
 44
0.0
 50
0.0
 51
0.0
 71
     0
 72
  2000
 73
     1
 74
     3
 75
     0
 76
     0
 77
     0
 78
     0
281
     0
 65
     1
110
0.0
120
0.0
130
0.0
111
1.0
121
0.0
131
0.0
112
0.0
122
1.0
132
0.0
 79
     0
146
0.0
348
2F
 60
     3
 61
     5
292
     1
282
     1
141
0.0
142
0.0
 63
   250
361
5D
  0
ENDTAB
  0
TABLE
  2
LTYPE
  5
5
330
0
100
AcDbSymbolTable
 70
     6
  0
LTYPE
  5
14
330
5
100
AcDbSymbolTableRecord
100
AcDbLinetypeTableRecord
  2
ByBlock
 70
     0
  3

 72
    65
 73
     0
 40
0.0
  0
LTYPE
  5
15
330
5
100
AcDbSymbolTableRecord
100
AcDbLinetypeTableRecord
  2
ByLayer
 70
     0
  3

 72
    65
 73
     0
 40
0.0
  0
LTYPE
  5
16
330
5
100
AcDbSymbolTableRecord
100
AcDbLinetypeTableRecord
  2
Continuous
 70
     0
  3
Solid line
 72
    65
 73
     0
 40
0.0
  0
LTYPE
  5
5E
330
5
100
AcDbSymbolTableRecord
100
AcDbLinetypeTableRecord
  2
HIDDEN
 70
     0
  3
Hidden __ __ __ __ __ __ __ __ __ __ __ __ __ __
 72
    65
 73
     2
 40
1.905
 49
1.27
 74
     0
 49
-0.635
 74
     0
  0
LTYPE
  5
5F
330
5
100
AcDbSymbolTableRecord
100
AcDbLinetypeTableRecord
  2
PHANTOM
 70
     0
  3
Phantom ______  __  __  ______  __  __  ______
 72
    65
 73
     6
 40
12.7
 49
6.35
 74
     0
 49
-1.27
 74
     0
 49
1.27
 74
     0
 49
-1.27
 74
     0
 49
1.27
 74
     0
 49
-1.27
 74
     0
  0
LTYPE
  5
60
330
5
100
AcDbSymbolTableRecord
100
AcDbLinetypeTableRecord
  2
CENTER
 70
     0
  3
Center ____ _ ____ _ ____ _ ____ _ ____ _ ____
 72
    65
 73
     4
 40
10.16
 49
6.35
 74
     0
 49
-1.27
 74
     0
 49
1.27
 74
     0
 49
-1.27
 74
     0
  0
LTYPE
  5
61
330
5
100
AcDbSymbolTableRecord
100
AcDbLinetypeTableRecord
  2
CENTERX2
 70
     0
  3
Center (2x) ________  __  ________  __  _____
 72
    65
 73
     4
 40
20.32
 49
12.7
 74
     0
 49
-2.54
 74
     0
 49
2.54
 74
     0
 49
-2.54
 74
     0
  0
LTYPE
  5
62
330
5
100
AcDbSymbolTableRecord
100
AcDbLinetypeTableRecord
  2
DOT2
 70
     0
  3
Dot (.5x) ........................................
 72
    65
 73
     2
 40
0.635
 49
0.0
 74
     0
 49
-0.635
 74
     0
  0
ENDTAB
  0
TABLE
  2
LAYER
  5
2
330
0
100
AcDbSymbolTable
 70
     9
  0
LAYER
  5
10
330
2
100
AcDbSymbolTableRecord
100
AcDbLayerTableRecord
  2
0
 70
     0
 62
     7
  6
Continuous
370
    -3
390
F
347
46
  0
LAYER
  5
63
330
2
100
AcDbSymbolTableRecord
100
AcDbLayerTableRecord
  2
AM_0
 70
     0
 62
     7
  6
Continuous
370
    25
390
F
347
46
  0
LAYER
  5
64
330
2
100
AcDbSymbolTableRecord
100
AcDbLayerTableRecord
  2
AM_3
 70
     0
 62
     6
  6
HIDDEN
370
    -3
390
F
347
46
  0
LAYER
  5
65
330
2
100
AcDbSymbolTableRecord
100
AcDbLayerTableRecord
  2
AM_5
 70
     0
 62
     3
  6
Continuous
370
    -3
390
F
347
46
  0
LAYER
  5
66
330
2
100
AcDbSymbolTableRecord
100
AcDbLayerTableRecord
  2
AM_6
 70
     0
 62
     2
  6
Continuous
370
    -1
390
F
347
46
  0
LAYER
  5
67
330
2
100
AcDbSymbolTableRecord
100
AcDbLayerTableRecord
  2
AM_7
 70
     0
 62
     4
  6
CENTERX2
370
    -3
390
F
347
46
  0
LAYER
  5
68
330
2
100
AcDbSymbolTableRecord
100
AcDbLayerTableRecord
  2
AM_8
 70
     0
 62
     1
  6
Continuous
370
    -1
390
F
347
46
  0
LAYER
  5
69
330
2
100
AcDbSymbolTableRecord
100
AcDbLayerTableRecord
  2
AM_10
 70
     0
 62
     7
  6
CENTER
370
    -3
390
F
347
46
  0
LAYER
  5
6A
330
2
100
AcDbSymbolTableRecord
100
AcDbLayerTableRecord
  2
AM_12
 70
     0
 62
     7
  6
Continuous
370
    -3
390
F
347
46
  0
ENDTAB
  0
TABLE
  2
STYLE
  5
3
330
0
100
AcDbSymbolTable
 70
     7
  0
STYLE
  5
11
330
3
100
AcDbSymbolTableRecord
100
AcDbTextStyleTableRecord
  2
STANDARD
 70
     0
 40
0.0
 41
1.0
 50
0.0
 71
     0
 42
17.5
  3
ARIAL.TTF
  4

1001
ACAD
1000
ARIAL
1071
       34
  0
STYLE
  5
137
330
3
100
AcDbSymbolTableRecord
100
AcDbTextStyleTableRecord
  2
SLDTEXTSTYLE0
 70
     0
 40
0.0
 41
0.948
 50
0.0
 71
     0
 42
17.5
  3
ARIAL.TTF
  4

1001
ACAD
1000
Arial
1071
      290
  0
STYLE
  5
13A
330
3
100
AcDbSymbolTableRecord
100
AcDbTextStyleTableRecord
  2
SLDTEXTSTYLE1
 70
     0
 40
0.0
 41
0.9875
 50
0.0
 71
     0
 42
17.5
  3
ARIAL.TTF
  4

1001
ACAD
1000
Arial
1071
      290
  0
STYLE
  5
13E
330
3
100
AcDbSymbolTableRecord
100
AcDbTextStyleTableRecord
  2
SLDTEXTSTYLE2
 70
     0
 40
0.0
 41
0.913
 50
0.0
 71
     0
 42
17.5
  3
GOTHIC.TTF
  4

1001
ACAD
1000
Century Gothic
1071
      290
  0
STYLE
  5
141
330
3
100
AcDbSymbolTableRecord
100
AcDbTextStyleTableRecord
  2
SLDTEXTSTYLE3
 70
     0
 40
0.0
 41
1.0
 50
0.0
 71
     0
 42
17.5
  3
ARIAL.TTF
  4

1001
ACAD
1000
ARIAL
1071
      290
  0
STYLE
  5
144
330
3
100
AcDbSymbolTableRecord
100
AcDbTextStyleTableRecord
  2
SLDTEXTSTYLE4
 70
     0
 40
0.0
 41
1.0619479554
 50
0.0
 71
     0
 42
17.5
  3
ARIAL.TTF
  4

1001
ACAD
1000
ARIAL
1071
      290
  0
STYLE
  5
153
330
3
100
AcDbSymbolTableRecord
100
AcDbTextStyleTableRecord
  2
SLDTEXTSTYLE5
 70
     0
 40
0.0
 41
0.87
 50
0.0
 71
     0
 42
17.5
  3
ARIALN.TTF
  4

1001
ACAD
1000
Arial Narrow
1071
      290
  0
ENDTAB
  0
TABLE
  2
VIEW
  5
6
330
0
100
AcDbSymbolTable
 70
     0
  0
ENDTAB
  0
TABLE
  2
UCS
  5
7
330
0
100
AcDbSymbolTable
 70
     0
  0
ENDTAB
  0
TABLE
  2
APPID
  5
9
330
0
100
AcDbSymbolTable
 70
     2
  0
APPID
  5
12
330
9
100
AcDbSymbolTableRecord
100
AcDbRegAppTableRecord
  2
ACAD
 70
     0
  0
APPID
  5
2ED
330
9
100
AcDbSymbolTableRecord
100
AcDbRegAppTableRecord
  2
ACAD_MLEADERVER
 70
     0
  0
ENDTAB
  0
TABLE
  2
DIMSTYLE
  5
A
330
0
100
AcDbSymbolTable
 70
     4
100
AcDbDimStyleTable
  0
DIMSTYLE
105
27
330
A
100
AcDbSymbolTableRecord
100
AcDbDimStyleTableRecord
  2
ISO-25
 70
     0
 41
2.5
 42
0.625
 43
3.75
 44
1.25
 73
     0
 74
     0
 77
     1
 78
     8
140
2.5
141
2.5
143
0.0393700787
147
0.625
171
     3
172
     1
178
     0
271
     2
272
     2
274
     3
278
    44
283
     0
284
     8
340
11
  0
DIMSTYLE
105
217
102
{ACAD_REACTORS
330
216
102
}
330
A
100
AcDbSymbolTableRecord
100
AcDbDimStyleTableRecord
  2
SLDDIMSTYLE0
 70
     0
 41
17.5
 44
0.0
 45
0.000000001
 73
     0
 74
     0
 77
     1
 78
    12
 79
     3
140
17.5
147
4.375
173
     1
178
     0
271
     1
272
     1
276
     2
284
    12
340
137
  0
DIMSTYLE
105
227
330
A
100
AcDbSymbolTableRecord
100
AcDbDimStyleTableRecord
  2
SLDDIMSTYLE1
 70
     0
 41
5.3846153846
 44
0.0
 45
0.000000001
146
5.3846153846
147
0.0
173
     1
178
     0
271
     0
272
     0
276
     2
340
11
341
228
343
228
344
228
  0
DIMSTYLE
105
260
102
{ACAD_REACTORS
330
25F
102
}
330
A
100
AcDbSymbolTableRecord
100
AcDbDimStyleTableRecord
  2
SLDDIMSTYLE2
 70
     0
 41
17.5
 44
0.0
 45
0.000000001
 73
     0
 74
     0
 77
     1
 78
    12
 79
     3
140
17.5
147
4.375
173
     1
178
     0
271
     0
272
     0
276
     2
284
    12
340
137
  0
ENDTAB
  0
TABLE
  2
BLOCK_RECORD
  5
1
330
0
100
AcDbSymbolTable
 70
     9
  0
BLOCK_RECORD
  5
1F
330
1
100
AcDbSymbolTableRecord
100
AcDbBlockTableRecord
  2
*Model_Space
340
22
 70
     0
280
     1
281
     0
  0
BLOCK_RECORD
  5
1B
330
1
100
AcDbSymbolTableRecord
100
AcDbBlockTableRecord
  2
*Paper_Space
340
1E
 70
     0
280
     1
281
     0
  0
BLOCK_RECORD
  5
23
330
1
100
AcDbSymbolTableRecord
100
AcDbBlockTableRecord
  2
*Paper_Space0
340
26
 70
     0
280
     1
281
     0
  0
BLOCK_RECORD
  5
130
330
1
100
AcDbSymbolTableRecord
100
AcDbBlockTableRecord
  2
SW_NOTE_0
340
0
102
{BLKREFS
331
139
102
}
 70
     0
280
     1
281
     0
  0
BLOCK_RECORD
  5
15A
330
1
100
AcDbSymbolTableRecord
100
AcDbBlockTableRecord
  2
SW_TABLEANNOTATION_0
340
0
102
{BLKREFS
331
175
102
}
 70
     0
280
     1
281
     0
  0
BLOCK_RECORD
  5
176
330
1
100
AcDbSymbolTableRecord
100
AcDbBlockTableRecord
  2
SW_TABLEANNOTATION_1
340
0
102
{BLKREFS
331
1DC
102
}
 70
     0
280
     1
281
     0
  0
BLOCK_RECORD
  5
218
330
1
100
AcDbSymbolTableRecord
100
AcDbBlockTableRecord
  2
_D
340
0
 70
     0
280
     1
281
     0
  0
BLOCK_RECORD
  5
221
330
1
100
AcDbSymbolTableRecord
100
AcDbBlockTableRecord
  2
SW_NOTE_0_1
340
0
102
{BLKREFS
331
226
102
}
 70
     0
280
     1
281
     0
  0
BLOCK_RECORD
  5
228
330
1
100
AcDbSymbolTableRecord
100
AcDbBlockTableRecord
  2
_Dot
340
0
 70
     0
280
     1
281
     0
  0
BLOCK_RECORD
  5
22E
330
1
100
AcDbSymbolTableRecord
100
AcDbBlockTableRecord
  2
SW_NOTE_0_2
340
0
102
{BLKREFS
331
233
102
}
 70
     0
280
     1
281
     0
  0
BLOCK_RECORD
  5
261
330
1
100
AcDbSymbolTableRecord
100
AcDbBlockTableRecord
  2
_D_1
340
0
 70
     0
280
     1
281
     0
  0
ENDTAB
  0
ENDSEC
  0
SECTION
  2
BLOCKS
  0
BLOCK
  5
20
330
1F
100
AcDbEntity
  8
0
100
AcDbBlockBegin
  2
*Model_Space
 70
     0
 10
0.0
 20
0.0
 30
0.0
  3
*Model_Space
  1

  0
ENDBLK
  5
21
330
1F
100
AcDbEntity
  8
0
100
AcDbBlockEnd
  0
BLOCK
  5
1C
330
1B
100
AcDbEntity
 67
     1
  8
0
100
AcDbBlockBegin
  2
*Paper_Space
 70
     0
 10
0.0
 20
0.0
 30
0.0
  3
*Paper_Space
  1

  0
ENDBLK
  5
1D
330
1B
100
AcDbEntity
 67
     1
  8
0
100
AcDbBlockEnd
  0
BLOCK
  5
24
330
23
100
AcDbEntity
  8
0
100
AcDbBlockBegin
  2
*Paper_Space0
 70
     0
 10
0.0
 20
0.0
 30
0.0
  3
*Paper_Space0
  1

  0
ENDBLK
  5
25
330
23
100
AcDbEntity
  8
0
100
AcDbBlockEnd
  0
BLOCK
  5
131
330
130
100
AcDbEntity
  8
0
100
AcDbBlockBegin
  2
SW_NOTE_0
 70
     0
 10
0.0
 20
0.0
 30
0.0
  3
SW_NOTE_0
  1

  0
LINE
  5
133
330
130
100
AcDbEntity
  8
AM_6
 62
     0
100
AcDbLine
 10
-1.3662715499
 20
0.17252848
 30
0.0
 11
-18.798244339
 21
0.17252848
 31
0.0
  0
LINE
  5
134
330
130
100
AcDbEntity
  8
AM_6
 62
     0
100
AcDbLine
 10
-18.798244339
 20
0.17252848
 30
0.0
 11
-18.798244339
 21
251.8732087521
 31
0.0
  0
LINE
  5
135
330
130
100
AcDbEntity
  8
AM_6
 62
     0
100
AcDbLine
 10
-18.798244339
 20
251.8732087521
 30
0.0
 11
-1.3662715499
 21
251.8732087521
 31
0.0
  0
LINE
  5
136
330
130
100
AcDbEntity
  8
AM_6
 62
     0
100
AcDbLine
 10
-1.3662715499
 20
251.8732087521
 30
0.0
 11
-1.3662715499
 21
0.17252848
 31
0.0
  0
MTEXT
  5
138
330
130
100
AcDbEntity
  8
AM_6
 62
     0
100
AcDbMText
 10
-17.0532919741
 20
0.0
 30
0.0
 40
13.2291666667
 41
0.0
 46
0.0
 71
     1
 72
     1
  1
1271071WD_Typical_00513314
  7
SLDTEXTSTYLE0
 11
-3.269436733918102E-15
 21
1.0
 31
0.0
 73
     1
 44
1.0
  0
ENDBLK
  5
132
330
130
100
AcDbEntity
  8
0
100
AcDbBlockEnd
  0
BLOCK
  5
15B
330
15A
100
AcDbEntity
  8
0
100
AcDbBlockBegin
  2
SW_TABLEANNOTATION_0
 70
     0
 10
0.0
 20
0.0
 30
0.0
  3
SW_TABLEANNOTATION_0
  1

  0
LINE
  5
15D
330
15A
100
AcDbEntity
  8
AM_0
 62
     0
100
AcDbLine
 10
0.0
 20
0.0
 30
0.0
 11
0.0
 21
-27.3160061468
 31
0.0
  0
LINE
  5
15E
330
15A
100
AcDbEntity
  8
AM_0
 62
     0
100
AcDbLine
 10
0.0
 20
-27.3160061468
 30
0.0
 11
0.0
 21
-55.3160061468
 31
0.0
  0
LINE
  5
15F
330
15A
100
AcDbEntity
  8
AM_0
 62
     0
100
AcDbLine
 10
40.0
 20
-27.3160061468
 30
0.0
 11
40.0
 21
-55.3160061468
 31
0.0
  0
LINE
  5
160
330
15A
100
AcDbEntity
  8
AM_0
 62
     0
100
AcDbLine
 10
905.0
 20
-27.3160061468
 30
0.0
 11
905.0
 21
-55.3160061468
 31
0.0
  0
LINE
  5
161
330
15A
100
AcDbEntity
  8
AM_0
 62
     0
100
AcDbLine
 10
1000.0
 20
-27.3160061468
 30
0.0
 11
1000.0
 21
-55.3160061468
 31
0.0
  0
LINE
  5
162
330
15A
100
AcDbEntity
  8
AM_0
 62
     0
100
AcDbLine
 10
1142.0
 20
0.0
 30
0.0
 11
1142.0
 21
-27.3160061468
 31
0.0
  0
LINE
  5
163
330
15A
100
AcDbEntity
  8
AM_0
 62
     0
100
AcDbLine
 10
1142.0
 20
-27.3160061468
 30
0.0
 11
1142.0
 21
-55.3160061468
 31
0.0
  0
LINE
  5
164
330
15A
100
AcDbEntity
  8
AM_0
 62
     0
100
AcDbLine
 10
0.0
 20
0.0
 30
0.0
 11
40.0
 21
0.0
 31
0.0
  0
LINE
  5
165
330
15A
100
AcDbEntity
  8
AM_0
 62
     0
100
AcDbLine
 10
0.0
 20
-27.3160061468
 30
0.0
 11
40.0
 21
-27.3160061468
 31
0.0
  0
LINE
  5
166
330
15A
100
AcDbEntity
  8
AM_0
 62
     0
100
AcDbLine
 10
40.0
 20
0.0
 30
0.0
 11
905.0
 21
0.0
 31
0.0
  0
LINE
  5
167
330
15A
100
AcDbEntity
  8
AM_0
 62
     0
100
AcDbLine
 10
40.0
 20
-27.3160061468
 30
0.0
 11
905.0
 21
-27.3160061468
 31
0.0
  0
LINE
  5
168
330
15A
100
AcDbEntity
  8
AM_0
 62
     0
100
AcDbLine
 10
905.0
 20
0.0
 30
0.0
 11
1000.0
 21
0.0
 31
0.0
  0
LINE
  5
169
330
15A
100
AcDbEntity
  8
AM_0
 62
     0
100
AcDbLine
 10
905.0
 20
-27.3160061468
 30
0.0
 11
1000.0
 21
-27.3160061468
 31
0.0
  0
LINE
  5
16A
330
15A
100
AcDbEntity
  8
AM_0
 62
     0
100
AcDbLine
 10
1000.0
 20
0.0
 30
0.0
 11
1142.0
 21
0.0
 31
0.0
  0
LINE
  5
16B
330
15A
100
AcDbEntity
  8
AM_0
 62
     0
100
AcDbLine
 10
1000.0
 20
-27.3160061468
 30
0.0
 11
1142.0
 21
-27.3160061468
 31
0.0
  0
LINE
  5
16C
330
15A
100
AcDbEntity
  8
AM_0
 62
     0
100
AcDbLine
 10
0.0
 20
-55.3160061468
 30
0.0
 11
40.0
 21
-55.3160061468
 31
0.0
  0
LINE
  5
16D
330
15A
100
AcDbEntity
  8
AM_0
 62
     0
100
AcDbLine
 10
40.0
 20
-55.3160061468
 30
0.0
 11
905.0
 21
-55.3160061468
 31
0.0
  0
LINE
  5
16E
330
15A
100
AcDbEntity
  8
AM_0
 62
     0
100
AcDbLine
 10
905.0
 20
-55.3160061468
 30
0.0
 11
1000.0
 21
-55.3160061468
 31
0.0
  0
LINE
  5
16F
330
15A
100
AcDbEntity
  8
AM_0
 62
     0
100
AcDbLine
 10
1000.0
 20
-55.3160061468
 30
0.0
 11
1142.0
 21
-55.3160061468
 31
0.0
  0
MTEXT
  5
170
330
15A
100
AcDbEntity
  8
AM_0
 62
     0
100
AcDbMText
 10
540.8864971288
 20
-8.5019559689
 30
0.0
 40
10.5833333333
 41
0.0
 46
0.0
 71
     1
 72
     1
  1
EDITIONS
  7
SLDTEXTSTYLE2
 73
     1
 44
1.0
  0
MTEXT
  5
171
330
15A
100
AcDbEntity
  8
AM_0
 62
     0
100
AcDbMText
 10
7.7507716883
 20
-34.7300542098
 30
0.0
 40
13.2291666667
 41
0.0
 46
0.0
 71
     1
 72
     1
  1
ED
  7
SLDTEXTSTYLE0
 73
     1
 44
1.0
  0
MTEXT
  5
172
330
15A
100
AcDbEntity
  8
AM_0
 62
     0
100
AcDbMText
 10
417.133487612
 20
-34.7300542098
 30
0.0
 40
13.2291666667
 41
0.0
 46
0.0
 71
     1
 72
     1
  1
ALTERATION
  7
SLDTEXTSTYLE0
 73
     1
 44
1.0
  0
MTEXT
  5
173
330
15A
100
AcDbEntity
  8
AM_0
 62
     0
100
AcDbMText
 10
928.9814809896
 20
-34.7300542098
 30
0.0
 40
13.2291666667
 41
0.0
 46
0.0
 71
     1
 72
     1
  1
DATE
  7
SLDTEXTSTYLE0
 73
     1
 44
1.0
  0
MTEXT
  5
174
330
15A
100
AcDbEntity
  8
AM_0
 62
     0
100
AcDbMText
 10
1019.5532380641
 20
-34.7300542098
 30
0.0
 40
13.2291666667
 41
0.0
 46
0.0
 71
     1
 72
     1
  1
SIGNATURE
  7
SLDTEXTSTYLE0
 73
     1
 44
1.0
  0
ENDBLK
  5
15C
330
15A
100
AcDbEntity
  8
0
100
AcDbBlockEnd
  0
BLOCK
  5
177
330
176
100
AcDbEntity
  8
0
100
AcDbBlockBegin
  2
SW_TABLEANNOTATION_1
 70
     0
 10
0.0
 20
0.0
 30
0.0
  3
SW_TABLEANNOTATION_1
  1

  0
LINE
  5
179
330
176
100
AcDbEntity
  8
AM_0
 62
     0
100
AcDbLine
 10
0.0
 20
0.0
 30
0.0
 11
0.0
 21
-35.45
 31
0.0
  0
LINE
  5
17A
330
176
100
AcDbEntity
  8
AM_0
 62
     0
100
AcDbLine
 10
75.0
 20
0.0
 30
0.0
 11
75.0
 21
-35.45
 31
0.0
  0
LINE
  5
17B
330
176
100
AcDbEntity
  8
AM_0
 62
     0
100
AcDbLine
 10
115.0
 20
0.0
 30
0.0
 11
115.0
 21
-35.45
 31
0.0
  0
LINE
  5
17C
330
176
100
AcDbEntity
  8
AM_0
 62
     0
100
AcDbLine
 10
185.0
 20
0.0
 30
0.0
 11
185.0
 21
-35.45
 31
0.0
  0
LINE
  5
17D
330
176
100
AcDbEntity
  8
AM_0
 62
     0
100
AcDbLine
 10
265.0
 20
0.0
 30
0.0
 11
265.0
 21
-35.45
 31
0.0
  0
LINE
  5
17E
330
176
100
AcDbEntity
  8
AM_0
 62
     0
100
AcDbLine
 10
490.0
 20
0.0
 30
0.0
 11
490.0
 21
-35.45
 31
0.0
  0
LINE
  5
17F
330
176
100
AcDbEntity
  8
AM_0
 62
     0
100
AcDbLine
 10
610.0
 20
0.0
 30
0.0
 11
610.0
 21
-35.45
 31
0.0
  0
LINE
  5
180
330
176
100
AcDbEntity
  8
AM_0
 62
     0
100
AcDbLine
 10
870.0162659515
 20
0.0
 30
0.0
 11
870.0162659515
 21
-35.45
 31
0.0
  0
LINE
  5
181
330
176
100
AcDbEntity
  8
AM_0
 62
     0
100
AcDbLine
 10
967.5162659515
 20
0.0
 30
0.0
 11
967.5162659515
 21
-35.45
 31
0.0
  0
LINE
  5
182
330
176
100
AcDbEntity
  8
AM_0
 62
     0
100
AcDbLine
 10
1032.5162659515
 20
0.0
 30
0.0
 11
1032.5162659515
 21
-35.45
 31
0.0
  0
LINE
  5
183
330
176
100
AcDbEntity
  8
AM_0
 62
     0
100
AcDbLine
 10
1117.5162659515
 20
0.0
 30
0.0
 11
1117.5162659515
 21
-35.45
 31
0.0
  0
LINE
  5
184
330
176
100
AcDbEntity
  8
AM_0
 62
     0
100
AcDbLine
 10
0.0
 20
-35.45
 30
0.0
 11
75.0
 21
-35.45
 31
0.0
  0
LINE
  5
185
330
176
100
AcDbEntity
  8
AM_0
 62
     0
100
AcDbLine
 10
75.0
 20
-35.45
 30
0.0
 11
115.0
 21
-35.45
 31
0.0
  0
LINE
  5
186
330
176
100
AcDbEntity
  8
AM_0
 62
     0
100
AcDbLine
 10
115.0
 20
-35.45
 30
0.0
 11
185.0
 21
-35.45
 31
0.0
  0
LINE
  5
187
330
176
100
AcDbEntity
  8
AM_0
 62
     0
100
AcDbLine
 10
185.0
 20
-35.45
 30
0.0
 11
265.0
 21
-35.45
 31
0.0
  0
LINE
  5
188
330
176
100
AcDbEntity
  8
AM_0
 62
     0
100
AcDbLine
 10
265.0
 20
-35.45
 30
0.0
 11
490.0
 21
-35.45
 31
0.0
  0
LINE
  5
189
330
176
100
AcDbEntity
  8
AM_0
 62
     0
100
AcDbLine
 10
490.0
 20
-35.45
 30
0.0
 11
610.0
 21
-35.45
 31
0.0
  0
LINE
  5
18A
330
176
100
AcDbEntity
  8
AM_0
 62
     0
100
AcDbLine
 10
610.0
 20
-35.45
 30
0.0
 11
870.0162659515
 21
-35.45
 31
0.0
  0
LINE
  5
18B
330
176
100
AcDbEntity
  8
AM_0
 62
     0
100
AcDbLine
 10
870.0162659515
 20
-35.45
 30
0.0
 11
967.5162659515
 21
-35.45
 31
0.0
  0
LINE
  5
18C
330
176
100
AcDbEntity
  8
AM_0
 62
     0
100
AcDbLine
 10
967.5162659515
 20
-35.45
 30
0.0
 11
1032.5162659515
 21
-35.45
 31
0.0
  0
LINE
  5
18D
330
176
100
AcDbEntity
  8
AM_0
 62
     0
100
AcDbLine
 10
1032.5162659515
 20
-35.45
 30
0.0
 11
1117.5162659515
 21
-35.45
 31
0.0
  0
LINE
  5
18E
330
176
100
AcDbEntity
  8
AM_0
 62
     0
100
AcDbLine
 10
0.0
 20
89.9
 30
0.0
 11
0.0
 21
44.95
 31
0.0
  0
LINE
  5
18F
330
176
100
AcDbEntity
  8
AM_0
 62
     0
100
AcDbLine
 10
75.0
 20
89.9
 30
0.0
 11
75.0
 21
44.95
 31
0.0
  0
LINE
  5
190
330
176
100
AcDbEntity
  8
AM_0
 62
     0
100
AcDbLine
 10
0.0
 20
44.95
 30
0.0
 11
0.0
 21
0.0
 31
0.0
  0
LINE
  5
191
330
176
100
AcDbEntity
  8
AM_0
 62
     0
100
AcDbLine
 10
75.0
 20
44.95
 30
0.0
 11
75.0
 21
0.0
 31
0.0
  0
LINE
  5
192
330
176
100
AcDbEntity
  8
AM_0
 62
     0
100
AcDbLine
 10
115.0
 20
89.9
 30
0.0
 11
115.0
 21
44.95
 31
0.0
  0
LINE
  5
193
330
176
100
AcDbEntity
  8
AM_0
 62
     0
100
AcDbLine
 10
115.0
 20
44.95
 30
0.0
 11
115.0
 21
0.0
 31
0.0
  0
LINE
  5
194
330
176
100
AcDbEntity
  8
AM_0
 62
     0
100
AcDbLine
 10
185.0
 20
89.9
 30
0.0
 11
185.0
 21
44.95
 31
0.0
  0
LINE
  5
195
330
176
100
AcDbEntity
  8
AM_0
 62
     0
100
AcDbLine
 10
185.0
 20
44.95
 30
0.0
 11
185.0
 21
0.0
 31
0.0
  0
LINE
  5
196
330
176
100
AcDbEntity
  8
AM_0
 62
     0
100
AcDbLine
 10
265.0
 20
89.9
 30
0.0
 11
265.0
 21
44.95
 31
0.0
  0
LINE
  5
197
330
176
100
AcDbEntity
  8
AM_0
 62
     0
100
AcDbLine
 10
265.0
 20
44.95
 30
0.0
 11
265.0
 21
0.0
 31
0.0
  0
LINE
  5
198
330
176
100
AcDbEntity
  8
AM_0
 62
     0
100
AcDbLine
 10
490.0
 20
89.9
 30
0.0
 11
490.0
 21
44.95
 31
0.0
  0
LINE
  5
199
330
176
100
AcDbEntity
  8
AM_0
 62
     0
100
AcDbLine
 10
490.0
 20
44.95
 30
0.0
 11
490.0
 21
0.0
 31
0.0
  0
LINE
  5
19A
330
176
100
AcDbEntity
  8
AM_0
 62
     0
100
AcDbLine
 10
610.0
 20
89.9
 30
0.0
 11
610.0
 21
44.95
 31
0.0
  0
LINE
  5
19B
330
176
100
AcDbEntity
  8
AM_0
 62
     0
100
AcDbLine
 10
610.0
 20
44.95
 30
0.0
 11
610.0
 21
0.0
 31
0.0
  0
LINE
  5
19C
330
176
100
AcDbEntity
  8
AM_0
 62
     0
100
AcDbLine
 10
870.0162659515
 20
89.9
 30
0.0
 11
870.0162659515
 21
44.95
 31
0.0
  0
LINE
  5
19D
330
176
100
AcDbEntity
  8
AM_0
 62
     0
100
AcDbLine
 10
870.0162659515
 20
44.95
 30
0.0
 11
870.0162659515
 21
0.0
 31
0.0
  0
LINE
  5
19E
330
176
100
AcDbEntity
  8
AM_0
 62
     0
100
AcDbLine
 10
967.5162659515
 20
89.9
 30
0.0
 11
967.5162659515
 21
44.95
 31
0.0
  0
LINE
  5
19F
330
176
100
AcDbEntity
  8
AM_0
 62
     0
100
AcDbLine
 10
967.5162659515
 20
44.95
 30
0.0
 11
967.5162659515
 21
0.0
 31
0.0
  0
LINE
  5
1A0
330
176
100
AcDbEntity
  8
AM_0
 62
     0
100
AcDbLine
 10
1032.5162659515
 20
89.9
 30
0.0
 11
1032.5162659515
 21
44.95
 31
0.0
  0
LINE
  5
1A1
330
176
100
AcDbEntity
  8
AM_0
 62
     0
100
AcDbLine
 10
1032.5162659515
 20
44.95
 30
0.0
 11
1032.5162659515
 21
0.0
 31
0.0
  0
LINE
  5
1A2
330
176
100
AcDbEntity
  8
AM_0
 62
     0
100
AcDbLine
 10
1117.5162659515
 20
89.9
 30
0.0
 11
1117.5162659515
 21
44.95
 31
0.0
  0
LINE
  5
1A3
330
176
100
AcDbEntity
  8
AM_0
 62
     0
100
AcDbLine
 10
1117.5162659515
 20
44.95
 30
0.0
 11
1117.5162659515
 21
0.0
 31
0.0
  0
LINE
  5
1A4
330
176
100
AcDbEntity
  8
AM_0
 62
     0
100
AcDbLine
 10
0.0
 20
89.9
 30
0.0
 11
75.0
 21
89.9
 31
0.0
  0
LINE
  5
1A5
330
176
100
AcDbEntity
  8
AM_0
 62
     0
100
AcDbLine
 10
0.0
 20
44.95
 30
0.0
 11
75.0
 21
44.95
 31
0.0
  0
LINE
  5
1A6
330
176
100
AcDbEntity
  8
AM_0
 62
     0
100
AcDbLine
 10
75.0
 20
89.9
 30
0.0
 11
115.0
 21
89.9
 31
0.0
  0
LINE
  5
1A7
330
176
100
AcDbEntity
  8
AM_0
 62
     0
100
AcDbLine
 10
75.0
 20
44.95
 30
0.0
 11
115.0
 21
44.95
 31
0.0
  0
LINE
  5
1A8
330
176
100
AcDbEntity
  8
AM_0
 62
     0
100
AcDbLine
 10
115.0
 20
89.9
 30
0.0
 11
185.0
 21
89.9
 31
0.0
  0
LINE
  5
1A9
330
176
100
AcDbEntity
  8
AM_0
 62
     0
100
AcDbLine
 10
115.0
 20
44.95
 30
0.0
 11
185.0
 21
44.95
 31
0.0
  0
LINE
  5
1AA
330
176
100
AcDbEntity
  8
AM_0
 62
     0
100
AcDbLine
 10
185.0
 20
89.9
 30
0.0
 11
265.0
 21
89.9
 31
0.0
  0
LINE
  5
1AB
330
176
100
AcDbEntity
  8
AM_0
 62
     0
100
AcDbLine
 10
185.0
 20
44.95
 30
0.0
 11
265.0
 21
44.95
 31
0.0
  0
LINE
  5
1AC
330
176
100
AcDbEntity
  8
AM_0
 62
     0
100
AcDbLine
 10
265.0
 20
89.9
 30
0.0
 11
490.0
 21
89.9
 31
0.0
  0
LINE
  5
1AD
330
176
100
AcDbEntity
  8
AM_0
 62
     0
100
AcDbLine
 10
265.0
 20
44.95
 30
0.0
 11
490.0
 21
44.95
 31
0.0
  0
LINE
  5
1AE
330
176
100
AcDbEntity
  8
AM_0
 62
     0
100
AcDbLine
 10
490.0
 20
89.9
 30
0.0
 11
610.0
 21
89.9
 31
0.0
  0
LINE
  5
1AF
330
176
100
AcDbEntity
  8
AM_0
 62
     0
100
AcDbLine
 10
490.0
 20
44.95
 30
0.0
 11
610.0
 21
44.95
 31
0.0
  0
LINE
  5
1B0
330
176
100
AcDbEntity
  8
AM_0
 62
     0
100
AcDbLine
 10
610.0
 20
89.9
 30
0.0
 11
870.0162659515
 21
89.9
 31
0.0
  0
LINE
  5
1B1
330
176
100
AcDbEntity
  8
AM_0
 62
     0
100
AcDbLine
 10
610.0
 20
44.95
 30
0.0
 11
870.0162659515
 21
44.95
 31
0.0
  0
LINE
  5
1B2
330
176
100
AcDbEntity
  8
AM_0
 62
     0
100
AcDbLine
 10
870.0162659515
 20
89.9
 30
0.0
 11
967.5162659515
 21
89.9
 31
0.0
  0
LINE
  5
1B3
330
176
100
AcDbEntity
  8
AM_0
 62
     0
100
AcDbLine
 10
870.0162659515
 20
44.95
 30
0.0
 11
967.5162659515
 21
44.95
 31
0.0
  0
LINE
  5
1B4
330
176
100
AcDbEntity
  8
AM_0
 62
     0
100
AcDbLine
 10
967.5162659515
 20
89.9
 30
0.0
 11
1032.5162659515
 21
89.9
 31
0.0
  0
LINE
  5
1B5
330
176
100
AcDbEntity
  8
AM_0
 62
     0
100
AcDbLine
 10
967.5162659515
 20
44.95
 30
0.0
 11
1032.5162659515
 21
44.95
 31
0.0
  0
LINE
  5
1B6
330
176
100
AcDbEntity
  8
AM_0
 62
     0
100
AcDbLine
 10
1032.5162659515
 20
89.9
 30
0.0
 11
1117.5162659515
 21
89.9
 31
0.0
  0
LINE
  5
1B7
330
176
100
AcDbEntity
  8
AM_0
 62
     0
100
AcDbLine
 10
1032.5162659515
 20
44.95
 30
0.0
 11
1117.5162659515
 21
44.95
 31
0.0
  0
LINE
  5
1B8
330
176
100
AcDbEntity
  8
AM_0
 62
     0
100
AcDbLine
 10
0.0
 20
0.0
 30
0.0
 11
75.0
 21
0.0
 31
0.0
  0
LINE
  5
1B9
330
176
100
AcDbEntity
  8
AM_0
 62
     0
100
AcDbLine
 10
75.0
 20
0.0
 30
0.0
 11
115.0
 21
0.0
 31
0.0
  0
LINE
  5
1BA
330
176
100
AcDbEntity
  8
AM_0
 62
     0
100
AcDbLine
 10
115.0
 20
0.0
 30
0.0
 11
185.0
 21
0.0
 31
0.0
  0
LINE
  5
1BB
330
176
100
AcDbEntity
  8
AM_0
 62
     0
100
AcDbLine
 10
185.0
 20
0.0
 30
0.0
 11
265.0
 21
0.0
 31
0.0
  0
LINE
  5
1BC
330
176
100
AcDbEntity
  8
AM_0
 62
     0
100
AcDbLine
 10
265.0
 20
0.0
 30
0.0
 11
490.0
 21
0.0
 31
0.0
  0
LINE
  5
1BD
330
176
100
AcDbEntity
  8
AM_0
 62
     0
100
AcDbLine
 10
490.0
 20
0.0
 30
0.0
 11
610.0
 21
0.0
 31
0.0
  0
LINE
  5
1BE
330
176
100
AcDbEntity
  8
AM_0
 62
     0
100
AcDbLine
 10
610.0
 20
0.0
 30
0.0
 11
870.0162659515
 21
0.0
 31
0.0
  0
LINE
  5
1BF
330
176
100
AcDbEntity
  8
AM_0
 62
     0
100
AcDbLine
 10
870.0162659515
 20
0.0
 30
0.0
 11
967.5162659515
 21
0.0
 31
0.0
  0
LINE
  5
1C0
330
176
100
AcDbEntity
  8
AM_0
 62
     0
100
AcDbLine
 10
967.5162659515
 20
0.0
 30
0.0
 11
1032.5162659515
 21
0.0
 31
0.0
  0
LINE
  5
1C1
330
176
100
AcDbEntity
  8
AM_0
 62
     0
100
AcDbLine
 10
1032.5162659515
 20
0.0
 30
0.0
 11
1117.5162659515
 21
0.0
 31
0.0
  0
MTEXT
  5
1C2
330
176
100
AcDbEntity
  8
AM_0
 62
     0
100
AcDbMText
 10
20.6450614147
 20
-11.1379221821
 30
0.0
 40
10.5833333333
 41
0.0
 46
0.0
 71
     1
 72
     1
  1
ITEM
  7
SLDTEXTSTYLE0
 73
     1
 44
1.0
  0
MTEXT
  5
1C3
330
176
100
AcDbEntity
  8
AM_0
 62
     0
100
AcDbMText
 10
80.4969128501
 20
-11.1379221821
 30
0.0
 40
10.5833333333
 41
0.0
 46
0.0
 71
     1
 72
     1
  1
QTY
  7
SLDTEXTSTYLE0
 73
     1
 44
1.0
  0
MTEXT
  5
1C4
330
176
100
AcDbEntity
  8
AM_0
 62
     0
100
AcDbMText
 10
133.1450614147
 20
-11.1379221821
 30
0.0
 40
10.5833333333
 41
0.0
 46
0.0
 71
     1
 72
     1
  1
DRW
  7
SLDTEXTSTYLE0
 73
     1
 44
1.0
  0
MTEXT
  5
1C5
330
176
100
AcDbEntity
  8
AM_0
 62
     0
100
AcDbMText
 10
204.6172836795
 20
-11.1379221821
 30
0.0
 40
10.5833333333
 41
0.0
 46
0.0
 71
     1
 72
     1
  1
CODE
  7
SLDTEXTSTYLE0
 73
     1
 44
1.0
  0
MTEXT
  5
1C6
330
176
100
AcDbEntity
  8
AM_0
 62
     0
100
AcDbMText
 10
329.287032187
 20
-11.1379221821
 30
0.0
 40
10.5833333333
 41
0.0
 46
0.0
 71
     1
 72
     1
  1
DESCRIPTION
  7
SLDTEXTSTYLE0
 73
     1
 44
1.0
  0
MTEXT
  5
1C7
330
176
100
AcDbEntity
  8
AM_0
 62
     0
100
AcDbMText
 10
531.5771600697
 20
-11.1379221821
 30
0.0
 40
10.5833333333
 41
0.0
 46
0.0
 71
     1
 72
     1
  1
TYPE
  7
SLDTEXTSTYLE0
 73
     1
 44
1.0
  0
MTEXT
  5
1C8
330
176
100
AcDbEntity
  8
AM_0
 62
     0
100
AcDbMText
 10
673.7642991135
 20
-11.1379221821
 30
0.0
 40
10.5833333333
 41
0.0
 46
0.0
 71
     1
 72
     1
  1
SIZE / DIMENSIONS
  7
SLDTEXTSTYLE0
 73
     1
 44
1.0
  0
MTEXT
  5
1C9
330
176
100
AcDbEntity
  8
AM_0
 62
     0
100
AcDbMText
 10
883.4884909284
 20
-11.1379221821
 30
0.0
 40
10.5833333333
 41
0.0
 46
0.0
 71
     1
 72
     1
  1
MATERIAL
  7
SLDTEXTSTYLE0
 73
     1
 44
1.0
  0
MTEXT
  5
1CA
330
176
100
AcDbEntity
  8
AM_0
 62
     0
100
AcDbMText
 10
978.065647122
 20
-11.1379221821
 30
0.0
 40
10.5833333333
 41
0.0
 46
0.0
 71
     1
 72
     1
  1
Weight
  7
SLDTEXTSTYLE0
 73
     1
 44
1.0
  0
MTEXT
  5
1CB
330
176
100
AcDbEntity
  8
AM_0
 62
     0
100
AcDbMText
 10
1040.1304659736
 20
-11.1379221821
 30
0.0
 40
10.5833333333
 41
0.0
 46
0.0
 71
     1
 72
     1
  1
DELIVERY
  7
SLDTEXTSTYLE0
 73
     1
 44
1.0
  0
MTEXT
  5
1CC
330
176
100
AcDbEntity
  8
AM_0
 62
     0
100
AcDbMText
 10
33.5802469286
 20
72.7051262873
 30
0.0
 40
10.5833333333
 41
0.0
 46
0.0
 71
     1
 72
     1
  1
2
  7
SLDTEXTSTYLE0
 73
     1
 44
1.0
  0
MTEXT
  5
1CD
330
176
100
AcDbEntity
  8
AM_0
 62
     0
100
AcDbMText
 10
91.0802469286
 20
72.7051262873
 30
0.0
 40
10.5833333333
 41
0.0
 46
0.0
 71
     1
 72
     1
  1
1
  7
SLDTEXTSTYLE0
 73
     1
 44
1.0
  0
MTEXT
  5
1CE
330
176
100
AcDbEntity
  8
AM_0
 62
     0
100
AcDbMText
 10
134.3209877145
 20
72.7051262873
 30
0.0
 40
10.5833333333
 41
0.0
 46
0.0
 71
     1
 72
     1
  1
4205
  7
SLDTEXTSTYLE0
 73
     1
 44
1.0
  0
MTEXT
  5
1CF
330
176
100
AcDbEntity
  8
AM_0
 62
     0
100
AcDbMText
 10
293.2253000885
 20
72.7051262873
 30
0.0
 40
10.5833333333
 41
0.0
 46
0.0
 71
     1
 72
     1
  1
HOLD-DOWN ASSEMBLY
  7
SLDTEXTSTYLE0
 73
     1
 44
1.0
  0
MTEXT
  5
1D0
330
176
100
AcDbEntity
  8
AM_0
 62
     0
100
AcDbMText
 10
526.8734583631
 20
72.7051262873
 30
0.0
 40
10.5833333333
 41
0.0
 46
0.0
 71
     1
 72
     1
  1
4205-R
  7
SLDTEXTSTYLE0
 73
     1
 44
1.0
  0
MTEXT
  5
1D1
330
176
100
AcDbEntity
  8
AM_0
 62
     0
100
AcDbMText
 10
652.5976420159
 20
72.7051262873
 30
0.0
 40
10.5833333333
 41
0.0
 46
0.0
 71
     1
 72
     1
  1
TRANSVERSAL COAMING
  7
SLDTEXTSTYLE0
 73
     1
 44
1.0
  0
MTEXT
  5
1D2
330
176
100
AcDbEntity
  8
AM_0
 62
     0
100
AcDbMText
 10
986.2971300562
 20
72.7051262873
 30
0.0
 40
10.5833333333
 41
0.0
 46
0.0
 71
     1
 72
     1
  1
50.5
  7
SLDTEXTSTYLE0
 73
     1
 44
1.0
  0
MTEXT
  5
1D3
330
176
100
AcDbEntity
  8
AM_0
 62
     0
100
AcDbMText
 10
1069.1366361989
 20
72.7051262873
 30
0.0
 40
10.5833333333
 41
0.0
 46
0.0
 71
     1
 72
     1
  1
M
  7
SLDTEXTSTYLE0
 73
     1
 44
1.0
  0
MTEXT
  5
1D4
330
176
100
AcDbEntity
  8
AM_0
 62
     0
100
AcDbMText
 10
33.5802469286
 20
27.7551262873
 30
0.0
 40
10.5833333333
 41
0.0
 46
0.0
 71
     1
 72
     1
  1
1
  7
SLDTEXTSTYLE0
 73
     1
 44
1.0
  0
MTEXT
  5
1D5
330
176
100
AcDbEntity
  8
AM_0
 62
     0
100
AcDbMText
 10
91.0802469286
 20
27.7551262873
 30
0.0
 40
10.5833333333
 41
0.0
 46
0.0
 71
     1
 72
     1
  1
1
  7
SLDTEXTSTYLE0
 73
     1
 44
1.0
  0
MTEXT
  5
1D6
330
176
100
AcDbEntity
  8
AM_0
 62
     0
100
AcDbMText
 10
121.7777781188
 20
27.7551262873
 30
0.0
 40
10.5833333333
 41
0.0
 46
0.0
 71
     1
 72
     1
  1
K101450
  7
SLDTEXTSTYLE0
 73
     1
 44
1.0
  0
MTEXT
  5
1D7
330
176
100
AcDbEntity
  8
AM_0
 62
     0
100
AcDbMText
 10
197.5617282093
 20
27.7551262873
 30
0.0
 40
10.5833333333
 41
0.0
 46
0.0
 71
     1
 72
     1
  1
1097749
  7
SLDTEXTSTYLE0
 73
     1
 44
1.0
  0
MTEXT
  5
1D8
330
176
100
AcDbEntity
  8
AM_0
 62
     0
100
AcDbMText
 10
365.7407404948
 20
27.7551262873
 30
0.0
 40
10.5833333333
 41
0.0
 46
0.0
 71
     1
 72
     1
  1
PIN
  7
SLDTEXTSTYLE0
 73
     1
 44
1.0
  0
MTEXT
  5
1D9
330
176
100
AcDbEntity
  8
AM_0
 62
     0
100
AcDbMText
 10
519.4259255193
 20
27.7551262873
 30
0.0
 40
10.5833333333
 41
0.0
 46
0.0
 71
     1
 72
     1
  1
K101450-
  7
SLDTEXTSTYLE0
 73
     1
 44
1.0
  0
MTEXT
  5
1DA
330
176
100
AcDbEntity
  8
AM_0
 62
     0
100
AcDbMText
 10
990.2168828365
 20
27.7551262873
 30
0.0
 40
10.5833333333
 41
0.0
 46
0.0
 71
     1
 72
     1
  1
8.3
  7
SLDTEXTSTYLE0
 73
     1
 44
1.0
  0
MTEXT
  5
1DB
330
176
100
AcDbEntity
  8
AM_0
 62
     0
100
AcDbMText
 10
1069.1366361989
 20
27.7551262873
 30
0.0
 40
10.5833333333
 41
0.0
 46
0.0
 71
     1
 72
     1
  1
M
  7
SLDTEXTSTYLE0
 73
     1
 44
1.0
  0
ENDBLK
  5
178
330
176
100
AcDbEntity
  8
0
100
AcDbBlockEnd
  0
BLOCK
  5
219
330
218
100
AcDbEntity
  8
0
100
AcDbBlockBegin
  2
_D
 70
     0
 10
0.0
 20
0.0
 30
0.0
  3
_D
  1

  0
SOLID
  5
21B
330
218
100
AcDbEntity
  8
AM_5
100
AcDbTrace
 10
530.467889755
 20
1360.6470964679
 30
0.0
 11
547.967889755
 21
1357.9547887756
 31
0.0
 12
547.967889755
 22
1363.3394041602
 32
0.0
 13
547.967889755
 23
1363.3394041602
 33
0.0
  0
SOLID
  5
21C
330
218
100
AcDbEntity
  8
AM_5
100
AcDbTrace
 10
1003.467889755
 20
1360.6470964679
 30
0.0
 11
985.967889755
 21
1363.3394041602
 31
0.0
 12
985.967889755
 22
1357.9547887756
 32
0.0
 13
985.967889755
 23
1357.9547887756
 33
0.0
  0
LINE
  5
21D
330
218
100
AcDbEntity
  8
AM_5
100
AcDbLine
 10
530.467889755
 20
1178.6470964679
 30
0.0
 11
530.467889755
 21
1365.6470964679
 31
0.0
  0
LINE
  5
21E
330
218
100
AcDbEntity
  8
AM_5
100
AcDbLine
 10
1003.467889755
 20
1124.6470964679
 30
0.0
 11
1003.467889755
 21
1365.6470964679
 31
0.0
  0
LINE
  5
21F
330
218
100
AcDbEntity
  8
AM_5
100
AcDbLine
 10
530.467889755
 20
1360.6470964679
 30
0.0
 11
1003.467889755
 21
1360.6470964679
 31
0.0
  0
MTEXT
  5
220
330
218
100
AcDbEntity
  8
AM_5
100
AcDbMText
 10
755.109604952
 20
1383.205783078
 30
0.0
 40
17.5
 41
0.0
 46
0.0
 71
     1
 72
     1
  1
473
  7
SLDTEXTSTYLE0
 73
     1
 44
1.0
  0
ENDBLK
  5
21A
330
218
100
AcDbEntity
  8
0
100
AcDbBlockEnd
  0
BLOCK
  5
222
330
221
100
AcDbEntity
  8
0
100
AcDbBlockBegin
  2
SW_NOTE_0_1
 70
     0
 10
0.0
 20
0.0
 30
0.0
  3
SW_NOTE_0_1
  1

  0
CIRCLE
  5
224
330
221
100
AcDbEntity
  8
AM_6
 62
     0
100
AcDbCircle
 10
4.5953262548
 20
12.4134563505
 30
0.0
 40
13.23672625515116
  0
MTEXT
  5
225
330
221
100
AcDbEntity
  8
AM_6
 62
     0
100
AcDbMText
 10
4.7880647343
 20
22.0045889523
 30
0.0
 40
17.5
 41
0.0
 46
0.0
 71
     2
 72
     1
  1
1
  7
SLDTEXTSTYLE0
 73
     1
 44
1.0
  0
ENDBLK
  5
223
330
221
100
AcDbEntity
  8
0
100
AcDbBlockEnd
  0
BLOCK
  5
229
330
228
100
AcDbEntity
  8
0
100
AcDbBlockBegin
  2
_Dot
 70
     0
 10
0.0
 20
0.0
 30
0.0
  3
_Dot
  1

  0
LWPOLYLINE
  5
22B
330
228
100
AcDbEntity
  8
0
  6
ByBlock
 62
     0
100
AcDbPolyline
 90
        2
 70
     1
 43
0.5
 10
-0.25
 20
0.0
 42
1.0
 10
0.25
 20
0.0
 42
1.0
  0
LINE
  5
22C
330
228
100
AcDbEntity
  8
0
  6
ByBlock
 62
     0
370
    -2
100
AcDbLine
 10
-0.5
 20
0.0
 30
0.0
 11
-1.0
 21
0.0
 31
0.0
  0
ENDBLK
  5
22A
330
228
100
AcDbEntity
  8
0
100
AcDbBlockEnd
  0
BLOCK
  5
22F
330
22E
100
AcDbEntity
  8
0
100
AcDbBlockBegin
  2
SW_NOTE_0_2
 70
     0
 10
0.0
 20
0.0
 30
0.0
  3
SW_NOTE_0_2
  1

  0
CIRCLE
  5
231
330
22E
100
AcDbEntity
  8
AM_6
 62
     0
100
AcDbCircle
 10
-11.9041542411
 20
-5.3541056501
 30
0.0
 40
13.05279033419116
  0
MTEXT
  5
232
330
22E
100
AcDbEntity
  8
AM_6
 62
     0
100
AcDbMText
 10
-11.8224880043
 20
4.3264880977
 30
0.0
 40
17.5
 41
0.0
 46
0.0
 71
     2
 72
     1
  1
2
  7
SLDTEXTSTYLE0
 73
     1
 44
1.0
  0
ENDBLK
  5
230
330
22E
100
AcDbEntity
  8
0
100
AcDbBlockEnd
  0
BLOCK
  5
262
330
261
100
AcDbEntity
  8
0
100
AcDbBlockBegin
  2
_D_1
 70
     0
 10
0.0
 20
0.0
 30
0.0
  3
_D_1
  1

  0
SOLID
  5
264
330
261
100
AcDbEntity
  8
AM_5
100
AcDbTrace
 10
1479.0234634075
 20
570.6470964679
 30
0.0
 11
1461.5234634075
 21
573.3394041602
 31
0.0
 12
1461.5234634075
 22
567.9547887756
 32
0.0
 13
1461.5234634075
 23
567.9547887756
 33
0.0
  0
SOLID
  5
265
330
261
100
AcDbEntity
  8
AM_5
100
AcDbTrace
 10
1289.8171142011
 20
570.6470964679
 30
0.0
 11
1307.3171142011
 21
567.9547887756
 31
0.0
 12
1307.3171142011
 22
573.3394041602
 32
0.0
 13
1307.3171142011
 23
573.3394041602
 33
0.0
  0
LINE
  5
266
330
261
100
AcDbEntity
  8
AM_5
100
AcDbLine
 10
1479.0234634075
 20
625.6470964679
 30
0.0
 11
1479.0234634075
 21
565.6470964679
 31
0.0
  0
LINE
  5
267
330
261
100
AcDbEntity
  8
AM_5
100
AcDbLine
 10
1289.8171142011
 20
625.6470964679
 30
0.0
 11
1289.8171142011
 21
565.6470964679
 31
0.0
  0
LINE
  5
268
330
261
100
AcDbEntity
  8
AM_5
100
AcDbLine
 10
1479.0234634075
 20
570.6470964679
 30
0.0
 11
1289.8171142011
 21
570.6470964679
 31
0.0
  0
MTEXT
  5
269
330
261
100
AcDbEntity
  8
AM_5
100
AcDbMText
 10
1362.8635013707
 20
593.205783078
 30
0.0
 40
17.5
 41
0.0
 46
0.0
 71
     1
 72
     1
  1
189
  7
SLDTEXTSTYLE0
 73
     1
 44
1.0
  0
ENDBLK
  5
263
330
261
100
AcDbEntity
  8
0
100
AcDbBlockEnd
  0
ENDSEC
  0
SECTION
  2
ENTITIES
  0
HATCH
  5
6B
330
1F
100
AcDbEntity
  8
AM_8
100
AcDbHatch
 10
0.0
 20
0.0
 30
0.0
210
0.0
220
0.0
230
1.0
  2
SOLID
 70
     1
 71
     0
 91
        1
 92
        0
 93
       16
 72
     1
 10
1005.070308795244
 20
120.8206561985002
 11
1009.22887969698
 21
87.67248763039848
 72
     1
 10
1009.22887969698
 20
87.67248763039848
 11
1009.345926953895
 21
87.67248763039848
 72
     1
 10
1009.345926953895
 20
87.67248763039848
 11
1013.328549939012
 21
120.8206561985002
 72
     1
 10
1013.328549939012
 20
120.8206561985002
 11
1026.915748457264
 21
120.8206561985002
 72
     1
 10
1026.915748457264
 20
120.8206561985002
 11
1026.915748457264
 21
79.00435486867707
 72
     1
 10
1026.915748457264
 20
79.00435486867707
 11
1018.833457541801
 21
79.00435486867707
 72
     1
 10
1018.833457541801
 20
79.00435486867707
 11
1018.833457541801
 21
114.7294231097454
 72
     1
 10
1018.833457541801
 20
114.7294231097454
 11
1018.716410284886
 21
114.7294231097454
 72
     1
 10
1018.716410284886
 20
114.7294231097454
 11
1013.445513411204
 21
79.00435486867707
 72
     1
 10
1013.445513411204
 20
79.00435486867707
 11
1004.95334532305
 21
79.00435486867707
 72
     1
 10
1004.95334532305
 20
79.00435486867707
 11
999.6824484493669
 21
114.7294231097454
 72
     1
 10
999.6824484493669
 20
114.7294231097454
 11
999.5654011924512
 21
114.7294231097454
 72
     1
 10
999.5654011924512
 20
114.7294231097454
 11
999.5654011924512
 21
79.00435486867707
 72
     1
 10
999.5654011924512
 20
79.00435486867707
 11
991.4831079653061
 21
79.00435486867707
 72
     1
 10
991.4831079653061
 20
79.00435486867707
 11
991.4831079653061
 21
120.8206561985002
 72
     1
 10
991.4831079653061
 20
120.8206561985002
 11
1005.070308795244
 21
120.8206561985002
 97
        0
 75
     0
 76
     1
 98
        1
 10
0.0
 20
0.0
  0
HATCH
  5
6C
330
1F
100
AcDbEntity
  8
AM_8
100
AcDbHatch
 10
0.0
 20
0.0
 30
0.0
210
0.0
220
0.0
230
1.0
  2
SOLID
 70
     1
 71
     0
 91
        2
 92
        0
 93
       10
 72
     4
 94
        3
 73
     1
 74
     0
 95
        8
 96
        4
 40
9.0
 40
9.0
 40
9.0
 40
9.0
 40
10.0
 40
10.0
 40
10.0
 40
10.0
 10
1053.024815285532
 20
111.8342223970359
 42
1.0
 10
1053.024815285532
 20
119.7156319341823
 42
1.0
 10
1049.4705102734
 20
121.6420566595513
 42
1.0
 10
1041.974017486747
 20
121.6420566595513
 42
1.0
 72
     4
 94
        3
 73
     1
 74
     0
 95
        8
 96
        4
 40
0.0
 40
0.0
 40
0.0
 40
0.0
 40
1.0
 40
1.0
 40
1.0
 40
1.0
 10
1041.974017486747
 20
121.6420566595513
 42
1.0
 10
1034.446586127748
 20
121.6420566595513
 42
1.0
 10
1030.954413950989
 20
119.7156319341823
 42
1.0
 10
1030.954413950989
 20
111.8342223970359
 42
1.0
 72
     1
 10
1030.954413950989
 20
111.8342223970359
 11
1030.954413950989
 21
108.9438949441453
 72
     1
 10
1030.954413950989
 20
108.9438949441453
 11
1030.954413950989
 21
79.01090290654392
 72
     1
 10
1030.954413950989
 20
79.01090290654392
 11
1039.504761446579
 21
79.01090290654392
 72
     1
 10
1039.504761446579
 20
79.01090290654392
 11
1039.504761446579
 21
96.85361225266924
 72
     1
 10
1039.504761446579
 20
96.85361225266924
 11
1044.413920236788
 21
96.85361225266924
 72
     1
 10
1044.413920236788
 20
96.85361225266924
 11
1044.413920236788
 21
79.01090290654392
 72
     1
 10
1044.413920236788
 20
79.01090290654392
 11
1053.024815285532
 21
79.01090290654392
 72
     1
 10
1053.024815285532
 20
79.01090290654392
 11
1053.024815285532
 21
111.8342223970359
 97
        0
 92
        0
 93
        5
 72
     4
 94
        3
 73
     1
 74
     0
 95
        8
 96
        4
 40
2.0
 40
2.0
 40
2.0
 40
2.0
 40
3.0
 40
3.0
 40
3.0
 40
3.0
 10
1039.504761446579
 20
110.5692694622394
 42
1.0
 10
1039.504761446579
 20
113.4895127247539
 42
1.0
 10
1040.200137821392
 20
114.0592938372821
 42
1.0
 10
1041.974017486747
 20
114.0592938372821
 42
1.0
 72
     4
 94
        3
 73
     1
 74
     0
 95
        8
 96
        4
 40
3.0
 40
3.0
 40
3.0
 40
3.0
 40
4.0
 40
4.0
 40
4.0
 40
4.0
 10
1041.974017486747
 20
114.0592938372821
 42
1.0
 10
1043.720129144195
 20
114.0592938372821
 42
1.0
 10
1044.413920236788
 20
113.4895127247539
 42
1.0
 10
1044.413920236788
 20
110.5692694622394
 42
1.0
 72
     1
 10
1044.413920236788
 20
110.5692694622394
 11
1044.413920236788
 21
104.5837040450684
 72
     1
 10
1044.413920236788
 20
104.5837040450684
 11
1039.504761446579
 21
104.5837040450684
 72
     1
 10
1039.504761446579
 20
104.5837040450684
 11
1039.504761446579
 21
110.5692694622394
 97
        0
 75
     0
 76
     1
 98
        1
 10
0.0
 20
0.0
  0
HATCH
  5
6D
330
1F
100
AcDbEntity
  8
AM_8
100
AcDbHatch
 10
0.0
 20
0.0
 30
0.0
210
0.0
220
0.0
230
1.0
  2
SOLID
 70
     1
 71
     0
 91
        1
 92
        0
 93
       16
 72
     4
 94
        3
 73
     1
 74
     0
 95
        8
 96
        4
 40
14.0
 40
14.0
 40
14.0
 40
14.0
 40
15.0
 40
15.0
 40
15.0
 40
15.0
 10
1067.616773564729
 20
78.18451298346453
 42
1.0
 10
1059.827395066275
 20
78.18451298346453
 42
1.0
 10
1056.840550436876
 20
81.11288118759347
 42
1.0
 10
1056.840550436876
 20
88.02346183169992
 42
1.0
 72
     1
 10
1056.840550436876
 20
88.02346183169992
 11
1056.840550436876
 21
111.8014822076996
 72
     4
 94
        3
 73
     1
 74
     0
 95
        8
 96
        4
 40
0.0
 40
0.0
 40
0.0
 40
0.0
 40
1.0
 40
1.0
 40
1.0
 40
1.0
 10
1056.840550436876
 20
111.8014822076996
 42
1.0
 10
1056.840550436876
 20
118.7121298795829
 42
1.0
 10
1059.827395066275
 20
121.6404897052398
 42
1.0
 10
1067.616773564729
 20
121.6404897052398
 42
1.0
 72
     4
 94
        3
 73
     1
 74
     0
 95
        8
 96
        4
 40
1.0
 40
1.0
 40
1.0
 40
1.0
 40
2.0
 40
2.0
 40
2.0
 40
2.0
 10
1067.616773564729
 20
121.6404897052398
 42
1.0
 10
1075.406155206283
 20
121.6404897052398
 42
1.0
 10
1078.392996692583
 20
118.7121298795829
 42
1.0
 10
1078.392996692583
 20
111.8014822076996
 42
1.0
 72
     1
 10
1078.392996692583
 20
111.8014822076996
 11
1078.392996692583
 21
105.8862808202893
 72
     1
 10
1078.392996692583
 20
105.8862808202893
 11
1069.842263299619
 21
105.8862808202893
 72
     1
 10
1069.842263299619
 20
105.8862808202893
 11
1069.842263299619
 21
112.1525401937231
 72
     4
 94
        3
 73
     1
 74
     0
 95
        8
 96
        4
 40
5.0
 40
5.0
 40
5.0
 40
5.0
 40
6.0
 40
6.0
 40
6.0
 40
6.0
 10
1069.842263299619
 20
112.1525401937231
 42
1.0
 10
1069.842263299619
 20
113.3826674850822
 42
1.0
 10
1068.788000166793
 20
114.0266368599208
 42
1.0
 10
1067.616773564729
 20
114.0266368599208
 42
1.0
 72
     4
 94
        3
 73
     1
 74
     0
 95
        8
 96
        4
 40
6.0
 40
6.0
 40
6.0
 40
6.0
 40
7.0
 40
7.0
 40
7.0
 40
7.0
 10
1067.616773564729
 20
114.0266368599208
 42
1.0
 10
1066.094070061909
 20
114.0266368599208
 42
1.0
 10
1065.391200045119
 20
113.3826674850822
 42
1.0
 10
1065.391200045119
 20
111.0986121731526
 42
1.0
 72
     1
 10
1065.391200045119
 20
111.0986121731526
 11
1065.391200045119
 21
88.72633186624543
 72
     4
 94
        3
 73
     1
 74
     0
 95
        8
 96
        4
 40
8.0
 40
8.0
 40
8.0
 40
8.0
 40
9.0
 40
9.0
 40
9.0
 40
9.0
 10
1065.391200045119
 20
88.72633186624543
 42
1.0
 10
1065.391200045119
 20
86.44185763070553
 42
1.0
 10
1066.094070061909
 20
85.7979720405901
 42
1.0
 10
1067.616773564729
 20
85.7979720405901
 42
1.0
 72
     4
 94
        3
 73
     1
 74
     0
 95
        8
 96
        4
 40
9.0
 40
9.0
 40
9.0
 40
9.0
 40
10.0
 40
10.0
 40
10.0
 40
10.0
 10
1067.616773564729
 20
85.7979720405901
 42
1.0
 10
1068.788000166793
 20
85.7979720405901
 42
1.0
 10
1069.842263299619
 20
86.44185763070553
 42
1.0
 10
1069.842263299619
 20
87.67248763039848
 42
1.0
 72
     1
 10
1069.842263299619
 20
87.67248763039848
 11
1069.842263299619
 21
95.4028850242997
 72
     1
 10
1069.842263299619
 20
95.4028850242997
 11
1078.392996692583
 21
95.4028850242997
 72
     1
 10
1078.392996692583
 20
95.4028850242997
 11
1078.392996692583
 21
88.02346183169992
 72
     4
 94
        3
 73
     1
 74
     0
 95
        8
 96
        4
 40
13.0
 40
13.0
 40
13.0
 40
13.0
 40
14.0
 40
14.0
 40
14.0
 40
14.0
 10
1078.392996692583
 20
88.02346183169992
 42
1.0
 10
1078.392996692583
 20
81.11288118759347
 42
1.0
 10
1075.406155206283
 20
78.18451298346453
 42
1.0
 10
1067.616773564729
 20
78.18451298346453
 42
1.0
 97
        0
 75
     0
 76
     1
 98
        1
 10
0.0
 20
0.0
  0
HATCH
  5
6E
330
1F
100
AcDbEntity
  8
AM_8
100
AcDbHatch
 10
0.0
 20
0.0
 30
0.0
210
0.0
220
0.0
230
1.0
  2
SOLID
 70
     1
 71
     0
 91
        1
 92
        0
 93
       20
 72
     4
 94
        3
 73
     1
 74
     0
 95
        8
 96
        4
 40
14.0
 40
14.0
 40
14.0
 40
14.0
 40
15.0
 40
15.0
 40
15.0
 40
15.0
 10
1092.799611741705
 20
85.79797204059012
 42
1.0
 10
1094.556325967721
 20
85.79797204059012
 42
1.0
 10
1095.259195984511
 20
86.44185763070558
 42
1.0
 10
1095.259195984511
 20
88.08236249140707
 42
1.0
 72
     1
 10
1095.259195984511
 20
88.08236249140707
 11
1095.259195984511
 21
97.04263582250034
 72
     1
 10
1095.259195984511
 20
97.04263582250034
 11
1092.741130007087
 21
97.04263582250034
 72
     1
 10
1092.741130007087
 20
97.04263582250034
 11
1092.741130007087
 21
104.6560697442084
 72
     1
 10
1092.741130007087
 20
104.6560697442084
 11
1103.810264516356
 21
104.6560697442084
 72
     1
 10
1103.810264516356
 20
104.6560697442084
 11
1103.810264516356
 21
79.00435486867707
 72
     1
 10
1103.810264516356
 20
79.00435486867707
 11
1098.246456394413
 21
79.00435486867707
 72
     1
 10
1098.246456394413
 20
79.00435486867707
 11
1097.015910210528
 21
82.04973681583131
 72
     4
 94
        3
 73
     1
 74
     0
 95
        8
 96
        4
 40
2.0
 40
2.0
 40
2.0
 40
2.0
 40
3.0
 40
3.0
 40
3.0
 40
3.0
 10
1097.015910210528
 20
82.04973681583131
 42
1.0
 10
1095.259195984511
 20
79.47318903869811
 42
1.0
 10
1093.794974216312
 20
78.18451298346453
 42
1.0
 10
1090.105262713221
 20
78.18451298346453
 42
1.0
 72
     4
 94
        3
 73
     1
 74
     0
 95
        8
 96
        4
 40
3.0
 40
3.0
 40
3.0
 40
3.0
 40
4.0
 40
4.0
 40
4.0
 40
4.0
 10
1090.105262713221
 20
78.18451298346453
 42
1.0
 10
1085.127277354111
 20
78.18451298346453
 42
1.0
 10
1081.788958967056
 20
81.11288118759347
 42
1.0
 10
1081.788958967056
 20
86.44185763070553
 42
1.0
 72
     1
 10
1081.788958967056
 20
86.44185763070553
 11
1081.788958967056
 21
111.8014822076996
 72
     4
 94
        3
 73
     1
 74
     0
 95
        8
 96
        4
 40
5.0
 40
5.0
 40
5.0
 40
5.0
 40
6.0
 40
6.0
 40
6.0
 40
6.0
 10
1081.788958967056
 20
111.8014822076996
 42
1.0
 10
1081.788958967056
 20
118.7121298795829
 42
1.0
 10
1084.775884238075
 20
121.6404897052398
 42
1.0
 10
1092.56526587963
 20
121.6404897052398
 42
1.0
 72
     4
 94
        3
 73
     1
 74
     0
 95
        8
 96
        4
 40
6.0
 40
6.0
 40
6.0
 40
6.0
 40
7.0
 40
7.0
 40
7.0
 40
7.0
 10
1092.56526587963
 20
121.6404897052398
 42
1.0
 10
1100.823004106457
 20
121.6404897052398
 42
1.0
 10
1103.810264516356
 20
118.7121298795829
 42
1.0
 10
1103.810264516356
 20
111.8014822076996
 42
1.0
 72
     1
 10
1103.810264516356
 20
111.8014822076996
 11
1103.810264516356
 21
109.2245155069549
 72
     1
 10
1103.810264516356
 20
109.2245155069549
 11
1095.259195984511
 21
109.2245155069549
 72
     1
 10
1095.259195984511
 20
109.2245155069549
 11
1095.259195984511
 21
111.742581547992
 72
     4
 94
        3
 73
     1
 74
     0
 95
        8
 96
        4
 40
10.0
 40
10.0
 40
10.0
 40
10.0
 40
11.0
 40
11.0
 40
11.0
 40
11.0
 10
1095.259195984511
 20
111.742581547992
 42
1.0
 10
1095.259195984511
 20
113.3826674850822
 42
1.0
 10
1094.556325967721
 20
114.0266368599208
 42
1.0
 10
1092.799611741705
 20
114.0266368599208
 42
1.0
 72
     4
 94
        3
 73
     1
 74
     0
 95
        8
 96
        4
 40
11.0
 40
11.0
 40
11.0
 40
11.0
 40
12.0
 40
12.0
 40
12.0
 40
12.0
 10
1092.799611741705
 20
114.0266368599208
 42
1.0
 10
1091.04256237681
 20
114.0266368599208
 42
1.0
 10
1090.339692360019
 20
113.3826674850822
 42
1.0
 10
1090.339692360019
 20
111.742581547992
 42
1.0
 72
     1
 10
1090.339692360019
 20
111.742581547992
 11
1090.339692360019
 21
88.08236249140705
 72
     4
 94
        3
 73
     1
 74
     0
 95
        8
 96
        4
 40
13.0
 40
13.0
 40
13.0
 40
13.0
 40
14.0
 40
14.0
 40
14.0
 40
14.0
 10
1090.339692360019
 20
88.08236249140705
 42
1.0
 10
1090.339692360019
 20
86.44185763070557
 42
1.0
 10
1091.04256237681
 20
85.79797204059012
 42
1.0
 10
1092.799611741705
 20
85.79797204059012
 42
1.0
 97
        0
 75
     0
 76
     1
 98
        1
 10
0.0
 20
0.0
  0
HATCH
  5
6F
330
1F
100
AcDbEntity
  8
AM_8
100
AcDbHatch
 10
0.0
 20
0.0
 30
0.0
210
0.0
220
0.0
230
1.0
  2
SOLID
 70
     1
 71
     0
 91
        2
 92
        0
 93
       16
 72
     4
 94
        3
 73
     1
 74
     0
 95
        8
 96
        4
 40
12.0
 40
12.0
 40
12.0
 40
12.0
 40
13.0
 40
13.0
 40
13.0
 40
13.0
 10
1121.554024966453
 20
94.93410950358331
 42
1.0
 10
1121.554024966453
 20
96.3397657879542
 42
1.0
 10
1120.558243568247
 20
97.04263582250034
 42
1.0
 10
1118.80152934223
 20
97.04263582250034
 42
1.0
 72
     1
 10
1118.80152934223
 20
97.04263582250034
 11
1116.63494026556
 21
97.04263582250034
 72
     1
 10
1116.63494026556
 20
97.04263582250034
 11
1116.63494026556
 21
79.00435486867707
 72
     1
 10
1116.63494026556
 20
79.00435486867707
 11
1108.083787948996
 21
79.00435486867707
 72
     1
 10
1108.083787948996
 20
79.00435486867707
 11
1108.083787948996
 21
120.8206561985002
 72
     1
 10
1108.083787948996
 20
120.8206561985002
 11
1119.035544704251
 21
120.8206561985002
 72
     4
 94
        3
 73
     1
 74
     0
 95
        8
 96
        4
 40
2.0
 40
2.0
 40
2.0
 40
2.0
 40
3.0
 40
3.0
 40
3.0
 40
3.0
 10
1119.035544704251
 20
120.8206561985002
 42
1.0
 10
1126.532010325565
 20
120.8206561985002
 42
1.0
 10
1129.87032871262
 20
118.94647574758
 42
1.0
 10
1129.87032871262
 20
112.2699225895267
 42
1.0
 72
     1
 10
1129.87032871262
 20
112.2699225895267
 11
1129.87032871262
 21
107.2915181810491
 72
     4
 94
        3
 73
     1
 74
     0
 95
        8
 96
        4
 40
4.0
 40
4.0
 40
4.0
 40
4.0
 40
5.0
 40
5.0
 40
5.0
 40
5.0
 10
1129.87032871262
 20
107.2915181810491
 42
1.0
 10
1129.87032871262
 20
104.7734521400119
 42
1.0
 10
1128.816400718674
 20
101.6106626616356
 42
1.0
 10
1124.951244011727
 20
101.0252588076155
 42
1.0
 72
     1
 10
1124.951244011727
 20
101.0252588076155
 11
1124.951244011727
 21
100.907876411812
 72
     4
 94
        3
 73
     1
 74
     0
 95
        8
 96
        4
 40
6.0
 40
6.0
 40
6.0
 40
6.0
 40
7.0
 40
7.0
 40
7.0
 40
7.0
 10
1124.951244011727
 20
100.907876411812
 42
1.0
 10
1128.464588679039
 20
100.3223887730691
 42
1.0
 10
1130.104344354262
 20
97.9798517250437
 42
1.0
 10
1130.104344354262
 20
92.65005419165442
 42
1.0
 72
     1
 10
1130.104344354262
 20
92.65005419165442
 11
1130.104344354262
 21
83.57242360017312
 72
     4
 94
        3
 73
     1
 74
     0
 95
        8
 96
        4
 40
8.0
 40
8.0
 40
8.0
 40
8.0
 40
9.0
 40
9.0
 40
9.0
 40
9.0
 10
1130.104344354262
 20
83.57242360017312
 42
1.0
 10
1130.104344354262
 20
80.35112725028496
 42
1.0
 10
1130.104344354262
 20
79.6482907296275
 42
1.0
 10
1130.690162198649
 20
79.00435486867707
 42
1.0
 72
     1
 10
1130.690162198649
 20
79.00435486867707
 11
1122.080947071066
 21
79.00435486867707
 72
     4
 94
        3
 73
     1
 74
     0
 95
        8
 96
        4
 40
10.0
 40
10.0
 40
10.0
 40
10.0
 40
11.0
 40
11.0
 40
11.0
 40
11.0
 10
1122.080947071066
 20
79.00435486867707
 42
1.0
 10
1121.729135031429
 20
79.6482907296275
 42
1.0
 10
1121.554024966453
 20
80.2341302642021
 42
1.0
 10
1121.554024966453
 20
80.70296443422481
 42
1.0
 72
     1
 10
1121.554024966453
 20
80.70296443422481
 11
1121.554024966453
 21
94.93410950358331
 97
        0
 92
        0
 93
        5
 72
     4
 94
        3
 73
     1
 74
     0
 95
        8
 96
        4
 40
1.0
 40
1.0
 40
1.0
 40
1.0
 40
2.0
 40
2.0
 40
2.0
 40
2.0
 10
1118.80152934223
 20
104.6560697442084
 42
1.0
 10
1120.616306379265
 20
104.6560697442084
 42
1.0
 10
1121.320014243256
 20
105.2418925218396
 42
1.0
 10
1121.320014243256
 20
108.9316041181396
 42
1.0
 72
     4
 94
        3
 73
     1
 74
     0
 95
        8
 96
        4
 40
2.0
 40
2.0
 40
2.0
 40
2.0
 40
3.0
 40
3.0
 40
3.0
 40
3.0
 10
1121.320014243256
 20
108.9316041181396
 42
1.0
 10
1121.320014243256
 20
112.3868860617199
 42
1.0
 10
1120.851159634353
 20
113.2068033531811
 42
1.0
 10
1118.80152934223
 20
113.2068033531811
 42
1.0
 72
     1
 10
1118.80152934223
 20
113.2068033531811
 11
1116.63494026556
 21
113.2068033531811
 72
     1
 10
1116.63494026556
 20
113.2068033531811
 11
1116.63494026556
 21
104.6560697442084
 72
     1
 10
1116.63494026556
 20
104.6560697442084
 11
1118.80152934223
 21
104.6560697442084
 97
        0
 75
     0
 76
     1
 98
        1
 10
0.0
 20
0.0
  0
HATCH
  5
70
330
1F
100
AcDbEntity
  8
AM_8
100
AcDbHatch
 10
0.0
 20
0.0
 30
0.0
210
0.0
220
0.0
230
1.0
  2
SOLID
 70
     1
 71
     0
 91
        1
 92
        0
 93
       12
 72
     1
 10
1133.792794168104
 20
79.00435486867707
 11
1133.792794168104
 21
120.8206561985002
 72
     1
 10
1133.792794168104
 20
120.8206561985002
 11
1151.362204071169
 21
120.8206561985002
 72
     1
 10
1151.362204071169
 20
120.8206561985002
 11
1151.362204071169
 21
113.2068033531811
 72
     1
 10
1151.362204071169
 20
113.2068033531811
 11
1142.343108637468
 21
113.2068033531811
 72
     1
 10
1142.343108637468
 20
113.2068033531811
 11
1142.343108637468
 21
104.6560697442084
 72
     1
 10
1142.343108637468
 20
104.6560697442084
 11
1150.952323765051
 21
104.6560697442084
 72
     1
 10
1150.952323765051
 20
104.6560697442084
 11
1150.952323765051
 21
97.04263582250034
 72
     1
 10
1150.952323765051
 20
97.04263582250034
 11
1142.343108637468
 21
97.04263582250034
 72
     1
 10
1142.343108637468
 20
97.04263582250034
 11
1142.343108637468
 21
86.61780554732903
 72
     1
 10
1142.343108637468
 20
86.61780554732903
 11
1151.362204071169
 21
86.61780554732903
 72
     1
 10
1151.362204071169
 20
86.61780554732903
 11
1151.362204071169
 21
79.00435486867707
 72
     1
 10
1151.362204071169
 20
79.00435486867707
 11
1133.792794168104
 21
79.00435486867707
 97
        0
 75
     0
 76
     1
 98
        1
 10
0.0
 20
0.0
  0
HATCH
  5
71
330
1F
100
AcDbEntity
  8
AM_8
100
AcDbHatch
 10
0.0
 20
0.0
 30
0.0
210
0.0
220
0.0
230
1.0
  2
SOLID
 70
     1
 71
     0
 91
        1
 92
        0
 93
       20
 72
     4
 94
        3
 73
     1
 74
     0
 95
        8
 96
        4
 40
14.0
 40
14.0
 40
14.0
 40
14.0
 40
15.0
 40
15.0
 40
15.0
 40
15.0
 10
1165.59336846097
 20
85.7979720405901
 42
1.0
 10
1167.350842608838
 20
85.7979720405901
 42
1.0
 10
1168.053706766259
 20
86.44185763070553
 42
1.0
 10
1168.053706766259
 20
88.08236249140701
 42
1.0
 72
     1
 10
1168.053706766259
 20
88.08236249140701
 11
1168.053706766259
 21
97.04263582250034
 72
     1
 10
1168.053706766259
 20
97.04263582250034
 11
1165.535227678739
 21
97.04263582250034
 72
     1
 10
1165.535227678739
 20
97.04263582250034
 11
1165.535227678739
 21
104.6560697442084
 72
     1
 10
1165.535227678739
 20
104.6560697442084
 11
1176.604027328748
 21
104.6560697442084
 72
     1
 10
1176.604027328748
 20
104.6560697442084
 11
1176.604027328748
 21
79.00435486867707
 72
     1
 10
1176.604027328748
 20
79.00435486867707
 11
1171.040213113678
 21
79.00435486867707
 72
     1
 10
1171.040213113678
 20
79.00435486867707
 11
1169.810420992274
 21
82.04973681583131
 72
     4
 94
        3
 73
     1
 74
     0
 95
        8
 96
        4
 40
2.0
 40
2.0
 40
2.0
 40
2.0
 40
3.0
 40
3.0
 40
3.0
 40
3.0
 10
1169.810420992274
 20
82.04973681583131
 42
1.0
 10
1168.053706766259
 20
79.47318903869811
 42
1.0
 10
1166.589149859177
 20
78.18451298346453
 42
1.0
 10
1162.89977349497
 20
78.18451298346453
 42
1.0
 72
     4
 94
        3
 73
     1
 74
     0
 95
        8
 96
        4
 40
3.0
 40
3.0
 40
3.0
 40
3.0
 40
4.0
 40
4.0
 40
4.0
 40
4.0
 10
1162.89977349497
 20
78.18451298346453
 42
1.0
 10
1157.921788135856
 20
78.18451298346453
 42
1.0
 10
1154.583553533521
 20
81.11288118759347
 42
1.0
 10
1154.583553533521
 20
86.44185763070553
 42
1.0
 72
     1
 10
1154.583553533521
 20
86.44185763070553
 11
1154.583553533521
 21
111.8014822076996
 72
     4
 94
        3
 73
     1
 74
     0
 95
        8
 96
        4
 40
5.0
 40
5.0
 40
5.0
 40
5.0
 40
6.0
 40
6.0
 40
6.0
 40
6.0
 10
1154.583553533521
 20
111.8014822076996
 42
1.0
 10
1154.583553533521
 20
118.7121298795829
 42
1.0
 10
1157.56997609622
 20
121.6404897052398
 42
1.0
 10
1165.359357737775
 20
121.6404897052398
 42
1.0
 72
     4
 94
        3
 73
     1
 74
     0
 95
        8
 96
        4
 40
6.0
 40
6.0
 40
6.0
 40
6.0
 40
7.0
 40
7.0
 40
7.0
 40
7.0
 10
1165.359357737775
 20
121.6404897052398
 42
1.0
 10
1173.617514888203
 20
121.6404897052398
 42
1.0
 10
1176.604027328748
 20
118.7121298795829
 42
1.0
 10
1176.604027328748
 20
111.8014822076996
 42
1.0
 72
     1
 10
1176.604027328748
 20
111.8014822076996
 11
1176.604027328748
 21
109.2245155069549
 72
     1
 10
1176.604027328748
 20
109.2245155069549
 11
1168.053706766259
 21
109.2245155069549
 72
     1
 10
1168.053706766259
 20
109.2245155069549
 11
1168.053706766259
 21
111.742581547992
 72
     4
 94
        3
 73
     1
 74
     0
 95
        8
 96
        4
 40
10.0
 40
10.0
 40
10.0
 40
10.0
 40
11.0
 40
11.0
 40
11.0
 40
11.0
 10
1168.053706766259
 20
111.742581547992
 42
1.0
 10
1168.053706766259
 20
113.3826674850822
 42
1.0
 10
1167.350842608838
 20
114.0266368599208
 42
1.0
 10
1165.59336846097
 20
114.0266368599208
 42
1.0
 72
     4
 94
        3
 73
     1
 74
     0
 95
        8
 96
        4
 40
11.0
 40
11.0
 40
11.0
 40
11.0
 40
12.0
 40
12.0
 40
12.0
 40
12.0
 10
1165.59336846097
 20
114.0266368599208
 42
1.0
 10
1163.836654234955
 20
114.0266368599208
 42
1.0
 10
1163.133784218164
 20
113.3826674850822
 42
1.0
 10
1163.133784218164
 20
111.742581547992
 42
1.0
 72
     1
 10
1163.133784218164
 20
111.742581547992
 11
1163.133784218164
 21
88.08236249140701
 72
     4
 94
        3
 73
     1
 74
     0
 95
        8
 96
        4
 40
13.0
 40
13.0
 40
13.0
 40
13.0
 40
14.0
 40
14.0
 40
14.0
 40
14.0
 10
1163.133784218164
 20
88.08236249140701
 42
1.0
 10
1163.133784218164
 20
86.44185763070553
 42
1.0
 10
1163.836654234955
 20
85.7979720405901
 42
1.0
 10
1165.59336846097
 20
85.7979720405901
 42
1.0
 97
        0
 75
     0
 76
     1
 98
        1
 10
0.0
 20
0.0
  0
HATCH
  5
72
330
1F
100
AcDbEntity
  8
AM_8
100
AcDbHatch
 10
0.0
 20
0.0
 30
0.0
210
0.0
220
0.0
230
1.0
  2
SOLID
 70
     1
 71
     0
 91
        2
 92
        0
 93
        6
 72
     4
 94
        3
 73
     1
 74
     0
 95
        8
 96
        4
 40
4.0
 40
4.0
 40
4.0
 40
4.0
 40
5.0
 40
5.0
 40
5.0
 40
5.0
 10
1191.30229089536
 20
78.18451298346453
 42
1.0
 10
1183.805904419941
 20
78.18451298346453
 42
1.0
 10
1180.29247596791
 20
80.17603393782773
 42
1.0
 10
1180.29247596791
 20
88.02346183169992
 42
1.0
 72
     1
 10
1180.29247596791
 20
88.02346183169992
 11
1180.29247596791
 21
111.8014822076996
 72
     4
 94
        3
 73
     1
 74
     0
 95
        8
 96
        4
 40
0.0
 40
0.0
 40
0.0
 40
0.0
 40
1.0
 40
1.0
 40
1.0
 40
1.0
 10
1180.29247596791
 20
111.8014822076996
 42
1.0
 10
1180.29247596791
 20
119.6489268585152
 42
1.0
 10
1183.805904419941
 20
121.6404897052398
 42
1.0
 10
1191.30229089536
 20
121.6404897052398
 42
1.0
 72
     4
 94
        3
 73
     1
 74
     0
 95
        8
 96
        4
 40
1.0
 40
1.0
 40
1.0
 40
1.0
 40
2.0
 40
2.0
 40
2.0
 40
2.0
 10
1191.30229089536
 20
121.6404897052398
 42
1.0
 10
1198.798761155497
 20
121.6404897052398
 42
1.0
 10
1202.312943670011
 20
119.6489268585152
 42
1.0
 10
1202.312943670011
 20
111.8014822076996
 42
1.0
 72
     1
 10
1202.312943670011
 20
111.8014822076996
 11
1202.312943670011
 21
88.02346183169992
 72
     4
 94
        3
 73
     1
 74
     0
 95
        8
 96
        4
 40
3.0
 40
3.0
 40
3.0
 40
3.0
 40
4.0
 40
4.0
 40
4.0
 40
4.0
 10
1202.312943670011
 20
88.02346183169992
 42
1.0
 10
1202.312943670011
 20
80.17603393782773
 42
1.0
 10
1198.798761155497
 20
78.18451298346453
 42
1.0
 10
1191.30229089536
 20
78.18451298346453
 42
1.0
 97
        0
 92
        0
 93
        6
 72
     4
 94
        3
 73
     1
 74
     0
 95
        8
 96
        4
 40
3.0
 40
3.0
 40
3.0
 40
3.0
 40
4.0
 40
4.0
 40
4.0
 40
4.0
 10
1193.762712985367
 20
111.742581547992
 42
1.0
 10
1193.762712985367
 20
113.3826674850822
 42
1.0
 10
1193.059842968575
 20
114.0266368599208
 42
1.0
 10
1191.30229089536
 20
114.0266368599208
 42
1.0
 72
     4
 94
        3
 73
     1
 74
     0
 95
        8
 96
        4
 40
4.0
 40
4.0
 40
4.0
 40
4.0
 40
5.0
 40
5.0
 40
5.0
 40
5.0
 10
1191.30229089536
 20
114.0266368599208
 42
1.0
 10
1189.545660454064
 20
114.0266368599208
 42
1.0
 10
1188.842790437273
 20
113.3826674850822
 42
1.0
 10
1188.842790437273
 20
111.742581547992
 42
1.0
 72
     1
 10
1188.842790437273
 20
111.742581547992
 11
1188.842790437273
 21
88.08236249140701
 72
     4
 94
        3
 73
     1
 74
     0
 95
        8
 96
        4
 40
0.0
 40
0.0
 40
0.0
 40
0.0
 40
1.0
 40
1.0
 40
1.0
 40
1.0
 10
1188.842790437273
 20
88.08236249140701
 42
1.0
 10
1188.842790437273
 20
86.44185763070553
 42
1.0
 10
1189.545660454064
 20
85.7979720405901
 42
1.0
 10
1191.30229089536
 20
85.7979720405901
 42
1.0
 72
     4
 94
        3
 73
     1
 74
     0
 95
        8
 96
        4
 40
1.0
 40
1.0
 40
1.0
 40
1.0
 40
2.0
 40
2.0
 40
2.0
 40
2.0
 10
1191.30229089536
 20
85.7979720405901
 42
1.0
 10
1193.059842968575
 20
85.7979720405901
 42
1.0
 10
1193.762712985367
 20
86.44185763070553
 42
1.0
 10
1193.762712985367
 20
88.08236249140701
 42
1.0
 72
     1
 10
1193.762712985367
 20
88.08236249140701
 11
1193.762712985367
 21
111.742581547992
 97
        0
 75
     0
 76
     1
 98
        1
 10
0.0
 20
0.0
  0
HATCH
  5
73
330
1F
100
AcDbEntity
  8
AM_8
100
AcDbHatch
 10
0.0
 20
0.0
 30
0.0
210
0.0
220
0.0
230
1.0
  2
SOLID
 70
     1
 71
     0
 91
        2
 92
        0
 93
       16
 72
     4
 94
        3
 73
     1
 74
     0
 95
        8
 96
        4
 40
12.0
 40
12.0
 40
12.0
 40
12.0
 40
13.0
 40
13.0
 40
13.0
 40
13.0
 10
1219.76454680117
 20
94.93410950358331
 42
1.0
 10
1219.764546801169
 20
96.3397657879542
 42
1.0
 10
1218.769603250165
 20
97.04263582250023
 42
1.0
 10
1217.012134961669
 20
97.04263582250006
 42
1.0
 72
     1
 10
1217.012134961669
 20
97.04263582250034
 11
1214.845545885
 21
97.04263582250034
 72
     1
 10
1214.845545885
 20
97.04263582250034
 11
1214.845545885
 21
79.00435486867707
 72
     1
 10
1214.845545885
 20
79.00435486867707
 11
1206.294393568434
 21
79.00435486867707
 72
     1
 10
1206.294393568434
 20
79.00435486867707
 11
1206.294393568434
 21
120.8206561985002
 72
     1
 10
1206.294393568434
 20
120.8206561985002
 11
1217.246983532066
 21
120.8206561985002
 72
     4
 94
        3
 73
     1
 74
     0
 95
        8
 96
        4
 40
2.0
 40
2.0
 40
2.0
 40
2.0
 40
3.0
 40
3.0
 40
3.0
 40
3.0
 10
1217.246983532066
 20
120.8206561985002
 42
1.0
 10
1224.743377316713
 20
120.8206561985002
 42
1.0
 10
1228.081688394539
 20
118.94647574758
 42
1.0
 10
1228.081688394539
 20
112.2699225895267
 42
1.0
 72
     1
 10
1228.081688394539
 20
112.2699225895267
 11
1228.081688394539
 21
107.2915181810491
 72
     4
 94
        3
 73
     1
 74
     0
 95
        8
 96
        4
 40
4.0
 40
4.0
 40
4.0
 40
4.0
 40
5.0
 40
5.0
 40
5.0
 40
5.0
 10
1228.081688394539
 20
107.2915181810491
 42
1.0
 10
1228.081688394539
 20
104.7734521400119
 42
1.0
 10
1227.027006338114
 20
101.6106626616356
 42
1.0
 10
1223.161765846445
 20
101.0252588076155
 42
1.0
 72
     1
 10
1223.161765846445
 20
101.0252588076155
 11
1223.161765846445
 21
100.907876411812
 72
     4
 94
        3
 73
     1
 74
     0
 95
        8
 96
        4
 40
6.0
 40
6.0
 40
6.0
 40
6.0
 40
7.0
 40
7.0
 40
7.0
 40
7.0
 10
1223.161765846445
 20
100.907876411812
 42
1.0
 10
1226.676032145678
 20
100.3223887730694
 42
1.0
 10
1228.315699117733
 20
97.9798517250441
 42
1.0
 10
1228.315699117737
 20
92.65005419165482
 42
1.0
 72
     1
 10
1228.315699117736
 20
92.65005419165442
 11
1228.315699117737
 21
83.57242360017314
 72
     4
 94
        3
 73
     1
 74
     0
 95
        8
 96
        4
 40
8.0
 40
8.0
 40
8.0
 40
8.0
 40
9.0
 40
9.0
 40
9.0
 40
9.0
 10
1228.315699117737
 20
83.57242360017314
 42
1.0
 10
1228.315699117736
 20
80.35112725028497
 42
1.0
 10
1228.315699117736
 20
79.64829072962752
 42
1.0
 10
1228.901521880567
 20
79.00435486867691
 42
1.0
 72
     1
 10
1228.901521880567
 20
79.00435486867707
 11
1220.292306752984
 21
79.00435486867693
 72
     4
 94
        3
 73
     1
 74
     0
 95
        8
 96
        4
 40
10.0
 40
10.0
 40
10.0
 40
10.0
 40
11.0
 40
11.0
 40
11.0
 40
11.0
 10
1220.292306752984
 20
79.00435486867693
 42
1.0
 10
1219.940494713353
 20
79.64829072962749
 42
1.0
 10
1219.764546801173
 20
80.23413026420205
 42
1.0
 10
1219.76454680117
 20
80.70296443422475
 42
1.0
 72
     1
 10
1219.764546801171
 20
80.70296443422481
 11
1219.764546801171
 21
94.93410950358331
 97
        0
 92
        0
 93
        5
 72
     4
 94
        3
 73
     1
 74
     0
 95
        8
 96
        4
 40
1.0
 40
1.0
 40
1.0
 40
1.0
 40
2.0
 40
2.0
 40
2.0
 40
2.0
 10
1217.012134961669
 20
104.6560697442084
 42
1.0
 10
1218.827749845905
 20
104.6560697442086
 42
1.0
 10
1219.5306198627
 20
105.2418925218399
 42
1.0
 10
1219.530619862696
 20
108.9316041181398
 42
1.0
 72
     4
 94
        3
 73
     1
 74
     0
 95
        8
 96
        4
 40
2.0
 40
2.0
 40
2.0
 40
2.0
 40
3.0
 40
3.0
 40
3.0
 40
3.0
 10
1219.530619862696
 20
108.9316041181398
 42
1.0
 10
1219.530619862696
 20
112.3868860617201
 42
1.0
 10
1219.061760569102
 20
113.2068033531812
 42
1.0
 10
1217.012134961669
 20
113.2068033531812
 42
1.0
 72
     1
 10
1217.012134961669
 20
113.2068033531811
 11
1214.845545885
 21
113.2068033531811
 72
     1
 10
1214.845545885
 20
113.2068033531811
 11
1214.845545885
 21
104.6560697442084
 72
     1
 10
1214.845545885
 20
104.6560697442084
 11
1217.012134961669
 21
104.6560697442084
 97
        0
 75
     0
 76
     1
 98
        1
 10
0.0
 20
0.0
  0
LINE
  5
74
330
1F
100
AcDbEntity
  8
AM_0
100
AcDbLine
 10
2035.0367667596
 20
99.9125055336
 30
0.0
 11
2035.0367667596
 21
24.9125055336
 31
0.0
  0
LINE
  5
75
330
1F
100
AcDbEntity
  8
AM_0
100
AcDbLine
 10
1317.9984731828
 20
58.7991728421
 30
0.0
 11
1317.9984731828
 21
63.6640778421
 31
0.0
  0
LINE
  5
76
330
1F
100
AcDbEntity
  8
AM_0
100
AcDbLine
 10
2075.0367667596
 20
24.9125055336
 30
0.0
 11
2075.0367667596
 21
1460.005464201
 31
0.0
  0
LINE
  5
77
330
1F
100
AcDbEntity
  8
AM_0
100
AcDbLine
 10
26.3417472174
 20
1460.005464201
 30
0.0
 11
26.3417472174
 21
24.9125055336
 31
0.0
  0
LINE
  5
78
330
1F
100
AcDbEntity
  8
AM_0
100
AcDbLine
 10
26.3417472174
 20
24.9125055336
 30
0.0
 11
2075.0367667596
 21
24.9125055336
 31
0.0
  0
LINE
  5
79
330
1F
100
AcDbEntity
  8
AM_0
100
AcDbLine
 10
26.3417472174
 20
1460.005464201
 30
0.0
 11
2075.0367667596
 21
1460.005464201
 31
0.0
  0
LINE
  5
7A
330
1F
100
AcDbEntity
  8
AM_0
100
AcDbLine
 10
1317.9984731828
 20
31.7630728421
 30
0.0
 11
1317.9984731828
 21
26.7386678421
 31
0.0
  0
LINE
  5
7B
330
1F
100
AcDbEntity
  8
AM_0
100
AcDbLine
 10
1317.9984731828
 20
57.1243728421
 30
0.0
 11
1317.9984731828
 21
33.3581228421
 31
0.0
  0
LINE
  5
7C
330
1F
100
AcDbEntity
  8
AM_0
100
AcDbLine
 10
1303.0202531828
 20
35.1070978421
 30
0.0
 11
1303.0202531828
 21
55.1070978421
 31
0.0
  0
LINE
  5
7D
330
1F
100
AcDbEntity
  8
AM_0
100
AcDbLine
 10
1283.0202531828
 20
50.1070978421
 30
0.0
 11
1283.0202531828
 21
40.1070978421
 31
0.0
  0
LINE
  5
7E
330
1F
100
AcDbEntity
  8
AM_0
100
AcDbLine
 10
1283.0202531828
 20
40.1070978421
 30
0.0
 11
1303.0202531828
 21
35.1070978421
 31
0.0
  0
LINE
  5
7F
330
1F
100
AcDbEntity
  8
AM_0
100
AcDbLine
 10
1331.7605481828
 20
45.1070978421
 30
0.0
 11
1335.5089181828
 21
45.1070978421
 31
0.0
  0
LINE
  5
80
330
1F
100
AcDbEntity
  8
AM_0
100
AcDbLine
 10
1306.0802431828
 20
45.1070978421
 30
0.0
 11
1329.7667381828
 21
45.1070978421
 31
0.0
  0
LINE
  5
81
330
1F
100
AcDbEntity
  8
AM_0
100
AcDbLine
 10
1300.6570731828
 20
45.1070978421
 30
0.0
 11
1304.4851931828
 21
45.1070978421
 31
0.0
  0
LINE
  5
82
330
1F
100
AcDbEntity
  8
AM_0
100
AcDbLine
 10
1282.0747381828
 20
45.1070978421
 30
0.0
 11
1298.1049931828
 21
45.1070978421
 31
0.0
  0
LINE
  5
83
330
1F
100
AcDbEntity
  8
AM_0
100
AcDbLine
 10
1275.6945331828
 20
45.1070978421
 30
0.0
 11
1279.8416681828
 21
45.1070978421
 31
0.0
  0
LINE
  5
84
330
1F
100
AcDbEntity
  8
AM_0
100
AcDbLine
 10
1303.0202531828
 20
55.1070978421
 30
0.0
 11
1283.0202531828
 21
50.1070978421
 31
0.0
  0
LINE
  5
85
330
1F
100
AcDbEntity
  8
AM_0
100
AcDbLine
 10
1342.5367667596
 20
24.9125055336
 30
0.0
 11
1342.5367667596
 21
64.9125055336
 31
0.0
  0
LINE
  5
86
330
1F
100
AcDbEntity
  8
AM_0
100
AcDbLine
 10
1267.5367667596
 20
64.9125055336
 30
0.0
 11
1402.5367667596
 21
64.9125055336
 31
0.0
  0
LINE
  5
87
330
1F
100
AcDbEntity
  8
AM_0
100
AcDbLine
 10
1905.0367667596
 20
135.9125055336
 30
0.0
 11
2075.0367667596
 21
135.9125055336
 31
0.0
  0
LINE
  5
88
330
1F
100
AcDbEntity
  8
AM_0
100
AcDbLine
 10
1905.0367667596
 20
171.9125055336
 30
0.0
 11
2075.0367667596
 21
171.9125055336
 31
0.0
  0
LINE
  5
89
330
1F
100
AcDbEntity
  8
AM_0
100
AcDbLine
 10
1905.0367667596
 20
207.9125055336
 30
0.0
 11
2075.0367667596
 21
207.9125055336
 31
0.0
  0
LINE
  5
8A
330
1F
100
AcDbEntity
  8
AM_0
100
AcDbLine
 10
1905.0367667596
 20
243.9125055336
 30
0.0
 11
2075.0367667596
 21
243.9125055336
 31
0.0
  0
LINE
  5
8B
330
1F
100
AcDbEntity
  8
AM_0
100
AcDbLine
 10
1905.0367667596
 20
279.9125055336
 30
0.0
 11
1905.0367667596
 21
99.9125055336
 31
0.0
  0
LINE
  5
8C
330
1F
100
AcDbEntity
  8
AM_0
100
AcDbLine
 10
1970.0367667596
 20
279.8259064537
 30
0.0
 11
1970.0367667596
 21
24.8259064537
 31
0.0
  0
LINE
  5
8D
330
1F
100
AcDbEntity
  8
AM_0
100
AcDbLine
 10
957.5451548621
 20
171.8255184431
 30
0.0
 11
1267.5367667596
 21
171.8495946658
 31
0.0
  0
LINE
  5
8E
330
1F
100
AcDbEntity
  8
AM_0
100
AcDbLine
 10
1402.5367667596
 20
99.9125055336
 30
0.0
 11
1402.5367667596
 21
24.9125055336
 31
0.0
  0
LINE
  5
8F
330
1F
100
AcDbEntity
  8
AM_0
100
AcDbLine
 10
1267.5367667596
 20
279.8259064537
 30
0.0
 11
1267.5367667596
 21
24.9125055336
 31
0.0
  0
LINE
  5
90
330
1F
100
AcDbEntity
  8
AM_0
100
AcDbLine
 10
1267.5367667596
 20
99.9125055336
 30
0.0
 11
2075.0367667596
 21
99.9125055336
 31
0.0
  0
LINE
  5
91
330
1F
100
AcDbEntity
  8
AM_0
100
AcDbLine
 10
957.5565652045
 20
24.9125055336
 30
0.0
 11
2075.0367667596
 21
24.9125055336
 31
0.0
  0
LINE
  5
92
330
1F
100
AcDbEntity
  8
AM_0
100
AcDbLine
 10
2075.0367667596
 20
24.8259064537
 30
0.0
 11
2075.0367667596
 21
279.8259064537
 31
0.0
  0
LINE
  5
93
330
1F
100
AcDbEntity
  8
AM_0
100
AcDbLine
 10
2075.0367667596
 20
279.8259064537
 30
0.0
 11
957.5367667596
 21
279.8259064537
 31
0.0
  0
LINE
  5
94
330
1F
100
AcDbEntity
  8
AM_0
100
AcDbLine
 10
1009.228879697
 20
87.6724876304
 30
0.0
 11
1009.3459269539
 21
87.6724876304
 31
0.0
  0
LINE
  5
95
330
1F
100
AcDbEntity
  8
AM_0
100
AcDbLine
 10
1009.3459269539
 20
87.6724876304
 30
0.0
 11
1013.328549939
 21
120.8206561985
 31
0.0
  0
LINE
  5
96
330
1F
100
AcDbEntity
  8
AM_0
100
AcDbLine
 10
1013.328549939
 20
120.8206561985
 30
0.0
 11
1026.9157484573
 21
120.8206561985
 31
0.0
  0
LINE
  5
97
330
1F
100
AcDbEntity
  8
AM_0
100
AcDbLine
 10
1026.9157484573
 20
120.8206561985
 30
0.0
 11
1026.9157484573
 21
79.0043548687
 31
0.0
  0
LINE
  5
98
330
1F
100
AcDbEntity
  8
AM_0
100
AcDbLine
 10
1026.9157484573
 20
79.0043548687
 30
0.0
 11
1018.8334575418
 21
79.0043548687
 31
0.0
  0
LINE
  5
99
330
1F
100
AcDbEntity
  8
AM_0
100
AcDbLine
 10
1018.8334575418
 20
79.0043548687
 30
0.0
 11
1018.8334575418
 21
114.7294231097
 31
0.0
  0
LINE
  5
9A
330
1F
100
AcDbEntity
  8
AM_0
100
AcDbLine
 10
1018.8334575418
 20
114.7294231097
 30
0.0
 11
1018.7164102849
 21
114.7294231097
 31
0.0
  0
LINE
  5
9B
330
1F
100
AcDbEntity
  8
AM_0
100
AcDbLine
 10
1018.7164102849
 20
114.7294231097
 30
0.0
 11
1013.4455134112
 21
79.0043548687
 31
0.0
  0
LINE
  5
9C
330
1F
100
AcDbEntity
  8
AM_0
100
AcDbLine
 10
1013.4455134112
 20
79.0043548687
 30
0.0
 11
1004.953345323
 21
79.0043548687
 31
0.0
  0
LINE
  5
9D
330
1F
100
AcDbEntity
  8
AM_0
100
AcDbLine
 10
1004.953345323
 20
79.0043548687
 30
0.0
 11
999.6824484494
 21
114.7294231097
 31
0.0
  0
LINE
  5
9E
330
1F
100
AcDbEntity
  8
AM_0
100
AcDbLine
 10
999.6824484494
 20
114.7294231097
 30
0.0
 11
999.5654011925
 21
114.7294231097
 31
0.0
  0
LINE
  5
9F
330
1F
100
AcDbEntity
  8
AM_0
100
AcDbLine
 10
999.5654011925
 20
114.7294231097
 30
0.0
 11
999.5654011925
 21
79.0043548687
 31
0.0
  0
LINE
  5
A0
330
1F
100
AcDbEntity
  8
AM_0
100
AcDbLine
 10
999.5654011925
 20
79.0043548687
 30
0.0
 11
991.4831079653
 21
79.0043548687
 31
0.0
  0
LINE
  5
A1
330
1F
100
AcDbEntity
  8
AM_0
100
AcDbLine
 10
991.4831079653
 20
79.0043548687
 30
0.0
 11
991.4831079653
 21
120.8206561985
 31
0.0
  0
LINE
  5
A2
330
1F
100
AcDbEntity
  8
AM_0
100
AcDbLine
 10
991.4831079653
 20
120.8206561985
 30
0.0
 11
1005.0703087952
 21
120.8206561985
 31
0.0
  0
LINE
  5
A3
330
1F
100
AcDbEntity
  8
AM_0
100
AcDbLine
 10
1005.0703087952
 20
120.8206561985
 30
0.0
 11
1009.228879697
 21
87.6724876304
 31
0.0
  0
LINE
  5
A4
330
1F
100
AcDbEntity
  8
AM_0
100
AcDbLine
 10
1078.3929966926
 20
111.8014822077
 30
0.0
 11
1078.3929966926
 21
105.8862808203
 31
0.0
  0
LINE
  5
A5
330
1F
100
AcDbEntity
  8
AM_0
100
AcDbLine
 10
1078.3929966926
 20
105.8862808203
 30
0.0
 11
1069.8422632996
 21
105.8862808203
 31
0.0
  0
LINE
  5
A6
330
1F
100
AcDbEntity
  8
AM_0
100
AcDbLine
 10
1069.8422632996
 20
105.8862808203
 30
0.0
 11
1069.8422632996
 21
112.1525401937
 31
0.0
  0
LINE
  5
A7
330
1F
100
AcDbEntity
  8
AM_0
100
AcDbLine
 10
1065.3912000451
 20
111.0986121732
 30
0.0
 11
1065.3912000451
 21
88.7263318662
 31
0.0
  0
LINE
  5
A8
330
1F
100
AcDbEntity
  8
AM_0
100
AcDbLine
 10
1069.8422632996
 20
87.6724876304
 30
0.0
 11
1069.8422632996
 21
95.4028850243
 31
0.0
  0
LINE
  5
A9
330
1F
100
AcDbEntity
  8
AM_0
100
AcDbLine
 10
1069.8422632996
 20
95.4028850243
 30
0.0
 11
1078.3929966926
 21
95.4028850243
 31
0.0
  0
LINE
  5
AA
330
1F
100
AcDbEntity
  8
AM_0
100
AcDbLine
 10
1078.3929966926
 20
95.4028850243
 30
0.0
 11
1078.3929966926
 21
88.0234618317
 31
0.0
  0
LINE
  5
AB
330
1F
100
AcDbEntity
  8
AM_0
100
AcDbLine
 10
1056.8405504369
 20
88.0234618317
 30
0.0
 11
1056.8405504369
 21
111.8014822077
 31
0.0
  0
LINE
  5
AC
330
1F
100
AcDbEntity
  8
AM_0
100
AcDbLine
 10
1103.8102645164
 20
79.0043548687
 30
0.0
 11
1098.2464563944
 21
79.0043548687
 31
0.0
  0
LINE
  5
AD
330
1F
100
AcDbEntity
  8
AM_0
100
AcDbLine
 10
1098.2464563944
 20
79.0043548687
 30
0.0
 11
1097.0159102105
 21
82.0497368158
 31
0.0
  0
LINE
  5
AE
330
1F
100
AcDbEntity
  8
AM_0
100
AcDbLine
 10
1081.7889589671
 20
86.4418576307
 30
0.0
 11
1081.7889589671
 21
111.8014822077
 31
0.0
  0
LINE
  5
AF
330
1F
100
AcDbEntity
  8
AM_0
100
AcDbLine
 10
1103.8102645164
 20
111.8014822077
 30
0.0
 11
1103.8102645164
 21
109.224515507
 31
0.0
  0
LINE
  5
B0
330
1F
100
AcDbEntity
  8
AM_0
100
AcDbLine
 10
1103.8102645164
 20
109.224515507
 30
0.0
 11
1095.2591959845
 21
109.224515507
 31
0.0
  0
LINE
  5
B1
330
1F
100
AcDbEntity
  8
AM_0
100
AcDbLine
 10
1095.2591959845
 20
109.224515507
 30
0.0
 11
1095.2591959845
 21
111.742581548
 31
0.0
  0
LINE
  5
B2
330
1F
100
AcDbEntity
  8
AM_0
100
AcDbLine
 10
1090.33969236
 20
111.742581548
 30
0.0
 11
1090.33969236
 21
88.0823624914
 31
0.0
  0
LINE
  5
B3
330
1F
100
AcDbEntity
  8
AM_0
100
AcDbLine
 10
1095.2591959845
 20
88.0823624914
 30
0.0
 11
1095.2591959845
 21
97.0426358225
 31
0.0
  0
LINE
  5
B4
330
1F
100
AcDbEntity
  8
AM_0
100
AcDbLine
 10
1095.2591959845
 20
97.0426358225
 30
0.0
 11
1092.7411300071
 21
97.0426358225
 31
0.0
  0
LINE
  5
B5
330
1F
100
AcDbEntity
  8
AM_0
100
AcDbLine
 10
1092.7411300071
 20
97.0426358225
 30
0.0
 11
1092.7411300071
 21
104.6560697442
 31
0.0
  0
LINE
  5
B6
330
1F
100
AcDbEntity
  8
AM_0
100
AcDbLine
 10
1092.7411300071
 20
104.6560697442
 30
0.0
 11
1103.8102645164
 21
104.6560697442
 31
0.0
  0
LINE
  5
B7
330
1F
100
AcDbEntity
  8
AM_0
100
AcDbLine
 10
1103.8102645164
 20
104.6560697442
 30
0.0
 11
1103.8102645164
 21
79.0043548687
 31
0.0
  0
LINE
  5
B8
330
1F
100
AcDbEntity
  8
AM_0
100
AcDbLine
 10
1108.083787949
 20
79.0043548687
 30
0.0
 11
1108.083787949
 21
120.8206561985
 31
0.0
  0
LINE
  5
B9
330
1F
100
AcDbEntity
  8
AM_0
100
AcDbLine
 10
1108.083787949
 20
120.8206561985
 30
0.0
 11
1119.0355447043
 21
120.8206561985
 31
0.0
  0
LINE
  5
BA
330
1F
100
AcDbEntity
  8
AM_0
100
AcDbLine
 10
1129.8703287126
 20
112.2699225895
 30
0.0
 11
1129.8703287126
 21
107.291518181
 31
0.0
  0
LINE
  5
BB
330
1F
100
AcDbEntity
  8
AM_0
100
AcDbLine
 10
1124.9512440117
 20
101.0252588076
 30
0.0
 11
1124.9512440117
 21
100.9078764118
 31
0.0
  0
LINE
  5
BC
330
1F
100
AcDbEntity
  8
AM_0
100
AcDbLine
 10
1130.1043443543
 20
92.6500541917
 30
0.0
 11
1130.1043443543
 21
83.5724236002
 31
0.0
  0
LINE
  5
BD
330
1F
100
AcDbEntity
  8
AM_0
100
AcDbLine
 10
1130.6901621986
 20
79.0043548687
 30
0.0
 11
1122.0809470711
 21
79.0043548687
 31
0.0
  0
LINE
  5
BE
330
1F
100
AcDbEntity
  8
AM_0
100
AcDbLine
 10
1121.5540249665
 20
80.7029644342
 30
0.0
 11
1121.5540249665
 21
94.9341095036
 31
0.0
  0
LINE
  5
BF
330
1F
100
AcDbEntity
  8
AM_0
100
AcDbLine
 10
1118.8015293422
 20
97.0426358225
 30
0.0
 11
1116.6349402656
 21
97.0426358225
 31
0.0
  0
LINE
  5
C0
330
1F
100
AcDbEntity
  8
AM_0
100
AcDbLine
 10
1116.6349402656
 20
97.0426358225
 30
0.0
 11
1116.6349402656
 21
79.0043548687
 31
0.0
  0
LINE
  5
C1
330
1F
100
AcDbEntity
  8
AM_0
100
AcDbLine
 10
1116.6349402656
 20
79.0043548687
 30
0.0
 11
1108.083787949
 21
79.0043548687
 31
0.0
  0
LINE
  5
C2
330
1F
100
AcDbEntity
  8
AM_0
100
AcDbLine
 10
1116.6349402656
 20
104.6560697442
 30
0.0
 11
1118.8015293422
 21
104.6560697442
 31
0.0
  0
LINE
  5
C3
330
1F
100
AcDbEntity
  8
AM_0
100
AcDbLine
 10
1118.8015293422
 20
113.2068033532
 30
0.0
 11
1116.6349402656
 21
113.2068033532
 31
0.0
  0
LINE
  5
C4
330
1F
100
AcDbEntity
  8
AM_0
100
AcDbLine
 10
1116.6349402656
 20
113.2068033532
 30
0.0
 11
1116.6349402656
 21
104.6560697442
 31
0.0
  0
LINE
  5
C5
330
1F
100
AcDbEntity
  8
AM_0
100
AcDbLine
 10
1133.7927941681
 20
120.8206561985
 30
0.0
 11
1151.3622040712
 21
120.8206561985
 31
0.0
  0
LINE
  5
C6
330
1F
100
AcDbEntity
  8
AM_0
100
AcDbLine
 10
1151.3622040712
 20
120.8206561985
 30
0.0
 11
1151.3622040712
 21
113.2068033532
 31
0.0
  0
LINE
  5
C7
330
1F
100
AcDbEntity
  8
AM_0
100
AcDbLine
 10
1151.3622040712
 20
113.2068033532
 30
0.0
 11
1142.3431086375
 21
113.2068033532
 31
0.0
  0
LINE
  5
C8
330
1F
100
AcDbEntity
  8
AM_0
100
AcDbLine
 10
1142.3431086375
 20
113.2068033532
 30
0.0
 11
1142.3431086375
 21
104.6560697442
 31
0.0
  0
LINE
  5
C9
330
1F
100
AcDbEntity
  8
AM_0
100
AcDbLine
 10
1142.3431086375
 20
104.6560697442
 30
0.0
 11
1150.9523237651
 21
104.6560697442
 31
0.0
  0
LINE
  5
CA
330
1F
100
AcDbEntity
  8
AM_0
100
AcDbLine
 10
1150.9523237651
 20
104.6560697442
 30
0.0
 11
1150.9523237651
 21
97.0426358225
 31
0.0
  0
LINE
  5
CB
330
1F
100
AcDbEntity
  8
AM_0
100
AcDbLine
 10
1150.9523237651
 20
97.0426358225
 30
0.0
 11
1142.3431086375
 21
97.0426358225
 31
0.0
  0
LINE
  5
CC
330
1F
100
AcDbEntity
  8
AM_0
100
AcDbLine
 10
1142.3431086375
 20
97.0426358225
 30
0.0
 11
1142.3431086375
 21
86.6178055473
 31
0.0
  0
LINE
  5
CD
330
1F
100
AcDbEntity
  8
AM_0
100
AcDbLine
 10
1142.3431086375
 20
86.6178055473
 30
0.0
 11
1151.3622040712
 21
86.6178055473
 31
0.0
  0
LINE
  5
CE
330
1F
100
AcDbEntity
  8
AM_0
100
AcDbLine
 10
1151.3622040712
 20
86.6178055473
 30
0.0
 11
1151.3622040712
 21
79.0043548687
 31
0.0
  0
LINE
  5
CF
330
1F
100
AcDbEntity
  8
AM_0
100
AcDbLine
 10
1151.3622040712
 20
79.0043548687
 30
0.0
 11
1133.7927941681
 21
79.0043548687
 31
0.0
  0
LINE
  5
D0
330
1F
100
AcDbEntity
  8
AM_0
100
AcDbLine
 10
1133.7927941681
 20
79.0043548687
 30
0.0
 11
1133.7927941681
 21
120.8206561985
 31
0.0
  0
LINE
  5
D1
330
1F
100
AcDbEntity
  8
AM_0
100
AcDbLine
 10
1176.6040273287
 20
79.0043548687
 30
0.0
 11
1171.0402131137
 21
79.0043548687
 31
0.0
  0
LINE
  5
D2
330
1F
100
AcDbEntity
  8
AM_0
100
AcDbLine
 10
1171.0402131137
 20
79.0043548687
 30
0.0
 11
1169.8104209923
 21
82.0497368158
 31
0.0
  0
LINE
  5
D3
330
1F
100
AcDbEntity
  8
AM_0
100
AcDbLine
 10
1154.5835535335
 20
86.4418576307
 30
0.0
 11
1154.5835535335
 21
111.8014822077
 31
0.0
  0
LINE
  5
D4
330
1F
100
AcDbEntity
  8
AM_0
100
AcDbLine
 10
1176.6040273287
 20
111.8014822077
 30
0.0
 11
1176.6040273287
 21
109.224515507
 31
0.0
  0
LINE
  5
D5
330
1F
100
AcDbEntity
  8
AM_0
100
AcDbLine
 10
1176.6040273287
 20
109.224515507
 30
0.0
 11
1168.0537067663
 21
109.224515507
 31
0.0
  0
LINE
  5
D6
330
1F
100
AcDbEntity
  8
AM_0
100
AcDbLine
 10
1168.0537067663
 20
109.224515507
 30
0.0
 11
1168.0537067663
 21
111.742581548
 31
0.0
  0
LINE
  5
D7
330
1F
100
AcDbEntity
  8
AM_0
100
AcDbLine
 10
1163.1337842182
 20
111.742581548
 30
0.0
 11
1163.1337842182
 21
88.0823624914
 31
0.0
  0
LINE
  5
D8
330
1F
100
AcDbEntity
  8
AM_0
100
AcDbLine
 10
1168.0537067663
 20
88.0823624914
 30
0.0
 11
1168.0537067663
 21
97.0426358225
 31
0.0
  0
LINE
  5
D9
330
1F
100
AcDbEntity
  8
AM_0
100
AcDbLine
 10
1168.0537067663
 20
97.0426358225
 30
0.0
 11
1165.5352276787
 21
97.0426358225
 31
0.0
  0
LINE
  5
DA
330
1F
100
AcDbEntity
  8
AM_0
100
AcDbLine
 10
1165.5352276787
 20
97.0426358225
 30
0.0
 11
1165.5352276787
 21
104.6560697442
 31
0.0
  0
LINE
  5
DB
330
1F
100
AcDbEntity
  8
AM_0
100
AcDbLine
 10
1165.5352276787
 20
104.6560697442
 30
0.0
 11
1176.6040273287
 21
104.6560697442
 31
0.0
  0
LINE
  5
DC
330
1F
100
AcDbEntity
  8
AM_0
100
AcDbLine
 10
1176.6040273287
 20
104.6560697442
 30
0.0
 11
1176.6040273287
 21
79.0043548687
 31
0.0
  0
LINE
  5
DD
330
1F
100
AcDbEntity
  8
AM_0
100
AcDbLine
 10
1202.31294367
 20
111.8014822077
 30
0.0
 11
1202.31294367
 21
88.0234618317
 31
0.0
  0
LINE
  5
DE
330
1F
100
AcDbEntity
  8
AM_0
100
AcDbLine
 10
1180.2924759679
 20
88.0234618317
 30
0.0
 11
1180.2924759679
 21
111.8014822077
 31
0.0
  0
LINE
  5
DF
330
1F
100
AcDbEntity
  8
AM_0
100
AcDbLine
 10
1193.7627129854
 20
88.0823624914
 30
0.0
 11
1193.7627129854
 21
111.742581548
 31
0.0
  0
LINE
  5
E0
330
1F
100
AcDbEntity
  8
AM_0
100
AcDbLine
 10
1188.8427904373
 20
111.742581548
 30
0.0
 11
1188.8427904373
 21
88.0823624914
 31
0.0
  0
LINE
  5
E1
330
1F
100
AcDbEntity
  8
AM_0
100
AcDbLine
 10
1206.2943935684
 20
79.0043548687
 30
0.0
 11
1206.2943935684
 21
120.8206561985
 31
0.0
  0
LINE
  5
E2
330
1F
100
AcDbEntity
  8
AM_0
100
AcDbLine
 10
1206.2943935684
 20
120.8206561985
 30
0.0
 11
1217.2469835321
 21
120.8206561985
 31
0.0
  0
LINE
  5
E3
330
1F
100
AcDbEntity
  8
AM_0
100
AcDbLine
 10
1228.0816883945
 20
112.2699225895
 30
0.0
 11
1228.0816883945
 21
107.291518181
 31
0.0
  0
LINE
  5
E4
330
1F
100
AcDbEntity
  8
AM_0
100
AcDbLine
 10
1223.1617658464
 20
101.0252588076
 30
0.0
 11
1223.1617658464
 21
100.9078764118
 31
0.0
  0
LINE
  5
E5
330
1F
100
AcDbEntity
  8
AM_0
100
AcDbLine
 10
1228.3156991177
 20
92.6500541917
 30
0.0
 11
1228.3156991177
 21
83.5724236002
 31
0.0
  0
LINE
  5
E6
330
1F
100
AcDbEntity
  8
AM_0
100
AcDbLine
 10
1228.9015218806
 20
79.0043548687
 30
0.0
 11
1220.292306753
 21
79.0043548687
 31
0.0
  0
LINE
  5
E7
330
1F
100
AcDbEntity
  8
AM_0
100
AcDbLine
 10
1219.7645468012
 20
80.7029644342
 30
0.0
 11
1219.7645468012
 21
94.9341095036
 31
0.0
  0
LINE
  5
E8
330
1F
100
AcDbEntity
  8
AM_0
100
AcDbLine
 10
1217.0121349617
 20
97.0426358225
 30
0.0
 11
1214.845545885
 21
97.0426358225
 31
0.0
  0
LINE
  5
E9
330
1F
100
AcDbEntity
  8
AM_0
100
AcDbLine
 10
1214.845545885
 20
97.0426358225
 30
0.0
 11
1214.845545885
 21
79.0043548687
 31
0.0
  0
LINE
  5
EA
330
1F
100
AcDbEntity
  8
AM_0
100
AcDbLine
 10
1214.845545885
 20
79.0043548687
 30
0.0
 11
1206.2943935684
 21
79.0043548687
 31
0.0
  0
LINE
  5
EB
330
1F
100
AcDbEntity
  8
AM_0
100
AcDbLine
 10
1214.845545885
 20
104.6560697442
 30
0.0
 11
1217.0121349617
 21
104.6560697442
 31
0.0
  0
LINE
  5
EC
330
1F
100
AcDbEntity
  8
AM_0
100
AcDbLine
 10
1217.0121349617
 20
113.2068033532
 30
0.0
 11
1214.845545885
 21
113.2068033532
 31
0.0
  0
LINE
  5
ED
330
1F
100
AcDbEntity
  8
AM_0
100
AcDbLine
 10
1214.845545885
 20
113.2068033532
 30
0.0
 11
1214.845545885
 21
104.6560697442
 31
0.0
  0
LINE
  5
EE
330
1F
100
AcDbEntity
  8
AM_0
100
AcDbLine
 10
1030.954413951
 20
111.834222397
 30
0.0
 11
1030.954413951
 21
108.9438949441
 31
0.0
  0
LINE
  5
EF
330
1F
100
AcDbEntity
  8
AM_0
100
AcDbLine
 10
1030.954413951
 20
108.9438949441
 30
0.0
 11
1030.954413951
 21
79.0109029065
 31
0.0
  0
LINE
  5
F0
330
1F
100
AcDbEntity
  8
AM_0
100
AcDbLine
 10
1030.954413951
 20
79.0109029065
 30
0.0
 11
1039.5047614466
 21
79.0109029065
 31
0.0
  0
LINE
  5
F1
330
1F
100
AcDbEntity
  8
AM_0
100
AcDbLine
 10
1039.5047614466
 20
79.0109029065
 30
0.0
 11
1039.5047614466
 21
96.8536122527
 31
0.0
  0
LINE
  5
F2
330
1F
100
AcDbEntity
  8
AM_0
100
AcDbLine
 10
1039.5047614466
 20
96.8536122527
 30
0.0
 11
1044.4139202368
 21
96.8536122527
 31
0.0
  0
LINE
  5
F3
330
1F
100
AcDbEntity
  8
AM_0
100
AcDbLine
 10
1044.4139202368
 20
96.8536122527
 30
0.0
 11
1044.4139202368
 21
79.0109029065
 31
0.0
  0
LINE
  5
F4
330
1F
100
AcDbEntity
  8
AM_0
100
AcDbLine
 10
1044.4139202368
 20
79.0109029065
 30
0.0
 11
1053.0248152855
 21
79.0109029065
 31
0.0
  0
LINE
  5
F5
330
1F
100
AcDbEntity
  8
AM_0
100
AcDbLine
 10
1053.0248152855
 20
79.0109029065
 30
0.0
 11
1053.0248152855
 21
111.834222397
 31
0.0
  0
LINE
  5
F6
330
1F
100
AcDbEntity
  8
AM_0
100
AcDbLine
 10
1044.4139202368
 20
104.5837040451
 30
0.0
 11
1039.5047614466
 21
104.5837040451
 31
0.0
  0
LINE
  5
F7
330
1F
100
AcDbEntity
  8
AM_0
100
AcDbLine
 10
1039.5047614466
 20
104.5837040451
 30
0.0
 11
1039.5047614466
 21
110.5692694622
 31
0.0
  0
LINE
  5
F8
330
1F
100
AcDbEntity
  8
AM_0
100
AcDbLine
 10
1044.4139202368
 20
110.5692694622
 30
0.0
 11
1044.4139202368
 21
104.5837040451
 31
0.0
  0
LINE
  5
F9
330
1F
100
AcDbEntity
  8
AM_0
100
AcDbLine
 10
957.5367667898
 20
279.8255181173
 30
0.0
 11
957.5565719605
 21
24.8255188864
 31
0.0
  0
CIRCLE
  5
FA
330
1F
100
AcDbEntity
  8
AM_0
100
AcDbCircle
 10
1317.9984731828
 20
45.1070978421
 30
0.0
 40
4.999999999999773
  0
CIRCLE
  5
FB
330
1F
100
AcDbEntity
  8
AM_0
100
AcDbCircle
 10
1317.9984731828
 20
45.1070978421
 30
0.0
 40
10.00000000000002
  0
SPLINE
  5
FC
330
1F
100
AcDbEntity
  8
0
  6
Continuous
 62
    22
420
 14759936
370
    18
100
AcDbSpline
210
0.0
220
0.0
230
1.0
 70
     8
 71
     3
 72
     8
 73
     4
 74
     0
 42
0.00000001
 43
0.00000001
 40
0.0
 40
0.0
 40
0.0
 40
0.0
 40
1.0
 40
1.0
 40
1.0
 40
1.0
 10
1056.840550436876
 20
111.8014822076996
 30
0.0
 10
1056.840550436876
 20
118.7121298795829
 30
0.0
 10
1059.827395066275
 20
121.6404897052398
 30
0.0
 10
1067.616773564729
 20
121.6404897052398
 30
0.0
  0
SPLINE
  5
FD
330
1F
100
AcDbEntity
  8
0
  6
Continuous
 62
    22
420
 14759936
370
    18
100
AcDbSpline
210
0.0
220
0.0
230
1.0
 70
     8
 71
     3
 72
     8
 73
     4
 74
     0
 42
0.00000001
 43
0.00000001
 40
1.0
 40
1.0
 40
1.0
 40
1.0
 40
2.0
 40
2.0
 40
2.0
 40
2.0
 10
1067.616773564729
 20
121.6404897052398
 30
0.0
 10
1075.406155206283
 20
121.6404897052398
 30
0.0
 10
1078.392996692583
 20
118.7121298795829
 30
0.0
 10
1078.392996692583
 20
111.8014822076996
 30
0.0
  0
SPLINE
  5
FE
330
1F
100
AcDbEntity
  8
0
  6
Continuous
 62
    22
420
 14759936
370
    18
100
AcDbSpline
210
0.0
220
0.0
230
1.0
 70
     8
 71
     3
 72
     8
 73
     4
 74
     0
 42
0.00000001
 43
0.00000001
 40
5.0
 40
5.0
 40
5.0
 40
5.0
 40
6.0
 40
6.0
 40
6.0
 40
6.0
 10
1069.842263299619
 20
112.1525401937231
 30
0.0
 10
1069.842263299619
 20
113.3826674850822
 30
0.0
 10
1068.788000166793
 20
114.0266368599208
 30
0.0
 10
1067.616773564729
 20
114.0266368599208
 30
0.0
  0
SPLINE
  5
FF
330
1F
100
AcDbEntity
  8
0
  6
Continuous
 62
    22
420
 14759936
370
    18
100
AcDbSpline
210
0.0
220
0.0
230
1.0
 70
     8
 71
     3
 72
     8
 73
     4
 74
     0
 42
0.00000001
 43
0.00000001
 40
6.0
 40
6.0
 40
6.0
 40
6.0
 40
7.0
 40
7.0
 40
7.0
 40
7.0
 10
1067.616773564729
 20
114.0266368599208
 30
0.0
 10
1066.094070061909
 20
114.0266368599208
 30
0.0
 10
1065.391200045119
 20
113.3826674850822
 30
0.0
 10
1065.391200045119
 20
111.0986121731526
 30
0.0
  0
SPLINE
  5
100
330
1F
100
AcDbEntity
  8
0
  6
Continuous
 62
    22
420
 14759936
370
    18
100
AcDbSpline
210
0.0
220
0.0
230
1.0
 70
     8
 71
     3
 72
     8
 73
     4
 74
     0
 42
0.00000001
 43
0.00000001
 40
8.0
 40
8.0
 40
8.0
 40
8.0
 40
9.0
 40
9.0
 40
9.0
 40
9.0
 10
1065.391200045119
 20
88.72633186624543
 30
0.0
 10
1065.391200045119
 20
86.44185763070553
 30
0.0
 10
1066.094070061909
 20
85.7979720405901
 30
0.0
 10
1067.616773564729
 20
85.7979720405901
 30
0.0
  0
SPLINE
  5
101
330
1F
100
AcDbEntity
  8
0
  6
Continuous
 62
    22
420
 14759936
370
    18
100
AcDbSpline
210
0.0
220
0.0
230
1.0
 70
     8
 71
     3
 72
     8
 73
     4
 74
     0
 42
0.00000001
 43
0.00000001
 40
9.0
 40
9.0
 40
9.0
 40
9.0
 40
10.0
 40
10.0
 40
10.0
 40
10.0
 10
1067.616773564729
 20
85.7979720405901
 30
0.0
 10
1068.788000166793
 20
85.7979720405901
 30
0.0
 10
1069.842263299619
 20
86.44185763070553
 30
0.0
 10
1069.842263299619
 20
87.67248763039848
 30
0.0
  0
SPLINE
  5
102
330
1F
100
AcDbEntity
  8
0
  6
Continuous
 62
    22
420
 14759936
370
    18
100
AcDbSpline
210
0.0
220
0.0
230
1.0
 70
     8
 71
     3
 72
     8
 73
     4
 74
     0
 42
0.00000001
 43
0.00000001
 40
13.0
 40
13.0
 40
13.0
 40
13.0
 40
14.0
 40
14.0
 40
14.0
 40
14.0
 10
1078.392996692583
 20
88.02346183169993
 30
0.0
 10
1078.392996692583
 20
81.11288118759347
 30
0.0
 10
1075.406155206283
 20
78.18451298346453
 30
0.0
 10
1067.616773564729
 20
78.18451298346453
 30
0.0
  0
SPLINE
  5
103
330
1F
100
AcDbEntity
  8
0
  6
Continuous
 62
    22
420
 14759936
370
    18
100
AcDbSpline
210
0.0
220
0.0
230
1.0
 70
     8
 71
     3
 72
     8
 73
     4
 74
     0
 42
0.00000001
 43
0.00000001
 40
14.0
 40
14.0
 40
14.0
 40
14.0
 40
15.0
 40
15.0
 40
15.0
 40
15.0
 10
1067.616773564729
 20
78.18451298346453
 30
0.0
 10
1059.827395066275
 20
78.18451298346453
 30
0.0
 10
1056.840550436876
 20
81.11288118759347
 30
0.0
 10
1056.840550436876
 20
88.02346183169993
 30
0.0
  0
SPLINE
  5
104
330
1F
100
AcDbEntity
  8
0
  6
Continuous
 62
    22
420
 14759936
370
    18
100
AcDbSpline
210
0.0
220
0.0
230
1.0
 70
     8
 71
     3
 72
     8
 73
     4
 74
     0
 42
0.00000001
 43
0.00000001
 40
2.0
 40
2.0
 40
2.0
 40
2.0
 40
3.0
 40
3.0
 40
3.0
 40
3.0
 10
1097.015910210528
 20
82.04973681583131
 30
0.0
 10
1095.259195984511
 20
79.47318903869811
 30
0.0
 10
1093.794974216312
 20
78.18451298346453
 30
0.0
 10
1090.105262713221
 20
78.18451298346453
 30
0.0
  0
SPLINE
  5
105
330
1F
100
AcDbEntity
  8
0
  6
Continuous
 62
    22
420
 14759936
370
    18
100
AcDbSpline
210
0.0
220
0.0
230
1.0
 70
     8
 71
     3
 72
     8
 73
     4
 74
     0
 42
0.00000001
 43
0.00000001
 40
3.0
 40
3.0
 40
3.0
 40
3.0
 40
4.0
 40
4.0
 40
4.0
 40
4.0
 10
1090.105262713221
 20
78.18451298346453
 30
0.0
 10
1085.127277354111
 20
78.18451298346453
 30
0.0
 10
1081.788958967056
 20
81.11288118759347
 30
0.0
 10
1081.788958967056
 20
86.44185763070553
 30
0.0
  0
SPLINE
  5
106
330
1F
100
AcDbEntity
  8
0
  6
Continuous
 62
    22
420
 14759936
370
    18
100
AcDbSpline
210
0.0
220
0.0
230
1.0
 70
     8
 71
     3
 72
     8
 73
     4
 74
     0
 42
0.00000001
 43
0.00000001
 40
5.0
 40
5.0
 40
5.0
 40
5.0
 40
6.0
 40
6.0
 40
6.0
 40
6.0
 10
1081.788958967056
 20
111.8014822076996
 30
0.0
 10
1081.788958967056
 20
118.7121298795829
 30
0.0
 10
1084.775884238075
 20
121.6404897052398
 30
0.0
 10
1092.56526587963
 20
121.6404897052398
 30
0.0
  0
SPLINE
  5
107
330
1F
100
AcDbEntity
  8
0
  6
Continuous
 62
    22
420
 14759936
370
    18
100
AcDbSpline
210
0.0
220
0.0
230
1.0
 70
     8
 71
     3
 72
     8
 73
     4
 74
     0
 42
0.00000001
 43
0.00000001
 40
6.0
 40
6.0
 40
6.0
 40
6.0
 40
7.0
 40
7.0
 40
7.0
 40
7.0
 10
1092.56526587963
 20
121.6404897052398
 30
0.0
 10
1100.823004106457
 20
121.6404897052398
 30
0.0
 10
1103.810264516356
 20
118.7121298795829
 30
0.0
 10
1103.810264516356
 20
111.8014822076996
 30
0.0
  0
SPLINE
  5
108
330
1F
100
AcDbEntity
  8
0
  6
Continuous
 62
    22
420
 14759936
370
    18
100
AcDbSpline
210
0.0
220
0.0
230
1.0
 70
     8
 71
     3
 72
     8
 73
     4
 74
     0
 42
0.00000001
 43
0.00000001
 40
10.0
 40
10.0
 40
10.0
 40
10.0
 40
11.0
 40
11.0
 40
11.0
 40
11.0
 10
1095.259195984511
 20
111.742581547992
 30
0.0
 10
1095.259195984511
 20
113.3826674850822
 30
0.0
 10
1094.556325967722
 20
114.0266368599208
 30
0.0
 10
1092.799611741705
 20
114.0266368599208
 30
0.0
  0
SPLINE
  5
109
330
1F
100
AcDbEntity
  8
0
  6
Continuous
 62
    22
420
 14759936
370
    18
100
AcDbSpline
210
0.0
220
0.0
230
1.0
 70
     8
 71
     3
 72
     8
 73
     4
 74
     0
 42
0.00000001
 43
0.00000001
 40
11.0
 40
11.0
 40
11.0
 40
11.0
 40
12.0
 40
12.0
 40
12.0
 40
12.0
 10
1092.799611741705
 20
114.0266368599208
 30
0.0
 10
1091.04256237681
 20
114.0266368599208
 30
0.0
 10
1090.339692360019
 20
113.3826674850822
 30
0.0
 10
1090.339692360019
 20
111.742581547992
 30
0.0
  0
SPLINE
  5
10A
330
1F
100
AcDbEntity
  8
0
  6
Continuous
 62
    22
420
 14759936
370
    18
100
AcDbSpline
210
0.0
220
0.0
230
1.0
 70
     8
 71
     3
 72
     8
 73
     4
 74
     0
 42
0.00000001
 43
0.00000001
 40
13.0
 40
13.0
 40
13.0
 40
13.0
 40
14.0
 40
14.0
 40
14.0
 40
14.0
 10
1090.339692360019
 20
88.08236249140705
 30
0.0
 10
1090.339692360019
 20
86.44185763070557
 30
0.0
 10
1091.04256237681
 20
85.79797204059012
 30
0.0
 10
1092.799611741705
 20
85.79797204059012
 30
0.0
  0
SPLINE
  5
10B
330
1F
100
AcDbEntity
  8
0
  6
Continuous
 62
    22
420
 14759936
370
    18
100
AcDbSpline
210
0.0
220
0.0
230
1.0
 70
     8
 71
     3
 72
     8
 73
     4
 74
     0
 42
0.00000001
 43
0.00000001
 40
14.0
 40
14.0
 40
14.0
 40
14.0
 40
15.0
 40
15.0
 40
15.0
 40
15.0
 10
1092.799611741705
 20
85.79797204059012
 30
0.0
 10
1094.556325967722
 20
85.79797204059012
 30
0.0
 10
1095.259195984511
 20
86.44185763070558
 30
0.0
 10
1095.259195984511
 20
88.08236249140707
 30
0.0
  0
SPLINE
  5
10C
330
1F
100
AcDbEntity
  8
0
  6
Continuous
 62
    22
420
 14759936
370
    18
100
AcDbSpline
210
0.0
220
0.0
230
1.0
 70
     8
 71
     3
 72
     8
 73
     4
 74
     0
 42
0.00000001
 43
0.00000001
 40
2.0
 40
2.0
 40
2.0
 40
2.0
 40
3.0
 40
3.0
 40
3.0
 40
3.0
 10
1119.035544704251
 20
120.8206561985002
 30
0.0
 10
1126.532010325565
 20
120.8206561985002
 30
0.0
 10
1129.87032871262
 20
118.94647574758
 30
0.0
 10
1129.87032871262
 20
112.2699225895267
 30
0.0
  0
SPLINE
  5
10D
330
1F
100
AcDbEntity
  8
0
  6
Continuous
 62
    22
420
 14759936
370
    18
100
AcDbSpline
210
0.0
220
0.0
230
1.0
 70
     8
 71
     3
 72
     8
 73
     4
 74
     0
 42
0.00000001
 43
0.00000001
 40
4.0
 40
4.0
 40
4.0
 40
4.0
 40
5.0
 40
5.0
 40
5.0
 40
5.0
 10
1129.87032871262
 20
107.2915181810491
 30
0.0
 10
1129.87032871262
 20
104.7734521400119
 30
0.0
 10
1128.816400718674
 20
101.6106626616356
 30
0.0
 10
1124.951244011727
 20
101.0252588076155
 30
0.0
  0
SPLINE
  5
10E
330
1F
100
AcDbEntity
  8
0
  6
Continuous
 62
    22
420
 14759936
370
    18
100
AcDbSpline
210
0.0
220
0.0
230
1.0
 70
     8
 71
     3
 72
     8
 73
     4
 74
     0
 42
0.00000001
 43
0.00000001
 40
6.0
 40
6.0
 40
6.0
 40
6.0
 40
7.0
 40
7.0
 40
7.0
 40
7.0
 10
1124.951244011727
 20
100.907876411812
 30
0.0
 10
1128.464588679039
 20
100.3223887730691
 30
0.0
 10
1130.104344354262
 20
97.9798517250437
 30
0.0
 10
1130.104344354262
 20
92.65005419165443
 30
0.0
  0
SPLINE
  5
10F
330
1F
100
AcDbEntity
  8
0
  6
Continuous
 62
    22
420
 14759936
370
    18
100
AcDbSpline
210
0.0
220
0.0
230
1.0
 70
     8
 71
     3
 72
     8
 73
     4
 74
     0
 42
0.00000001
 43
0.00000001
 40
8.0
 40
8.0
 40
8.0
 40
8.0
 40
9.0
 40
9.0
 40
9.0
 40
9.0
 10
1130.104344354262
 20
83.57242360017312
 30
0.0
 10
1130.104344354262
 20
80.35112725028496
 30
0.0
 10
1130.104344354262
 20
79.64829072962752
 30
0.0
 10
1130.690162198649
 20
79.00435486867708
 30
0.0
  0
SPLINE
  5
110
330
1F
100
AcDbEntity
  8
0
  6
Continuous
 62
    22
420
 14759936
370
    18
100
AcDbSpline
210
0.0
220
0.0
230
1.0
 70
     8
 71
     3
 72
     8
 73
     4
 74
     0
 42
0.00000001
 43
0.00000001
 40
10.0
 40
10.0
 40
10.0
 40
10.0
 40
11.0
 40
11.0
 40
11.0
 40
11.0
 10
1122.080947071066
 20
79.00435486867708
 30
0.0
 10
1121.72913503143
 20
79.64829072962752
 30
0.0
 10
1121.554024966453
 20
80.2341302642021
 30
0.0
 10
1121.554024966453
 20
80.70296443422482
 30
0.0
  0
SPLINE
  5
111
330
1F
100
AcDbEntity
  8
0
  6
Continuous
 62
    22
420
 14759936
370
    18
100
AcDbSpline
210
0.0
220
0.0
230
1.0
 70
     8
 71
     3
 72
     8
 73
     4
 74
     0
 42
0.00000001
 43
0.00000001
 40
12.0
 40
12.0
 40
12.0
 40
12.0
 40
13.0
 40
13.0
 40
13.0
 40
13.0
 10
1121.554024966453
 20
94.93410950358331
 30
0.0
 10
1121.554024966453
 20
96.3397657879542
 30
0.0
 10
1120.558243568247
 20
97.04263582250034
 30
0.0
 10
1118.80152934223
 20
97.04263582250034
 30
0.0
  0
SPLINE
  5
112
330
1F
100
AcDbEntity
  8
0
  6
Continuous
 62
    22
420
 14759936
370
    18
100
AcDbSpline
210
0.0
220
0.0
230
1.0
 70
     8
 71
     3
 72
     8
 73
     4
 74
     0
 42
0.00000001
 43
0.00000001
 40
1.0
 40
1.0
 40
1.0
 40
1.0
 40
2.0
 40
2.0
 40
2.0
 40
2.0
 10
1118.80152934223
 20
104.6560697442084
 30
0.0
 10
1120.616306379265
 20
104.6560697442084
 30
0.0
 10
1121.320014243257
 20
105.2418925218396
 30
0.0
 10
1121.320014243257
 20
108.9316041181396
 30
0.0
  0
SPLINE
  5
113
330
1F
100
AcDbEntity
  8
0
  6
Continuous
 62
    22
420
 14759936
370
    18
100
AcDbSpline
210
0.0
220
0.0
230
1.0
 70
     8
 71
     3
 72
     8
 73
     4
 74
     0
 42
0.00000001
 43
0.00000001
 40
2.0
 40
2.0
 40
2.0
 40
2.0
 40
3.0
 40
3.0
 40
3.0
 40
3.0
 10
1121.320014243257
 20
108.9316041181396
 30
0.0
 10
1121.320014243257
 20
112.3868860617199
 30
0.0
 10
1120.851159634353
 20
113.2068033531811
 30
0.0
 10
1118.80152934223
 20
113.2068033531811
 30
0.0
  0
SPLINE
  5
114
330
1F
100
AcDbEntity
  8
0
  6
Continuous
 62
    22
420
 14759936
370
    18
100
AcDbSpline
210
0.0
220
0.0
230
1.0
 70
     8
 71
     3
 72
     8
 73
     4
 74
     0
 42
0.00000001
 43
0.00000001
 40
2.0
 40
2.0
 40
2.0
 40
2.0
 40
3.0
 40
3.0
 40
3.0
 40
3.0
 10
1169.810420992274
 20
82.04973681583131
 30
0.0
 10
1168.053706766259
 20
79.47318903869811
 30
0.0
 10
1166.589149859177
 20
78.18451298346453
 30
0.0
 10
1162.89977349497
 20
78.18451298346453
 30
0.0
  0
SPLINE
  5
115
330
1F
100
AcDbEntity
  8
0
  6
Continuous
 62
    22
420
 14759936
370
    18
100
AcDbSpline
210
0.0
220
0.0
230
1.0
 70
     8
 71
     3
 72
     8
 73
     4
 74
     0
 42
0.00000001
 43
0.00000001
 40
3.0
 40
3.0
 40
3.0
 40
3.0
 40
4.0
 40
4.0
 40
4.0
 40
4.0
 10
1162.89977349497
 20
78.18451298346453
 30
0.0
 10
1157.921788135856
 20
78.18451298346453
 30
0.0
 10
1154.583553533521
 20
81.11288118759347
 30
0.0
 10
1154.583553533521
 20
86.44185763070553
 30
0.0
  0
SPLINE
  5
116
330
1F
100
AcDbEntity
  8
0
  6
Continuous
 62
    22
420
 14759936
370
    18
100
AcDbSpline
210
0.0
220
0.0
230
1.0
 70
     8
 71
     3
 72
     8
 73
     4
 74
     0
 42
0.00000001
 43
0.00000001
 40
5.0
 40
5.0
 40
5.0
 40
5.0
 40
6.0
 40
6.0
 40
6.0
 40
6.0
 10
1154.583553533521
 20
111.8014822076996
 30
0.0
 10
1154.583553533521
 20
118.7121298795829
 30
0.0
 10
1157.56997609622
 20
121.6404897052398
 30
0.0
 10
1165.359357737775
 20
121.6404897052398
 30
0.0
  0
SPLINE
  5
117
330
1F
100
AcDbEntity
  8
0
  6
Continuous
 62
    22
420
 14759936
370
    18
100
AcDbSpline
210
0.0
220
0.0
230
1.0
 70
     8
 71
     3
 72
     8
 73
     4
 74
     0
 42
0.00000001
 43
0.00000001
 40
6.0
 40
6.0
 40
6.0
 40
6.0
 40
7.0
 40
7.0
 40
7.0
 40
7.0
 10
1165.359357737775
 20
121.6404897052398
 30
0.0
 10
1173.617514888203
 20
121.6404897052398
 30
0.0
 10
1176.604027328748
 20
118.7121298795829
 30
0.0
 10
1176.604027328748
 20
111.8014822076996
 30
0.0
  0
SPLINE
  5
118
330
1F
100
AcDbEntity
  8
0
  6
Continuous
 62
    22
420
 14759936
370
    18
100
AcDbSpline
210
0.0
220
0.0
230
1.0
 70
     8
 71
     3
 72
     8
 73
     4
 74
     0
 42
0.00000001
 43
0.00000001
 40
10.0
 40
10.0
 40
10.0
 40
10.0
 40
11.0
 40
11.0
 40
11.0
 40
11.0
 10
1168.053706766259
 20
111.742581547992
 30
0.0
 10
1168.053706766259
 20
113.3826674850822
 30
0.0
 10
1167.350842608839
 20
114.0266368599208
 30
0.0
 10
1165.59336846097
 20
114.0266368599208
 30
0.0
  0
SPLINE
  5
119
330
1F
100
AcDbEntity
  8
0
  6
Continuous
 62
    22
420
 14759936
370
    18
100
AcDbSpline
210
0.0
220
0.0
230
1.0
 70
     8
 71
     3
 72
     8
 73
     4
 74
     0
 42
0.00000001
 43
0.00000001
 40
11.0
 40
11.0
 40
11.0
 40
11.0
 40
12.0
 40
12.0
 40
12.0
 40
12.0
 10
1165.59336846097
 20
114.0266368599208
 30
0.0
 10
1163.836654234955
 20
114.0266368599208
 30
0.0
 10
1163.133784218164
 20
113.3826674850822
 30
0.0
 10
1163.133784218164
 20
111.742581547992
 30
0.0
  0
SPLINE
  5
11A
330
1F
100
AcDbEntity
  8
0
  6
Continuous
 62
    22
420
 14759936
370
    18
100
AcDbSpline
210
0.0
220
0.0
230
1.0
 70
     8
 71
     3
 72
     8
 73
     4
 74
     0
 42
0.00000001
 43
0.00000001
 40
13.0
 40
13.0
 40
13.0
 40
13.0
 40
14.0
 40
14.0
 40
14.0
 40
14.0
 10
1163.133784218164
 20
88.08236249140704
 30
0.0
 10
1163.133784218164
 20
86.44185763070553
 30
0.0
 10
1163.836654234955
 20
85.7979720405901
 30
0.0
 10
1165.59336846097
 20
85.7979720405901
 30
0.0
  0
SPLINE
  5
11B
330
1F
100
AcDbEntity
  8
0
  6
Continuous
 62
    22
420
 14759936
370
    18
100
AcDbSpline
210
0.0
220
0.0
230
1.0
 70
     8
 71
     3
 72
     8
 73
     4
 74
     0
 42
0.00000001
 43
0.00000001
 40
14.0
 40
14.0
 40
14.0
 40
14.0
 40
15.0
 40
15.0
 40
15.0
 40
15.0
 10
1165.59336846097
 20
85.7979720405901
 30
0.0
 10
1167.350842608839
 20
85.7979720405901
 30
0.0
 10
1168.053706766259
 20
86.44185763070553
 30
0.0
 10
1168.053706766259
 20
88.08236249140704
 30
0.0
  0
SPLINE
  5
11C
330
1F
100
AcDbEntity
  8
0
  6
Continuous
 62
    22
420
 14759936
370
    18
100
AcDbSpline
210
0.0
220
0.0
230
1.0
 70
     8
 71
     3
 72
     8
 73
     4
 74
     0
 42
0.00000001
 43
0.00000001
 40
0.0
 40
0.0
 40
0.0
 40
0.0
 40
1.0
 40
1.0
 40
1.0
 40
1.0
 10
1180.29247596791
 20
111.8014822076996
 30
0.0
 10
1180.29247596791
 20
119.6489268585152
 30
0.0
 10
1183.805904419941
 20
121.6404897052398
 30
0.0
 10
1191.30229089536
 20
121.6404897052398
 30
0.0
  0
SPLINE
  5
11D
330
1F
100
AcDbEntity
  8
0
  6
Continuous
 62
    22
420
 14759936
370
    18
100
AcDbSpline
210
0.0
220
0.0
230
1.0
 70
     8
 71
     3
 72
     8
 73
     4
 74
     0
 42
0.00000001
 43
0.00000001
 40
1.0
 40
1.0
 40
1.0
 40
1.0
 40
2.0
 40
2.0
 40
2.0
 40
2.0
 10
1191.30229089536
 20
121.6404897052398
 30
0.0
 10
1198.798761155497
 20
121.6404897052398
 30
0.0
 10
1202.312943670011
 20
119.6489268585152
 30
0.0
 10
1202.312943670011
 20
111.8014822076996
 30
0.0
  0
SPLINE
  5
11E
330
1F
100
AcDbEntity
  8
0
  6
Continuous
 62
    22
420
 14759936
370
    18
100
AcDbSpline
210
0.0
220
0.0
230
1.0
 70
     8
 71
     3
 72
     8
 73
     4
 74
     0
 42
0.00000001
 43
0.00000001
 40
3.0
 40
3.0
 40
3.0
 40
3.0
 40
4.0
 40
4.0
 40
4.0
 40
4.0
 10
1202.312943670011
 20
88.02346183169993
 30
0.0
 10
1202.312943670011
 20
80.17603393782773
 30
0.0
 10
1198.798761155497
 20
78.18451298346453
 30
0.0
 10
1191.30229089536
 20
78.18451298346453
 30
0.0
  0
SPLINE
  5
11F
330
1F
100
AcDbEntity
  8
0
  6
Continuous
 62
    22
420
 14759936
370
    18
100
AcDbSpline
210
0.0
220
0.0
230
1.0
 70
     8
 71
     3
 72
     8
 73
     4
 74
     0
 42
0.00000001
 43
0.00000001
 40
4.0
 40
4.0
 40
4.0
 40
4.0
 40
5.0
 40
5.0
 40
5.0
 40
5.0
 10
1191.30229089536
 20
78.18451298346453
 30
0.0
 10
1183.805904419941
 20
78.18451298346453
 30
0.0
 10
1180.29247596791
 20
80.17603393782773
 30
0.0
 10
1180.29247596791
 20
88.02346183169993
 30
0.0
  0
SPLINE
  5
120
330
1F
100
AcDbEntity
  8
0
  6
Continuous
 62
    22
420
 14759936
370
    18
100
AcDbSpline
210
0.0
220
0.0
230
1.0
 70
     8
 71
     3
 72
     8
 73
     4
 74
     0
 42
0.00000001
 43
0.00000001
 40
0.0
 40
0.0
 40
0.0
 40
0.0
 40
1.0
 40
1.0
 40
1.0
 40
1.0
 10
1188.842790437273
 20
88.08236249140704
 30
0.0
 10
1188.842790437273
 20
86.44185763070553
 30
0.0
 10
1189.545660454064
 20
85.7979720405901
 30
0.0
 10
1191.30229089536
 20
85.7979720405901
 30
0.0
  0
SPLINE
  5
121
330
1F
100
AcDbEntity
  8
0
  6
Continuous
 62
    22
420
 14759936
370
    18
100
AcDbSpline
210
0.0
220
0.0
230
1.0
 70
     8
 71
     3
 72
     8
 73
     4
 74
     0
 42
0.00000001
 43
0.00000001
 40
1.0
 40
1.0
 40
1.0
 40
1.0
 40
2.0
 40
2.0
 40
2.0
 40
2.0
 10
1191.30229089536
 20
85.7979720405901
 30
0.0
 10
1193.059842968576
 20
85.7979720405901
 30
0.0
 10
1193.762712985367
 20
86.44185763070553
 30
0.0
 10
1193.762712985367
 20
88.08236249140704
 30
0.0
  0
SPLINE
  5
122
330
1F
100
AcDbEntity
  8
0
  6
Continuous
 62
    22
420
 14759936
370
    18
100
AcDbSpline
210
0.0
220
0.0
230
1.0
 70
     8
 71
     3
 72
     8
 73
     4
 74
     0
 42
0.00000001
 43
0.00000001
 40
3.0
 40
3.0
 40
3.0
 40
3.0
 40
4.0
 40
4.0
 40
4.0
 40
4.0
 10
1193.762712985367
 20
111.742581547992
 30
0.0
 10
1193.762712985367
 20
113.3826674850822
 30
0.0
 10
1193.059842968576
 20
114.0266368599208
 30
0.0
 10
1191.30229089536
 20
114.0266368599208
 30
0.0
  0
SPLINE
  5
123
330
1F
100
AcDbEntity
  8
0
  6
Continuous
 62
    22
420
 14759936
370
    18
100
AcDbSpline
210
0.0
220
0.0
230
1.0
 70
     8
 71
     3
 72
     8
 73
     4
 74
     0
 42
0.00000001
 43
0.00000001
 40
4.0
 40
4.0
 40
4.0
 40
4.0
 40
5.0
 40
5.0
 40
5.0
 40
5.0
 10
1191.30229089536
 20
114.0266368599208
 30
0.0
 10
1189.545660454064
 20
114.0266368599208
 30
0.0
 10
1188.842790437273
 20
113.3826674850822
 30
0.0
 10
1188.842790437273
 20
111.742581547992
 30
0.0
  0
SPLINE
  5
124
330
1F
100
AcDbEntity
  8
0
  6
Continuous
 62
    22
420
 14759936
370
    18
100
AcDbSpline
210
0.0
220
0.0
230
1.0
 70
     8
 71
     3
 72
     8
 73
     4
 74
     0
 42
0.00000001
 43
0.00000001
 40
2.0
 40
2.0
 40
2.0
 40
2.0
 40
3.0
 40
3.0
 40
3.0
 40
3.0
 10
1217.246983532067
 20
120.8206561985002
 30
0.0
 10
1224.743377316713
 20
120.8206561985002
 30
0.0
 10
1228.081688394539
 20
118.94647574758
 30
0.0
 10
1228.081688394539
 20
112.2699225895267
 30
0.0
  0
SPLINE
  5
125
330
1F
100
AcDbEntity
  8
0
  6
Continuous
 62
    22
420
 14759936
370
    18
100
AcDbSpline
210
0.0
220
0.0
230
1.0
 70
     8
 71
     3
 72
     8
 73
     4
 74
     0
 42
0.00000001
 43
0.00000001
 40
4.0
 40
4.0
 40
4.0
 40
4.0
 40
5.0
 40
5.0
 40
5.0
 40
5.0
 10
1228.081688394539
 20
107.2915181810491
 30
0.0
 10
1228.081688394539
 20
104.7734521400119
 30
0.0
 10
1227.027006338114
 20
101.6106626616356
 30
0.0
 10
1223.161765846446
 20
101.0252588076155
 30
0.0
  0
SPLINE
  5
126
330
1F
100
AcDbEntity
  8
0
  6
Continuous
 62
    22
420
 14759936
370
    18
100
AcDbSpline
210
0.0
220
0.0
230
1.0
 70
     8
 71
     3
 72
     8
 73
     4
 74
     0
 42
0.00000001
 43
0.00000001
 40
6.0
 40
6.0
 40
6.0
 40
6.0
 40
7.0
 40
7.0
 40
7.0
 40
7.0
 10
1223.161765846446
 20
100.907876411812
 30
0.0
 10
1226.676032145678
 20
100.3223887730694
 30
0.0
 10
1228.315699117733
 20
97.9798517250441
 30
0.0
 10
1228.315699117737
 20
92.65005419165482
 30
0.0
  0
SPLINE
  5
127
330
1F
100
AcDbEntity
  8
0
  6
Continuous
 62
    22
420
 14759936
370
    18
100
AcDbSpline
210
0.0
220
0.0
230
1.0
 70
     8
 71
     3
 72
     8
 73
     4
 74
     0
 42
0.00000001
 43
0.00000001
 40
8.0
 40
8.0
 40
8.0
 40
8.0
 40
9.0
 40
9.0
 40
9.0
 40
9.0
 10
1228.315699117737
 20
83.57242360017314
 30
0.0
 10
1228.315699117736
 20
80.35112725028497
 30
0.0
 10
1228.315699117736
 20
79.64829072962752
 30
0.0
 10
1228.901521880568
 20
79.00435486867691
 30
0.0
  0
SPLINE
  5
128
330
1F
100
AcDbEntity
  8
0
  6
Continuous
 62
    22
420
 14759936
370
    18
100
AcDbSpline
210
0.0
220
0.0
230
1.0
 70
     8
 71
     3
 72
     8
 73
     4
 74
     0
 42
0.00000001
 43
0.00000001
 40
10.0
 40
10.0
 40
10.0
 40
10.0
 40
11.0
 40
11.0
 40
11.0
 40
11.0
 10
1220.292306752985
 20
79.00435486867694
 30
0.0
 10
1219.940494713353
 20
79.64829072962749
 30
0.0
 10
1219.764546801173
 20
80.23413026420205
 30
0.0
 10
1219.76454680117
 20
80.70296443422475
 30
0.0
  0
SPLINE
  5
129
330
1F
100
AcDbEntity
  8
0
  6
Continuous
 62
    22
420
 14759936
370
    18
100
AcDbSpline
210
0.0
220
0.0
230
1.0
 70
     8
 71
     3
 72
     8
 73
     4
 74
     0
 42
0.00000001
 43
0.00000001
 40
12.0
 40
12.0
 40
12.0
 40
12.0
 40
13.0
 40
13.0
 40
13.0
 40
13.0
 10
1219.76454680117
 20
94.93410950358331
 30
0.0
 10
1219.764546801169
 20
96.3397657879542
 30
0.0
 10
1218.769603250166
 20
97.04263582250023
 30
0.0
 10
1217.012134961669
 20
97.04263582250006
 30
0.0
  0
SPLINE
  5
12A
330
1F
100
AcDbEntity
  8
0
  6
Continuous
 62
    22
420
 14759936
370
    18
100
AcDbSpline
210
0.0
220
0.0
230
1.0
 70
     8
 71
     3
 72
     8
 73
     4
 74
     0
 42
0.00000001
 43
0.00000001
 40
1.0
 40
1.0
 40
1.0
 40
1.0
 40
2.0
 40
2.0
 40
2.0
 40
2.0
 10
1217.012134961669
 20
104.6560697442084
 30
0.0
 10
1218.827749845905
 20
104.6560697442086
 30
0.0
 10
1219.5306198627
 20
105.2418925218399
 30
0.0
 10
1219.530619862696
 20
108.9316041181398
 30
0.0
  0
SPLINE
  5
12B
330
1F
100
AcDbEntity
  8
0
  6
Continuous
 62
    22
420
 14759936
370
    18
100
AcDbSpline
210
0.0
220
0.0
230
1.0
 70
     8
 71
     3
 72
     8
 73
     4
 74
     0
 42
0.00000001
 43
0.00000001
 40
2.0
 40
2.0
 40
2.0
 40
2.0
 40
3.0
 40
3.0
 40
3.0
 40
3.0
 10
1219.530619862696
 20
108.9316041181398
 30
0.0
 10
1219.530619862696
 20
112.3868860617201
 30
0.0
 10
1219.061760569102
 20
113.2068033531812
 30
0.0
 10
1217.012134961669
 20
113.2068033531812
 30
0.0
  0
SPLINE
  5
12C
330
1F
100
AcDbEntity
  8
0
  6
Continuous
 62
    22
420
 14759936
370
    18
100
AcDbSpline
210
0.0
220
0.0
230
1.0
 70
     8
 71
     3
 72
     8
 73
     4
 74
     0
 42
0.00000001
 43
0.00000001
 40
0.0
 40
0.0
 40
0.0
 40
0.0
 40
1.0
 40
1.0
 40
1.0
 40
1.0
 10
1041.974017486748
 20
121.6420566595513
 30
0.0
 10
1034.446586127748
 20
121.6420566595513
 30
0.0
 10
1030.954413950989
 20
119.7156319341823
 30
0.0
 10
1030.954413950989
 20
111.8342223970359
 30
0.0
  0
SPLINE
  5
12D
330
1F
100
AcDbEntity
  8
0
  6
Continuous
 62
    22
420
 14759936
370
    18
100
AcDbSpline
210
0.0
220
0.0
230
1.0
 70
     8
 71
     3
 72
     8
 73
     4
 74
     0
 42
0.00000001
 43
0.00000001
 40
9.0
 40
9.0
 40
9.0
 40
9.0
 40
10.0
 40
10.0
 40
10.0
 40
10.0
 10
1053.024815285533
 20
111.8342223970359
 30
0.0
 10
1053.024815285533
 20
119.7156319341823
 30
0.0
 10
1049.4705102734
 20
121.6420566595513
 30
0.0
 10
1041.974017486748
 20
121.6420566595513
 30
0.0
  0
SPLINE
  5
12E
330
1F
100
AcDbEntity
  8
0
  6
Continuous
 62
    22
420
 14759936
370
    18
100
AcDbSpline
210
0.0
220
0.0
230
1.0
 70
     8
 71
     3
 72
     8
 73
     4
 74
     0
 42
0.00000001
 43
0.00000001
 40
2.0
 40
2.0
 40
2.0
 40
2.0
 40
3.0
 40
3.0
 40
3.0
 40
3.0
 10
1039.504761446579
 20
110.5692694622394
 30
0.0
 10
1039.504761446579
 20
113.4895127247539
 30
0.0
 10
1040.200137821392
 20
114.0592938372821
 30
0.0
 10
1041.974017486748
 20
114.0592938372821
 30
0.0
  0
SPLINE
  5
12F
330
1F
100
AcDbEntity
  8
0
  6
Continuous
 62
    22
420
 14759936
370
    18
100
AcDbSpline
210
0.0
220
0.0
230
1.0
 70
     8
 71
     3
 72
     8
 73
     4
 74
     0
 42
0.00000001
 43
0.00000001
 40
3.0
 40
3.0
 40
3.0
 40
3.0
 40
4.0
 40
4.0
 40
4.0
 40
4.0
 10
1041.974017486748
 20
114.0592938372821
 30
0.0
 10
1043.720129144195
 20
114.0592938372821
 30
0.0
 10
1044.413920236789
 20
113.4895127247539
 30
0.0
 10
1044.413920236789
 20
110.5692694622394
 30
0.0
  0
INSERT
  5
139
330
1F
100
AcDbEntity
  8
AM_6
100
AcDbBlockReference
  2
SW_NOTE_0
 10
26.4240521621
 20
24.9125055336
 30
0.0
  0
MTEXT
  5
13B
330
1F
100
AcDbEntity
  8
AM_6
100
AcDbMText
 10
2002.5045651951
 20
59.3663791456
 30
0.0
 40
15.23995
 41
0.0
 46
0.0
 71
     2
 72
     1
  1
1/1
  7
SLDTEXTSTYLE1
 73
     1
 44
1.0
  0
MTEXT
  5
13C
330
1F
100
AcDbEntity
  8
AM_6
100
AcDbMText
 10
1277.0651371438
 20
200.5815630503
 30
0.0
 40
17.5
 41
0.0
 46
0.0
 71
     1
 72
     1
  1
HOLD-DOWN ASSEMBLY
  7
SLDTEXTSTYLE1
 73
     1
 44
1.0
  0
MTEXT
  5
13D
330
1F
100
AcDbEntity
  8
AM_6
100
AcDbMText
 10
1277.2622002934
 20
166.1260908035
 30
0.0
 40
17.5
 41
0.0
 46
0.0
 71
     1
 72
     1
  1
ON TRANSVERSAL COAMING, RIGHT
  7
SLDTEXTSTYLE1
 73
     1
 44
1.0
  0
MTEXT
  5
13F
330
1F
100
AcDbEntity
  8
AM_6
100
AcDbMText
 10
1440.9694172479
 20
67.9943745539
 30
0.0
 40
23.8125
 41
0.0
 46
0.0
 71
     1
 72
     1
  1
1271071WD - 4201
  7
SLDTEXTSTYLE2
 73
     1
 44
1.0
  0
MTEXT
  5
140
330
1F
100
AcDbEntity
  8
AM_6
100
AcDbMText
 10
2055.0389108835
 20
61.5440862152
 30
0.0
 40
15.23995
 41
0.0
 46
0.0
 71
     2
 72
     1
  1
A
  7
SLDTEXTSTYLE1
 73
     1
 44
1.0
  0
MTEXT
  5
142
330
1F
100
AcDbEntity
  8
AM_6
100
AcDbMText
 10
1908.7517767722
 20
160.0496818342
 30
0.0
 40
10.0
 41
0.0
 46
0.0
 71
     1
 72
     1
  1
DRAWN
  7
SLDTEXTSTYLE3
 73
     1
 44
1.0
  0
MTEXT
  5
143
330
1F
100
AcDbEntity
  8
AM_6
100
AcDbMText
 10
1908.7517767722
 20
123.9938171838
 30
0.0
 40
10.0
 41
0.0
 46
0.0
 71
     1
 72
     1
  1
DATE
  7
SLDTEXTSTYLE3
 73
     1
 44
1.0
  0
MTEXT
  5
145
330
1F
100
AcDbEntity
  8
AM_6
100
AcDbMText
 10
965.4344045065
 20
276.3891150736
 30
0.0
 40
9.0
 41
0.0
 46
0.0
 71
     1
 72
     1
  1
Existing law protects MacGREGOR's right of
  7
SLDTEXTSTYLE4
 73
     1
 44
1.0
  0
MTEXT
  5
146
330
1F
100
AcDbEntity
  8
AM_6
100
AcDbMText
 10
965.4344045065
 20
258.3891150736
 30
0.0
 40
9.0
 41
0.0
 46
0.0
 71
     1
 72
     1
  1
possession to this drawing. The design or
  7
SLDTEXTSTYLE4
 73
     1
 44
1.0
  0
MTEXT
  5
147
330
1F
100
AcDbEntity
  8
AM_6
100
AcDbMText
 10
965.4344045065
 20
240.3891150736
 30
0.0
 40
9.0
 41
0.0
 46
0.0
 71
     1
 72
     1
  1
the drawing must not, without permission of
  7
SLDTEXTSTYLE4
 73
     1
 44
1.0
  0
MTEXT
  5
148
330
1F
100
AcDbEntity
  8
AM_6
100
AcDbMText
 10
965.4344045065
 20
222.3891150736
 30
0.0
 40
9.0
 41
0.0
 46
0.0
 71
     1
 72
     1
  1
the company, be published, copied,
  7
SLDTEXTSTYLE4
 73
     1
 44
1.0
  0
MTEXT
  5
149
330
1F
100
AcDbEntity
  8
AM_6
100
AcDbMText
 10
965.4344045065
 20
204.3891150736
 30
0.0
 40
9.0
 41
0.0
 46
0.0
 71
     1
 72
     1
  1
reproduced, manufactured or exploited in
  7
SLDTEXTSTYLE4
 73
     1
 44
1.0
  0
MTEXT
  5
14A
330
1F
100
AcDbEntity
  8
AM_6
100
AcDbMText
 10
965.4344045065
 20
186.3891150736
 30
0.0
 40
9.0
 41
0.0
 46
0.0
 71
     1
 72
     1
  1
any other unauthorized way.
  7
SLDTEXTSTYLE4
 73
     1
 44
1.0
  0
MTEXT
  5
14B
330
1F
100
AcDbEntity
  8
AM_6
100
AcDbMText
 10
1279.9188295117
 20
94.8930134492
 30
0.0
 40
7.5
 41
0.0
 46
0.0
 71
     1
 72
     1
  1
TOLERANCE SYSTEM
  7
SLDTEXTSTYLE3
 73
     1
 44
1.0
  0
MTEXT
  5
14C
330
1F
100
AcDbEntity
  8
AM_6
100
AcDbMText
 10
1287.2860305443
 20
82.3800192113
 30
0.0
 40
12.5
 41
0.0
 46
0.0
 71
     1
 72
     1
  1
MGH 10730
  7
SLDTEXTSTYLE3
 73
     1
 44
1.0
  0
MTEXT
  5
14D
330
1F
100
AcDbEntity
  8
AM_6
100
AcDbMText
 10
1443.7772184813
 20
95.3574222239
 30
0.0
 40
10.0
 41
0.0
 46
0.0
 71
     1
 72
     1
  1
DWG NO
  7
SLDTEXTSTYLE3
 73
     1
 44
1.0
  0
MTEXT
  5
14E
330
1F
100
AcDbEntity
  8
AM_6
100
AcDbMText
 10
1908.7517767722
 20
232.3042134144
 30
0.0
 40
10.0
 41
0.0
 46
0.0
 71
     1
 72
     1
  1
SCALE
  7
SLDTEXTSTYLE3
 73
     1
 44
1.0
  0
MTEXT
  5
14F
330
1F
100
AcDbEntity
  8
AM_6
100
AcDbMText
 10
1908.7517767722
 20
268.0345820005
 30
0.0
 40
10.16
 41
0.0
 46
0.0
 71
     1
 72
     1
  1
MASS
  7
SLDTEXTSTYLE3
 73
     1
 44
1.0
  0
MTEXT
  5
150
330
1F
100
AcDbEntity
  8
AM_6
100
AcDbMText
 10
1908.7517767722
 20
196.148999921
 30
0.0
 40
10.0
 41
0.0
 46
0.0
 71
     1
 72
     1
  1
STATUS
  7
SLDTEXTSTYLE3
 73
     1
 44
1.0
  0
MTEXT
  5
151
330
1F
100
AcDbEntity
  8
AM_6
100
AcDbMText
 10
1973.799165094
 20
95.5454753288
 30
0.0
 40
10.16
 41
0.0
 46
0.0
 71
     1
 72
     1
  1
SHEET
  7
SLDTEXTSTYLE3
 73
     1
 44
1.0
  0
MTEXT
  5
152
330
1F
100
AcDbEntity
  8
AM_6
100
AcDbMText
 10
2039.2561847229
 20
95.5170062343
 30
0.0
 40
10.16
 41
0.0
 46
0.0
 71
     1
 72
     1
  1
ED
  7
SLDTEXTSTYLE3
 73
     1
 44
1.0
  0
MTEXT
  5
154
330
1F
100
AcDbEntity
  8
AM_6
100
AcDbMText
 10
1971.9204885255
 20
163.1921655579
 30
0.0
 40
13.2291666667
 41
0.0
 46
0.0
 71
     1
 72
     1
  1
koskeju
  7
SLDTEXTSTYLE5
 73
     1
 44
1.0
  0
MTEXT
  5
155
330
1F
100
AcDbEntity
  8
AM_6
100
AcDbMText
 10
1972.2640080616
 20
127.4489571151
 30
0.0
 40
15.0
 41
0.0
 46
0.0
 71
     1
 72
     1
  1
2026-04-21
  7
SLDTEXTSTYLE0
 73
     1
 44
1.0
  0
MTEXT
  5
156
330
1F
100
AcDbEntity
  8
AM_6
100
AcDbMText
 10
1972.115014333
 20
198.0852864189
 30
0.0
 40
13.2291666667
 41
0.0
 46
0.0
 71
     1
 72
     1
  1
PRELIMINARY
  7
SLDTEXTSTYLE0
 73
     1
 44
1.0
  0
MTEXT
  5
157
330
1F
100
AcDbEntity
  8
AM_6
100
AcDbMText
 10
1360.8693605237
 20
51.7464553726
 30
0.0
 40
12.5
 41
0.0
 46
0.0
 71
     1
 72
     1
  1
A3
  7
SLDTEXTSTYLE3
 73
     1
 44
1.0
  0
MTEXT
  5
158
330
1F
100
AcDbEntity
  8
AM_6
100
AcDbMText
 10
1972.2639608449
 20
272.2408091694
 30
0.0
 40
15.875
 41
0.0
 46
0.0
 71
     1
 72
     1
  1
58.8
  7
SLDTEXTSTYLE0
 73
     1
 44
1.0
  0
MTEXT
  5
159
330
1F
100
AcDbEntity
  8
AM_6
100
AcDbMText
 10
1972.2634758956
 20
235.6243440707
 30
0.0
 40
15.875
 41
0.0
 46
0.0
 71
     1
 72
     1
  1
1:5
  7
SLDTEXTSTYLE0
 73
     1
 44
1.0
  0
INSERT
  5
175
330
1F
100
AcDbEntity
  8
AM_0
100
AcDbBlockReference
  2
SW_TABLEANNOTATION_0
 10
933.0367667596
 20
1460.005464201
 30
0.0
  0
INSERT
  5
1DC
330
1F
100
AcDbEntity
  8
AM_0
100
AcDbBlockReference
  2
SW_TABLEANNOTATION_1
 10
957.5205008081
 20
315.3625055336
 30
0.0
  0
LINE
  5
1DD
330
1F
100
AcDbEntity
  8
AM_0
100
AcDbLine
 10
790.467889755
 20
1163.6470964679
 30
0.0
 11
765.467889755
 21
1163.6470964679
 31
0.0
  0
LINE
  5
1DE
330
1F
100
AcDbEntity
  8
AM_0
100
AcDbLine
 10
765.467889755
 20
1153.6470964679
 30
0.0
 11
790.467889755
 21
1153.6470964679
 31
0.0
  0
LINE
  5
1DF
330
1F
100
AcDbEntity
  8
AM_0
100
AcDbLine
 10
905.467889755
 20
1153.6470964679
 30
0.0
 11
940.467889755
 21
1153.6470964679
 31
0.0
  0
LINE
  5
1E0
330
1F
100
AcDbEntity
  8
AM_0
100
AcDbLine
 10
790.467889755
 20
1153.6470964679
 30
0.0
 11
905.467889755
 21
1153.6470964679
 31
0.0
  0
LINE
  5
1E1
330
1F
100
AcDbEntity
  8
AM_0
100
AcDbLine
 10
905.467889755
 20
1163.6470964679
 30
0.0
 11
790.467889755
 21
1163.6470964679
 31
0.0
  0
LINE
  5
1E2
330
1F
100
AcDbEntity
  8
AM_0
100
AcDbLine
 10
940.467889755
 20
1163.6470964679
 30
0.0
 11
905.467889755
 21
1163.6470964679
 31
0.0
  0
LINE
  5
1E3
330
1F
100
AcDbEntity
  8
AM_0
100
AcDbLine
 10
965.467889755
 20
1163.6470964679
 30
0.0
 11
940.467889755
 21
1163.6470964679
 31
0.0
  0
LINE
  5
1E4
330
1F
100
AcDbEntity
  8
AM_0
100
AcDbLine
 10
940.467889755
 20
1153.6470964679
 30
0.0
 11
965.467889755
 21
1153.6470964679
 31
0.0
  0
ARC
  5
1E5
330
1F
100
AcDbEntity
  8
AM_0
100
AcDbCircle
 10
765.467889755
 20
1158.6470964679
 30
0.0
 40
5.0
100
AcDbArc
 50
90.0
 51
270.0
  0
ARC
  5
1E6
330
1F
100
AcDbEntity
  8
AM_0
100
AcDbCircle
 10
965.467889755
 20
1158.6470964679
 30
0.0
 40
5.0
100
AcDbArc
 50
270.0
 51
90.0
  0
LINE
  5
1E7
330
1F
100
AcDbEntity
  8
AM_0
100
AcDbLine
 10
530.467889755
 20
1093.6470964679
 30
0.0
 11
530.467889755
 21
1173.6470964679
 31
0.0
  0
LINE
  5
1E8
330
1F
100
AcDbEntity
  8
AM_0
100
AcDbLine
 10
530.467889755
 20
1173.6470964679
 30
0.0
 11
540.467889755
 21
1183.6470964679
 31
0.0
  0
LINE
  5
1E9
330
1F
100
AcDbEntity
  8
AM_0
100
AcDbLine
 10
540.467889755
 20
1183.6470964679
 30
0.0
 11
540.467889755
 21
1083.6470964679
 31
0.0
  0
LINE
  5
1EA
330
1F
100
AcDbEntity
  8
AM_0
100
AcDbLine
 10
530.467889755
 20
1093.6470964679
 30
0.0
 11
540.467889755
 21
1083.6470964679
 31
0.0
  0
LINE
  5
1EB
330
1F
100
AcDbEntity
  8
AM_0
100
AcDbLine
 10
780.467889755
 20
1119.6470964679
 30
0.0
 11
780.467889755
 21
1153.6470964679
 31
0.0
  0
LINE
  5
1EC
330
1F
100
AcDbEntity
  8
AM_0
100
AcDbLine
 10
780.467889755
 20
1163.6470964679
 30
0.0
 11
780.467889755
 21
1183.6470964679
 31
0.0
  0
LINE
  5
1ED
330
1F
100
AcDbEntity
  8
AM_0
100
AcDbLine
 10
540.467889755
 20
1083.6470964679
 30
0.0
 11
555.467889755
 21
1083.6470964679
 31
0.0
  0
LINE
  5
1EE
330
1F
100
AcDbEntity
  8
AM_0
100
AcDbLine
 10
585.467889755
 20
1083.6470964679
 30
0.0
 11
723.467889755
 21
1083.6470964679
 31
0.0
  0
LINE
  5
1EF
330
1F
100
AcDbEntity
  8
AM_0
100
AcDbLine
 10
780.467889755
 20
1183.6470964679
 30
0.0
 11
753.467889755
 21
1183.6470964679
 31
0.0
  0
LINE
  5
1F0
330
1F
100
AcDbEntity
  8
AM_0
100
AcDbLine
 10
723.467889755
 20
1183.6470964679
 30
0.0
 11
585.467889755
 21
1183.6470964679
 31
0.0
  0
LINE
  5
1F1
330
1F
100
AcDbEntity
  8
AM_0
100
AcDbLine
 10
555.467889755
 20
1183.6470964679
 30
0.0
 11
540.467889755
 21
1183.6470964679
 31
0.0
  0
ARC
  5
1F2
330
1F
100
AcDbEntity
  8
AM_0
100
AcDbCircle
 10
765.467889755
 20
1158.6470964679
 30
0.0
 40
6.0
100
AcDbArc
 50
270.0
 51
303.5573097619
  0
ARC
  5
1F3
330
1F
100
AcDbEntity
  8
AM_0
100
AcDbCircle
 10
765.467889755
 20
1158.6470964679
 30
0.0
 40
6.0
100
AcDbArc
 50
56.4426902381
 51
270.0
  0
LINE
  5
1F4
330
1F
100
AcDbEntity
  8
AM_0
100
AcDbLine
 10
988.467889755
 20
1041.7910201781
 30
0.0
 11
988.467889755
 21
1076.6470964679
 31
0.0
  0
ARC
  5
1F5
330
1F
100
AcDbEntity
  8
AM_0
100
AcDbCircle
 10
958.467889755
 20
1041.7910201781
 30
0.0
 40
30.0000000000001
100
AcDbArc
 50
297.6691158227
 51
0.0
  0
LINE
  5
1F6
330
1F
100
AcDbEntity
  8
AM_0
100
AcDbLine
 10
803.467889755
 20
926.6470964679
 30
0.0
 11
972.3988314743
 21
1015.2216983423
 31
0.0
  0
LINE
  5
1F7
330
1F
100
AcDbEntity
  8
AM_0
100
AcDbLine
 10
753.467889755
 20
926.6470964679
 30
0.0
 11
803.467889755
 21
926.6470964679
 31
0.0
  0
LINE
  5
1F8
330
1F
100
AcDbEntity
  8
AM_0
100
AcDbLine
 10
978.467889755
 20
1119.6470964679
 30
0.0
 11
978.467889755
 21
1154.6470964679
 31
0.0
  0
LINE
  5
1F9
330
1F
100
AcDbEntity
  8
AM_0
100
AcDbLine
 10
978.467889755
 20
1154.6470964679
 30
0.0
 11
988.467889755
 21
1154.6470964679
 31
0.0
  0
LINE
  5
1FA
330
1F
100
AcDbEntity
  8
AM_0
100
AcDbLine
 10
988.467889755
 20
1119.6470964679
 30
0.0
 11
988.467889755
 21
1154.6470964679
 31
0.0
  0
LINE
  5
1FB
330
1F
100
AcDbEntity
  8
AM_0
100
AcDbLine
 10
1003.467889755
 20
1119.6470964679
 30
0.0
 11
1003.467889755
 21
1076.6470964679
 31
0.0
  0
LINE
  5
1FC
330
1F
100
AcDbEntity
  8
AM_0
100
AcDbLine
 10
1003.467889755
 20
1076.6470964679
 30
0.0
 11
753.467889755
 21
1076.6470964679
 31
0.0
  0
LINE
  5
1FD
330
1F
100
AcDbEntity
  8
AM_0
100
AcDbLine
 10
1003.467889755
 20
1119.6470964679
 30
0.0
 11
753.467889755
 21
1119.6470964679
 31
0.0
  0
LINE
  5
1FE
330
1F
100
AcDbEntity
  8
AM_0
100
AcDbLine
 10
723.467889755
 20
750.6470964679
 30
0.0
 11
585.467889755
 21
750.6470964679
 31
0.0
  0
LINE
  5
1FF
330
1F
100
AcDbEntity
  8
AM_0
100
AcDbLine
 10
585.467889755
 20
700.6470964679
 30
0.0
 11
723.467889755
 21
700.6470964679
 31
0.0
  0
LINE
  5
200
330
1F
100
AcDbEntity
  8
AM_0
100
AcDbLine
 10
723.467889755
 20
1240.6470964679
 30
0.0
 11
753.467889755
 21
1240.6470964679
 31
0.0
  0
LINE
  5
201
330
1F
100
AcDbEntity
  8
AM_0
100
AcDbLine
 10
753.467889755
 20
630.6470964679
 30
0.0
 11
753.467889755
 21
1240.6470964679
 31
0.0
  0
LINE
  5
202
330
1F
100
AcDbEntity
  8
AM_0
100
AcDbLine
 10
723.467889755
 20
630.6470964679
 30
0.0
 11
753.467889755
 21
630.6470964679
 31
0.0
  0
LINE
  5
203
330
1F
100
AcDbEntity
  8
AM_0
100
AcDbLine
 10
723.467889755
 20
630.6470964679
 30
0.0
 11
723.467889755
 21
1240.6470964679
 31
0.0
  0
LINE
  5
204
330
1F
100
AcDbEntity
  8
AM_0
100
AcDbLine
 10
753.467889755
 20
630.6470964679
 30
0.0
 11
743.467889755
 21
620.6470964679
 31
0.0
  0
LINE
  5
205
330
1F
100
AcDbEntity
  8
AM_0
100
AcDbLine
 10
733.467889755
 20
620.6470964679
 30
0.0
 11
743.467889755
 21
620.6470964679
 31
0.0
  0
LINE
  5
206
330
1F
100
AcDbEntity
  8
AM_0
100
AcDbLine
 10
733.467889755
 20
620.6470964679
 30
0.0
 11
723.467889755
 21
630.6470964679
 31
0.0
  0
LINE
  5
207
330
1F
100
AcDbEntity
  8
AM_0
100
AcDbLine
 10
723.467889755
 20
1250.6470964679
 30
0.0
 11
753.467889755
 21
1250.6470964679
 31
0.0
  0
LINE
  5
208
330
1F
100
AcDbEntity
  8
AM_0
100
AcDbLine
 10
753.467889755
 20
1250.6470964679
 30
0.0
 11
753.467889755
 21
1240.6470964679
 31
0.0
  0
LINE
  5
209
330
1F
100
AcDbEntity
  8
AM_0
100
AcDbLine
 10
723.467889755
 20
1250.6470964679
 30
0.0
 11
723.467889755
 21
1240.6470964679
 31
0.0
  0
LINE
  5
20A
330
1F
100
AcDbEntity
  8
AM_0
100
AcDbLine
 10
555.467889755
 20
1240.6470964679
 30
0.0
 11
585.467889755
 21
1240.6470964679
 31
0.0
  0
LINE
  5
20B
330
1F
100
AcDbEntity
  8
AM_0
100
AcDbLine
 10
555.467889755
 20
630.6470964679
 30
0.0
 11
585.467889755
 21
630.6470964679
 31
0.0
  0
LINE
  5
20C
330
1F
100
AcDbEntity
  8
AM_0
100
AcDbLine
 10
585.467889755
 20
630.6470964679
 30
0.0
 11
585.467889755
 21
1240.6470964679
 31
0.0
  0
LINE
  5
20D
330
1F
100
AcDbEntity
  8
AM_0
100
AcDbLine
 10
555.467889755
 20
630.6470964679
 30
0.0
 11
555.467889755
 21
1240.6470964679
 31
0.0
  0
LINE
  5
20E
330
1F
100
AcDbEntity
  8
AM_0
100
AcDbLine
 10
585.467889755
 20
630.6470964679
 30
0.0
 11
575.467889755
 21
620.6470964679
 31
0.0
  0
LINE
  5
20F
330
1F
100
AcDbEntity
  8
AM_0
100
AcDbLine
 10
565.467889755
 20
620.6470964679
 30
0.0
 11
575.467889755
 21
620.6470964679
 31
0.0
  0
LINE
  5
210
330
1F
100
AcDbEntity
  8
AM_0
100
AcDbLine
 10
565.467889755
 20
620.6470964679
 30
0.0
 11
555.467889755
 21
630.6470964679
 31
0.0
  0
LINE
  5
211
330
1F
100
AcDbEntity
  8
AM_0
100
AcDbLine
 10
555.467889755
 20
1250.6470964679
 30
0.0
 11
585.467889755
 21
1250.6470964679
 31
0.0
  0
LINE
  5
212
330
1F
100
AcDbEntity
  8
AM_0
100
AcDbLine
 10
585.467889755
 20
1250.6470964679
 30
0.0
 11
585.467889755
 21
1240.6470964679
 31
0.0
  0
LINE
  5
213
330
1F
100
AcDbEntity
  8
AM_0
100
AcDbLine
 10
555.467889755
 20
1250.6470964679
 30
0.0
 11
555.467889755
 21
1240.6470964679
 31
0.0
  0
LINE
  5
214
330
1F
100
AcDbEntity
  8
AM_0
100
AcDbLine
 10
790.467889755
 20
1163.6470964679
 30
0.0
 11
790.467889755
 21
1153.6470964679
 31
0.0
  0
LINE
  5
215
330
1F
100
AcDbEntity
  8
AM_0
100
AcDbLine
 10
940.467889755
 20
1163.6470964679
 30
0.0
 11
940.467889755
 21
1153.6470964679
 31
0.0
  0
DIMENSION
  5
216
330
1F
100
AcDbEntity
  8
AM_5
100
AcDbDimension
  2
_D
 10
1003.467889755
 20
1360.6470964679
 30
0.0
 11
775.1616877886
 21
1360.6470964679
 31
0.0
 70
   160
  1
<>
 71
     2
 42
-1.0
 73
     0
 74
     0
 75
     0
  3
SLDDIMSTYLE0
100
AcDbAlignedDimension
 13
530.467889755
 23
1173.6470964679
 33
0.0
 14
1003.467889755
 24
1119.6470964679
 34
0.0
 50
0.0
100
AcDbRotatedDimension
  0
INSERT
  5
226
330
1F
100
AcDbEntity
  8
AM_6
100
AcDbBlockReference
  2
SW_NOTE_0_1
 10
705.0135172826
 20
1284.0982783434
 30
0.0
  0
LEADER
  5
22D
330
1F
100
AcDbEntity
  8
AM_6
100
AcDbLeader
  3
SLDDIMSTYLE1
 76
     2
 10
650.8176180078
 20
1137.6976981205
 30
0.0
 10
705.0135172826
 20
1284.0982783434
 30
0.0
  0
INSERT
  5
233
330
1F
100
AcDbEntity
  8
AM_6
100
AcDbBlockReference
  2
SW_NOTE_0_2
 10
497.0232018601
 20
977.6736634732
 30
0.0
  0
LEADER
  5
234
330
1F
100
AcDbEntity
  8
AM_6
100
AcDbLeader
  3
SLDDIMSTYLE1
 76
     2
 10
568.0699297379
 20
1009.6281962731
 30
0.0
 10
497.0232018601
 20
977.6736634732
 30
0.0
  0
LINE
  5
235
330
1F
100
AcDbEntity
  8
AM_0
100
AcDbLine
 10
1319.8171142011
 20
1163.6470964679
 30
0.0
 11
1318.8171142011
 21
1163.6470964679
 31
0.0
  0
LINE
  5
236
330
1F
100
AcDbEntity
  8
AM_0
100
AcDbLine
 10
1318.8171142011
 20
1153.6470964679
 30
0.0
 11
1319.8171142011
 21
1153.6470964679
 31
0.0
  0
LINE
  5
237
330
1F
100
AcDbEntity
  8
AM_0
100
AcDbLine
 10
1319.8171142011
 20
1153.6470964679
 30
0.0
 11
1324.8171142011
 21
1153.6470964679
 31
0.0
  0
LINE
  5
238
330
1F
100
AcDbEntity
  8
AM_0
100
AcDbLine
 10
1324.8171142011
 20
1163.6470964679
 30
0.0
 11
1319.8171142011
 21
1163.6470964679
 31
0.0
  0
LINE
  5
239
330
1F
100
AcDbEntity
  8
AM_0
100
AcDbLine
 10
1364.8171142011
 20
1153.6470964679
 30
0.0
 11
1369.8171142011
 21
1153.6470964679
 31
0.0
  0
LINE
  5
23A
330
1F
100
AcDbEntity
  8
AM_0
100
AcDbLine
 10
1369.8171142011
 20
1163.6470964679
 30
0.0
 11
1364.8171142011
 21
1163.6470964679
 31
0.0
  0
LINE
  5
23B
330
1F
100
AcDbEntity
  8
AM_0
100
AcDbLine
 10
1370.8171142011
 20
1163.6470964679
 30
0.0
 11
1369.8171142011
 21
1163.6470964679
 31
0.0
  0
LINE
  5
23C
330
1F
100
AcDbEntity
  8
AM_0
100
AcDbLine
 10
1369.8171142011
 20
1153.6470964679
 30
0.0
 11
1370.8171142011
 21
1153.6470964679
 31
0.0
  0
LINE
  5
23D
330
1F
100
AcDbEntity
  8
AM_0
100
AcDbLine
 10
1324.8171142011
 20
1083.6470964679
 30
0.0
 11
1324.8171142011
 21
1183.6470964679
 31
0.0
  0
LINE
  5
23E
330
1F
100
AcDbEntity
  8
AM_0
100
AcDbLine
 10
1324.8171142011
 20
1183.6470964679
 30
0.0
 11
1334.8171142011
 21
1173.6470964679
 31
0.0
  0
LINE
  5
23F
330
1F
100
AcDbEntity
  8
AM_0
100
AcDbLine
 10
1334.8171142011
 20
1173.6470964679
 30
0.0
 11
1334.8171142011
 21
1093.6470964679
 31
0.0
  0
LINE
  5
240
330
1F
100
AcDbEntity
  8
AM_0
100
AcDbLine
 10
1324.8171142011
 20
1083.6470964679
 30
0.0
 11
1334.8171142011
 21
1093.6470964679
 31
0.0
  0
LINE
  5
241
330
1F
100
AcDbEntity
  8
AM_0
100
AcDbLine
 10
1334.8171142011
 20
1093.6470964679
 30
0.0
 11
1354.8171142011
 21
1093.6470964679
 31
0.0
  0
LINE
  5
242
330
1F
100
AcDbEntity
  8
AM_0
100
AcDbLine
 10
1354.8171142011
 20
1093.6470964679
 30
0.0
 11
1364.8171142011
 21
1083.6470964679
 31
0.0
  0
LINE
  5
243
330
1F
100
AcDbEntity
  8
AM_0
100
AcDbLine
 10
1364.8171142011
 20
1083.6470964679
 30
0.0
 11
1324.8171142011
 21
1083.6470964679
 31
0.0
  0
LINE
  5
244
330
1F
100
AcDbEntity
  8
AM_0
100
AcDbLine
 10
1354.8171142011
 20
1173.6470964679
 30
0.0
 11
1334.8171142011
 21
1173.6470964679
 31
0.0
  0
LINE
  5
245
330
1F
100
AcDbEntity
  8
AM_0
100
AcDbLine
 10
1354.8171142011
 20
1093.6470964679
 30
0.0
 11
1354.8171142011
 21
1173.6470964679
 31
0.0
  0
LINE
  5
246
330
1F
100
AcDbEntity
  8
AM_0
100
AcDbLine
 10
1354.8171142011
 20
1173.6470964679
 30
0.0
 11
1364.8171142011
 21
1183.6470964679
 31
0.0
  0
LINE
  5
247
330
1F
100
AcDbEntity
  8
AM_0
100
AcDbLine
 10
1364.8171142011
 20
1183.6470964679
 30
0.0
 11
1364.8171142011
 21
1083.6470964679
 31
0.0
  0
LINE
  5
248
330
1F
100
AcDbEntity
  8
AM_0
100
AcDbLine
 10
1324.8171142011
 20
1183.6470964679
 30
0.0
 11
1364.8171142011
 21
1183.6470964679
 31
0.0
  0
LINE
  5
249
330
1F
100
AcDbEntity
  8
AM_0
100
AcDbLine
 10
1364.8171142011
 20
1108.9414581876
 30
0.0
 11
1370.8171142011
 21
1106.3648411558
 31
0.0
  0
LINE
  5
24A
330
1F
100
AcDbEntity
  8
AM_0
100
AcDbLine
 10
1318.8171142011
 20
1106.3648411558
 30
0.0
 11
1324.8171142011
 21
1108.9414581876
 31
0.0
  0
LINE
  5
24B
330
1F
100
AcDbEntity
  8
AM_0
100
AcDbLine
 10
1289.8171142011
 20
630.6470964679
 30
0.0
 11
1479.0234634075
 21
630.6470964679
 31
0.0
  0
LINE
  5
24C
330
1F
100
AcDbEntity
  8
AM_0
100
AcDbLine
 10
1289.8171142011
 20
1240.6470964679
 30
0.0
 11
1289.8171142011
 21
630.6470964679
 31
0.0
  0
LINE
  5
24D
330
1F
100
AcDbEntity
  8
AM_0
100
AcDbLine
 10
1299.8171142011
 20
1250.6470964679
 30
0.0
 11
1289.8171142011
 21
1240.6470964679
 31
0.0
  0
LINE
  5
24E
330
1F
100
AcDbEntity
  8
AM_0
100
AcDbLine
 10
1420.6107649948
 20
1250.6470964679
 30
0.0
 11
1299.8171142011
 21
1250.6470964679
 31
0.0
  0
LINE
  5
24F
330
1F
100
AcDbEntity
  8
AM_0
100
AcDbLine
 10
1420.6107649948
 20
1250.6470964679
 30
0.0
 11
1430.6107649948
 21
1240.6470964679
 31
0.0
  0
LINE
  5
250
330
1F
100
AcDbEntity
  8
AM_0
100
AcDbLine
 10
1479.0234634075
 20
630.6470964679
 30
0.0
 11
1430.6107649948
 21
1240.6470964679
 31
0.0
  0
ARC
  5
251
330
1F
100
AcDbEntity
  8
AM_0
100
AcDbCircle
 10
1365.8171142011
 20
1181.6470964679
 30
0.0
 40
5.0
100
AcDbArc
 50
0.0
 51
90.0
  0
LINE
  5
252
330
1F
100
AcDbEntity
  8
AM_0
100
AcDbLine
 10
1365.8171142011
 20
1186.6470964679
 30
0.0
 11
1323.8171142011
 21
1186.6470964679
 31
0.0
  0
ARC
  5
253
330
1F
100
AcDbEntity
  8
AM_0
100
AcDbCircle
 10
1323.8171142011
 20
1181.6470964679
 30
0.0
 40
5.0
100
AcDbArc
 50
90.0
 51
180.0
  0
LINE
  5
254
330
1F
100
AcDbEntity
  8
AM_0
100
AcDbLine
 10
1318.8171142011
 20
1181.6470964679
 30
0.0
 11
1318.8171142011
 21
1088.6470964679
 31
0.0
  0
ARC
  5
255
330
1F
100
AcDbEntity
  8
AM_0
100
AcDbCircle
 10
1323.8171142011
 20
1088.6470964679
 30
0.0
 40
5.0
100
AcDbArc
 50
180.0
 51
270.0
  0
LINE
  5
256
330
1F
100
AcDbEntity
  8
AM_0
100
AcDbLine
 10
1323.8171142011
 20
1083.6470964679
 30
0.0
 11
1324.8171142011
 21
1083.6470964679
 31
0.0
  0
LINE
  5
257
330
1F
100
AcDbEntity
  8
AM_0
100
AcDbLine
 10
1364.8171142011
 20
1083.6470964679
 30
0.0
 11
1365.8171142011
 21
1083.6470964679
 31
0.0
  0
ARC
  5
258
330
1F
100
AcDbEntity
  8
AM_0
100
AcDbCircle
 10
1365.8171142011
 20
1088.6470964679
 30
0.0
 40
5.0
100
AcDbArc
 50
270.0
 51
0.0
  0
LINE
  5
259
330
1F
100
AcDbEntity
  8
AM_0
100
AcDbLine
 10
1370.8171142011
 20
1088.6470964679
 30
0.0
 11
1370.8171142011
 21
1181.6470964679
 31
0.0
  0
LINE
  5
25A
330
1F
100
AcDbEntity
  8
AM_0
100
AcDbLine
 10
1299.8171142011
 20
620.6470964679
 30
0.0
 11
1289.8171142011
 21
630.6470964679
 31
0.0
  0
LINE
  5
25B
330
1F
100
AcDbEntity
  8
AM_0
100
AcDbLine
 10
1469.0234634075
 20
620.6470964679
 30
0.0
 11
1479.0234634075
 21
630.6470964679
 31
0.0
  0
LINE
  5
25C
330
1F
100
AcDbEntity
  8
AM_0
100
AcDbLine
 10
1469.0234634075
 20
620.6470964679
 30
0.0
 11
1299.8171142011
 21
620.6470964679
 31
0.0
  0
LINE
  5
25D
330
1F
100
AcDbEntity
  8
AM_0
100
AcDbLine
 10
1319.8171142011
 20
1163.6470964679
 30
0.0
 11
1319.8171142011
 21
1153.6470964679
 31
0.0
  0
LINE
  5
25E
330
1F
100
AcDbEntity
  8
AM_0
100
AcDbLine
 10
1369.8171142011
 20
1163.6470964679
 30
0.0
 11
1369.8171142011
 21
1153.6470964679
 31
0.0
  0
DIMENSION
  5
25F
330
1F
100
AcDbEntity
  8
AM_5
100
AcDbDimension
  2
_D_1
 10
1289.8171142011
 20
570.6470964679
 30
0.0
 11
1382.9155842073
 21
570.6470964679
 31
0.0
 70
   160
  1
<>
 71
     2
 42
-1.0
 73
     0
 74
     0
 75
     0
  3
SLDDIMSTYLE2
100
AcDbAlignedDimension
 13
1479.0234634075
 23
630.6470964679
 33
0.0
 14
1289.8171142011
 24
630.6470964679
 34
0.0
 50
0.0
100
AcDbRotatedDimension
  0
SPLINE
  5
26A
330
1F
100
AcDbEntity
  8
AM_0
100
AcDbSpline
210
0.0
220
0.0
230
1.0
 70
     8
 71
     3
 72
    17
 73
    13
 74
     0
 42
0.00000001
 43
0.00000001
 40
0.0
 40
0.0
 40
0.0
 40
0.0
 40
0.0578160720745819
 40
0.1690067259565284
 40
0.2805860369361811
 40
0.392411426006083
 40
0.5042505956072983
 40
0.6158113915139267
 40
0.7268643065968194
 40
0.837172476606222
 40
0.9464954549490417
 40
1.0
 40
1.0
 40
1.0
 40
1.0
 10
464.3848287237096
 20
413.0311819804656
 30
0.0
 10
464.1831419379338
 20
412.9724454143386
 30
0.0
 10
463.5935753674359
 20
412.8007479195268
 30
0.0
 10
462.5716672728353
 20
412.5636004633436
 30
0.0
 10
461.3208921456994
 20
412.3471240594863
 30
0.0
 10
460.050062441645
 20
412.204200599489
 30
0.0
 10
458.7820987302344
 20
412.1364210284897
 30
0.0
 10
457.5395389921589
 20
412.1449421923818
 30
0.0
 10
456.3425800694579
 20
412.2271384321136
 30
0.0
 10
455.2196843182934
 20
412.3827820862953
 30
0.0
 10
454.3401609519516
 20
412.5572698247564
 30
0.0
 10
453.8808578814947
 20
412.6973740922494
 30
0.0
 10
453.7299325261672
 20
412.7434118562322
 30
0.0
  0
SPLINE
  5
26B
330
1F
100
AcDbEntity
  8
AM_0
100
AcDbSpline
210
0.0
220
0.0
230
1.0
 70
     8
 71
     3
 72
    15
 73
    11
 74
     0
 42
0.00000001
 43
0.00000001
 40
0.0
 40
0.0
 40
0.0
 40
0.0
 40
0.1003914397071982
 40
0.2324915404198287
 40
0.3640198047858228
 40
0.495152559161977
 40
0.6260797634648287
 40
0.7569949762795778
 40
0.8880526629032081
 40
1.0
 40
1.0
 40
1.0
 40
1.0
 10
454.5092313746912
 20
407.4522175772165
 30
0.0
 10
454.8676069433802
 20
407.3948067496277
 30
0.0
 10
455.6975510925662
 20
407.2618518703884
 30
0.0
 10
457.060266751314
 20
407.1603273631138
 30
0.0
 10
458.5663313892132
 20
407.1293772807473
 30
0.0
 10
460.0895763604197
 20
407.1909644345729
 30
0.0
 10
461.6138086484885
 20
407.3394266701562
 30
0.0
 10
463.1241749680173
 20
407.5758360754192
 30
0.0
 10
464.5378076972621
 20
407.8758315871046
 30
0.0
 10
465.4226837329248
 20
408.1283549147289
 30
0.0
 10
465.8303276340122
 20
408.2446871355594
 30
0.0
  0
LINE
  5
26C
330
1F
100
AcDbEntity
  8
AM_0
100
AcDbLine
 10
465.830327634
 20
408.2446871356
 30
0.0
 11
534.745175322
 21
429.0566467144
 31
0.0
  0
LINE
  5
26D
330
1F
100
AcDbEntity
  8
AM_0
100
AcDbLine
 10
515.9895333399
 20
428.6155598407
 30
0.0
 11
464.3848287237
 21
413.0311819805
 31
0.0
  0
LINE
  5
26E
330
1F
100
AcDbEntity
  8
AM_0
100
AcDbLine
 10
533.2996764117
 20
433.8431415593
 30
0.0
 11
518.4495572291
 21
429.3584754745
 31
0.0
  0
LINE
  5
26F
330
1F
100
AcDbEntity
  8
AM_0
100
AcDbLine
 10
497.803958973
 20
446.1946480021
 30
0.0
 11
513.5436153428
 21
427.87690412
 31
0.0
  0
LINE
  5
270
330
1F
100
AcDbEntity
  8
AM_0
100
AcDbLine
 10
518.7776906561
 20
429.4575702247
 30
0.0
 11
501.5962768943
 21
449.4532251124
 31
0.0
  0
SPLINE
  5
271
330
1F
100
AcDbEntity
  8
AM_0
100
AcDbSpline
210
0.0
220
0.0
230
1.0
 70
     8
 71
     3
 72
    21
 73
    17
 74
     0
 42
0.00000001
 43
0.00000001
 40
0.0
 40
0.0
 40
0.0
 40
0.0
 40
0.0371453074243999
 40
0.1112487035498705
 40
0.191592448108143
 40
0.2937952562744665
 40
0.368373769326494
 40
0.4375541532394726
 40
0.5111557208083495
 40
0.581765275992847
 40
0.6518707686285736
 40
0.7222594887053718
 40
0.7934067219140324
 40
0.8654296993460112
 40
0.9382733081982758
 40
1.0
 40
1.0
 40
1.0
 40
1.0
 10
538.8421870255852
 20
438.8404402981933
 30
0.0
 10
538.884319631087
 20
438.7884998418193
 30
0.0
 10
539.0105050920307
 20
438.63294026151
 30
0.0
 10
539.1266805671107
 20
438.4146219406352
 30
0.0
 10
539.190365040321
 20
438.1960938727418
 30
0.0
 10
539.1970882942219
 20
437.9944314575711
 30
0.0
 10
539.1319075597931
 20
437.7051570922549
 30
0.0
 10
538.9765912271188
 20
437.3587217176458
 30
0.0
 10
538.6972356092177
 20
436.9404523353017
 30
0.0
 10
538.2719785166437
 20
436.4684221816786
 30
0.0
 10
537.7144796843581
 20
435.9800197748694
 30
0.0
 10
537.0252406725147
 20
435.489243492518
 30
0.0
 10
536.210497642473
 20
435.0103766140969
 30
0.0
 10
535.2782403168118
 20
434.5582434277191
 30
0.0
 10
534.3024469473446
 20
434.1630631939433
 30
0.0
 10
533.6150032388018
 20
433.9437427142115
 30
0.0
 10
533.2996764116932
 20
433.8431415593325
 30
0.0
  0
SPLINE
  5
272
330
1F
100
AcDbEntity
  8
AM_0
100
AcDbSpline
210
0.0
220
0.0
230
1.0
 70
     8
 71
     3
 72
    24
 73
    20
 74
     0
 42
0.00000001
 43
0.00000001
 40
0.0
 40
0.0
 40
0.0
 40
0.0
 40
0.0353944493225114
 40
0.1021785877381009
 40
0.1693613440395099
 40
0.2370721618250456
 40
0.3053782995929004
 40
0.3742431491243614
 40
0.4433218264831063
 40
0.5117395717300105
 40
0.5713994246891405
 40
0.6288477419015691
 40
0.6905047518734369
 40
0.7498499732370104
 40
0.8075313426350704
 40
0.8645162923827319
 40
0.921493158974511
 40
0.9794268079340823
 40
1.0
 40
1.0
 40
1.0
 40
1.0
 10
534.7451753219957
 20
429.0566467144261
 30
0.0
 10
534.9961177039174
 20
429.1351711803035
 30
0.0
 10
535.7205515820874
 20
429.3618598046448
 30
0.0
 10
536.8721099863808
 20
429.7977145438093
 30
0.0
 10
538.1657794030942
 20
430.3870891088728
 30
0.0
 10
539.3744831547505
 20
431.0540253889076
 30
0.0
 10
540.486501953851
 20
431.7965262421852
 30
0.0
 10
541.4868544595905
 20
432.6140040767763
 30
0.0
 10
542.3572953619855
 20
433.5025181960095
 30
0.0
 10
543.0526287900797
 20
434.4201795412506
 30
0.0
 10
543.5731848211952
 20
435.3439820850959
 30
0.0
 10
543.9427927321013
 20
436.2837402440169
 30
0.0
 10
544.1620516489102
 20
437.2626437232531
 30
0.0
 10
544.2140754417006
 20
438.2639906046621
 30
0.0
 10
544.1000971008713
 20
439.2333739632278
 30
0.0
 10
543.8319908570933
 20
440.1582617564571
 30
0.0
 10
543.4186607207747
 20
441.0306234804962
 30
0.0
 10
542.994640111706
 20
441.6672171441097
 30
0.0
 10
542.7092841903393
 20
442.0093574689835
 30
0.0
 10
542.6345049468908
 20
442.0990174084893
 30
0.0
  0
LINE
  5
273
330
1F
100
AcDbEntity
  8
AM_0
100
AcDbLine
 10
542.6345049469
 20
442.0990174085
 30
0.0
 11
533.0947292897
 21
453.2013669818
 31
0.0
  0
LINE
  5
274
330
1F
100
AcDbEntity
  8
AM_0
100
AcDbLine
 10
529.3024113684
 20
449.9427898715
 30
0.0
 11
538.8421870256
 21
438.8404402982
 31
0.0
  0
LINE
  5
275
330
1F
100
AcDbEntity
  8
AM_0
100
AcDbLine
 10
514.2201250973
 20
456.0478407059
 30
0.0
 11
449.3456641871
 21
436.4560589135
 31
0.0
  0
LINE
  5
276
330
1F
100
AcDbEntity
  8
AM_0
100
AcDbLine
 10
503.261422822
 20
447.5153354969
 30
0.0
 11
515.6656240076
 21
451.261345861
 31
0.0
  0
LINE
  5
277
330
1F
100
AcDbEntity
  8
AM_0
100
AcDbLine
 10
450.9360044498
 20
431.7133054751
 30
0.0
 11
498.0273475087
 21
445.9346693922
 31
0.0
  0
SPLINE
  5
278
330
1F
100
AcDbEntity
  8
AM_0
100
AcDbSpline
210
0.0
220
0.0
230
1.0
 70
     8
 71
     3
 72
    22
 73
    18
 74
     0
 42
0.00000001
 43
0.00000001
 40
0.0
 40
0.0
 40
0.0
 40
0.0
 40
0.0380251215192311
 40
0.1111542355173062
 40
0.1845389658663368
 40
0.258085539608549
 40
0.3316411766848643
 40
0.4050137298333985
 40
0.4780522542361696
 40
0.5506009663617656
 40
0.6225017266030871
 40
0.6936051046635759
 40
0.7637974978506727
 40
0.8330569829269461
 40
0.9015588216786359
 40
0.9698676886957317
 40
1.0
 40
1.0
 40
1.0
 40
1.0
 10
515.6656240075805
 20
451.2613458610296
 30
0.0
 10
515.8673107532248
 20
451.3200824071383
 30
0.0
 10
516.4568772064111
 20
451.4917798434328
 30
0.0
 10
517.4787868142173
 20
451.7289280544331
 30
0.0
 10
518.7295555846766
 20
451.9454012874527
 30
0.0
 10
520.0004089755835
 20
452.0883365629272
 30
0.0
 10
521.2682843396644
 20
452.1560720645058
 30
0.0
 10
522.5111724958084
 20
452.1477147221362
 30
0.0
 10
523.7069145054566
 20
452.0649114617548
 30
0.0
 10
524.8343047829287
 20
451.9115097674839
 30
0.0
 10
525.8731198906655
 20
451.6938849918945
 30
0.0
 10
526.804811832179
 20
451.4211573298226
 30
0.0
 10
527.6130918866916
 20
451.1055786986612
 30
0.0
 10
528.2859730964075
 20
450.762393571799
 30
0.0
 10
528.8141795130537
 20
450.4109558920442
 30
0.0
 10
529.130534428945
 20
450.1343986657731
 30
0.0
 10
529.2621305184132
 20
449.9876950526069
 30
0.0
 10
529.3024113683776
 20
449.9427898714951
 30
0.0
  0
SPLINE
  5
279
330
1F
100
AcDbEntity
  8
AM_0
100
AcDbSpline
210
0.0
220
0.0
230
1.0
 70
     8
 71
     3
 72
    22
 73
    18
 74
     0
 42
0.00000001
 43
0.00000001
 40
0.0
 40
0.0
 40
0.0
 40
0.0
 40
0.0399290743018989
 40
0.1055623302168276
 40
0.1729106483712037
 40
0.2422690938271829
 40
0.3127799087148738
 40
0.3835994189161546
 40
0.4541843518692087
 40
0.5243943366261198
 40
0.5942331074029733
 40
0.6637695593525206
 40
0.7330969128125764
 40
0.8023155959205669
 40
0.8715279393604917
 40
0.9408156059502636
 40
1.0
 40
1.0
 40
1.0
 40
1.0
 10
533.0947292896834
 20
453.201366981791
 30
0.0
 10
532.9487262686002
 20
453.3625209472127
 30
0.0
 10
532.5627313665475
 20
453.7885710976614
 30
0.0
 10
531.8289122505395
 20
454.4107254052723
 30
0.0
 10
530.8694893169085
 20
455.0536458537587
 30
0.0
 10
529.7818913402343
 20
455.6198392841676
 30
0.0
 10
528.5790888874317
 20
456.104342977581
 30
0.0
 10
527.2798124793504
 20
456.4999284674132
 30
0.0
 10
525.9041471942323
 20
456.8035723480735
 30
0.0
 10
524.4696298598343
 20
457.0147126064866
 30
0.0
 10
522.9914106037606
 20
457.1340428837142
 30
0.0
 10
521.4837948862641
 20
457.1626594189461
 30
0.0
 10
519.9609635808706
 20
457.1016946114362
 30
0.0
 10
518.436620732907
 20
456.9530660422062
 30
0.0
 10
516.9262840300685
 20
456.7167011942584
 30
0.0
 10
515.5126437302608
 20
456.4166942929162
 30
0.0
 10
514.6277685871743
 20
456.164172308143
 30
0.0
 10
514.220125097278
 20
456.0478407059359
 30
0.0
  0
ELLIPSE
  5
27A
330
1F
100
AcDbEntity
  8
AM_0
100
AcDbEllipse
 10
517.9422947396
 20
426.5937702351
 30
0.0
 11
0.8087858863931391
 21
2.772578806408775
 31
0.0
210
0.0
220
0.0
230
1.0
 40
0.3972314846
 41
0.2530760830637109
 42
0.8181148935801631
  0
ELLIPSE
  5
27B
330
1F
100
AcDbEntity
  8
AM_0
100
AcDbEllipse
 10
517.9422947396
 20
426.5937702351
 30
0.0
 11
3.210413422503052
 21
-0.936506136310868
 31
0.0
210
0.0
220
0.0
230
1.0
 40
0.6097933491
 41
1.823872409858466
 42
2.388911220375055
  0
ELLIPSE
  5
27C
330
1F
100
AcDbEntity
  8
AM_0
100
AcDbEllipse
 10
498.8627434252
 20
448.7984693817
 30
0.0
 11
0.808785886393082
 21
2.772578806408774
 31
0.0
210
0.0
220
0.0
230
1.0
 40
0.3972314846
 41
0.8181148935802185
 42
2.888516570526093
  0
ELLIPSE
  5
27D
330
1F
100
AcDbEntity
  8
AM_0
100
AcDbEllipse
 10
498.8627434252
 20
448.7984693817
 30
0.0
 11
3.210413422503052
 21
-0.936506136310868
 31
0.0
210
0.0
220
0.0
230
1.0
 40
0.6097933491
 41
0.7526814332146906
 42
1.823872409858494
  0
LINE
  5
27E
330
1F
100
AcDbEntity
  8
AM_0
100
AcDbLine
 10
341.2856928945
 20
355.7581488145
 30
0.0
 11
337.2705077861
 21
389.8351975925
 31
0.0
  0
LINE
  5
27F
330
1F
100
AcDbEntity
  8
AM_0
100
AcDbLine
 10
337.2705077861
 20
389.8351975925
 30
0.0
 11
343.2708879582
 21
393.261822747
 31
0.0
  0
LINE
  5
280
330
1F
100
AcDbEntity
  8
AM_0
100
AcDbLine
 10
343.2708879582
 20
393.261822747
 30
0.0
 11
348.2898693437
 21
350.6655117745
 31
0.0
  0
LINE
  5
281
330
1F
100
AcDbEntity
  8
AM_0
100
AcDbLine
 10
341.2856928945
 20
355.7581488145
 30
0.0
 11
348.2898693437
 21
350.6655117745
 31
0.0
  0
LINE
  5
282
330
1F
100
AcDbEntity
  8
AM_0
100
AcDbLine
 10
337.2705077861
 20
389.8351975925
 30
0.0
 11
333.4545975232
 21
394.2761374218
 31
0.0
  0
LINE
  5
283
330
1F
100
AcDbEntity
  8
AM_0
100
AcDbLine
 10
335.6390674324
 20
402.1437024057
 30
0.0
 11
333.4545975232
 21
394.2761374218
 31
0.0
  0
LINE
  5
284
330
1F
100
AcDbEntity
  8
AM_0
100
AcDbLine
 10
335.6390674324
 20
402.1437024057
 30
0.0
 11
343.2708879582
 21
393.261822747
 31
0.0
  0
LINE
  5
285
330
1F
100
AcDbEntity
  8
AM_0
100
AcDbLine
 10
457.2240908761
 20
395.2484658863
 30
0.0
 11
455.8070094335
 21
407.275297063
 31
0.0
  0
LINE
  5
286
330
1F
100
AcDbEntity
  8
AM_0
100
AcDbLine
 10
455.2035034206
 20
412.3972785613
 30
0.0
 11
453.534644259
 21
426.5609580732
 31
0.0
  0
LINE
  5
287
330
1F
100
AcDbEntity
  8
AM_0
100
AcDbLine
 10
348.2898693437
 20
350.6655117745
 30
0.0
 11
356.1076082341
 21
353.0264321167
 31
0.0
  0
LINE
  5
288
330
1F
100
AcDbEntity
  8
AM_0
100
AcDbLine
 10
380.8088193724
 20
360.4860815972
 30
0.0
 11
433.2922376446
 21
376.335826845
 31
0.0
  0
LINE
  5
289
330
1F
100
AcDbEntity
  8
AM_0
100
AcDbLine
 10
453.534644259
 20
426.5609580732
 30
0.0
 11
451.7732000828
 21
426.0290102242
 31
0.0
  0
LINE
  5
28A
330
1F
100
AcDbEntity
  8
AM_0
100
AcDbLine
 10
427.9178367334
 20
418.8248027939
 30
0.0
 11
374.5885706722
 21
402.7196154958
 31
0.0
  0
LINE
  5
28B
330
1F
100
AcDbEntity
  8
AM_0
100
AcDbLine
 10
350.7332073229
 20
395.5154080656
 30
0.0
 11
343.2708879582
 21
393.261822747
 31
0.0
  0
LINE
  5
28C
330
1F
100
AcDbEntity
  8
AM_0
100
AcDbLine
 10
453.534644259
 20
426.5609580732
 30
0.0
 11
451.3142666668
 21
429.1450238938
 31
0.0
  0
LINE
  5
28D
330
1F
100
AcDbEntity
  8
AM_0
100
AcDbLine
 10
420.4674425385
 20
427.7614723504
 30
0.0
 11
372.1521747133
 21
413.1704889157
 31
0.0
  0
LINE
  5
28E
330
1F
100
AcDbEntity
  8
AM_0
100
AcDbLine
 10
343.282813128
 20
404.4520776221
 30
0.0
 11
335.6390674324
 21
402.1437024057
 31
0.0
  0
LINE
  5
28F
330
1F
100
AcDbEntity
  8
AM_0
100
AcDbLine
 10
337.4697826316
 20
360.1990886438
 30
0.0
 11
341.2856928945
 21
355.7581488145
 31
0.0
  0
LINE
  5
290
330
1F
100
AcDbEntity
  8
AM_0
100
AcDbLine
 10
333.4545975232
 20
394.2761374218
 30
0.0
 11
337.4697826316
 21
360.1990886438
 31
0.0
  0
LINE
  5
291
330
1F
100
AcDbEntity
  8
AM_0
100
AcDbLine
 10
553.0681704826
 20
398.6585286586
 30
0.0
 11
552.4801769259
 21
403.6488552743
 31
0.0
  0
LWPOLYLINE
  5
292
330
1F
100
AcDbEntity
  8
AM_0
100
AcDbPolyline
 90
       11
 70
   128
 43
0.0
 10
547.0190351071
 20
385.1114537634
 10
548.2227374523
 20
386.2114591701
 10
549.3207700231
 20
387.4094155066
 10
550.3001506229
 20
388.6911591635
 10
551.1492998947
 20
390.0415359019
 10
551.858178225
 20
391.4445800242
 10
552.4184044437
 20
392.8837031388
 10
552.8233549161
 20
394.3418902868
 10
553.0682418546
 20
395.8019011128
 10
553.1501699259
 20
397.2464736996
 10
553.0681704826
 20
398.6585286586
  0
LINE
  5
293
330
1F
100
AcDbEntity
  8
AM_0
100
AcDbLine
 10
473.852243765
 20
323.9433813684
 30
0.0
 11
547.0190351071
 21
385.1114537634
 31
0.0
  0
LINE
  5
294
330
1F
100
AcDbEntity
  8
AM_0
100
AcDbLine
 10
467.1085480224
 20
321.9068170007
 30
0.0
 11
473.852243765
 21
323.9433813684
 31
0.0
  0
LINE
  5
295
330
1F
100
AcDbEntity
  8
AM_0
100
AcDbLine
 10
550.576323991
 20
423.4404008229
 30
0.0
 11
548.8196805061
 21
438.3491096633
 31
0.0
  0
LINE
  5
296
330
1F
100
AcDbEntity
  8
AM_0
100
AcDbLine
 10
548.8196805061
 20
438.3491096633
 30
0.0
 11
553.4140036853
 21
439.7365736352
 31
0.0
  0
LINE
  5
297
330
1F
100
AcDbEntity
  8
AM_0
100
AcDbLine
 10
555.1706471702
 20
424.8278647948
 30
0.0
 11
553.4140036853
 21
439.7365736352
 31
0.0
  0
LINE
  5
298
330
1F
100
AcDbEntity
  8
AM_0
100
AcDbLine
 10
548.8196805061
 20
438.3491096633
 30
0.0
 11
535.463994586
 21
453.8923990659
 31
0.0
  0
LINE
  5
299
330
1F
100
AcDbEntity
  8
AM_0
100
AcDbLine
 10
535.463994586
 20
453.8923990659
 30
0.0
 11
540.0583177652
 21
455.2798630378
 31
0.0
  0
LINE
  5
29A
330
1F
100
AcDbEntity
  8
AM_0
100
AcDbLine
 10
553.4140036853
 20
439.7365736352
 30
0.0
 11
540.0583177652
 21
455.2798630378
 31
0.0
  0
LINE
  5
29B
330
1F
100
AcDbEntity
  8
AM_0
100
AcDbLine
 10
544.8426368637
 20
428.7123410744
 30
0.0
 11
548.0129298745
 21
422.6662678671
 31
0.0
  0
ARC
  5
29C
330
1F
100
AcDbEntity
  8
AM_0
100
AcDbCircle
 10
541.7011494361
 20
427.5360724234
 30
0.0
 40
3.354482254692808
100
AcDbArc
 50
20.5274318724
 51
60.8146932265
  0
LINE
  5
29D
330
1F
100
AcDbEntity
  8
AM_0
100
AcDbLine
 10
539.7112040379
 20
431.3028343808
 30
0.0
 11
543.3369150285
 21
430.4646936218
 31
0.0
  0
LINE
  5
29E
330
1F
100
AcDbEntity
  8
AM_0
100
AcDbLine
 10
535.463994586
 20
453.8923990659
 30
0.0
 11
535.9348748663
 21
449.8960178663
 31
0.0
  0
LINE
  5
29F
330
1F
100
AcDbEntity
  8
AM_0
100
AcDbLine
 10
536.9825057733
 20
441.0047292815
 30
0.0
 11
537.5836982364
 21
435.9023829795
 31
0.0
  0
LINE
  5
2A0
330
1F
100
AcDbEntity
  8
AM_0
100
AcDbLine
 10
563.0161095047
 20
425.7988257954
 30
0.0
 11
456.5428758809
 21
393.6444104734
 31
0.0
  0
LINE
  5
2A1
330
1F
100
AcDbEntity
  8
AM_0
100
AcDbLine
 10
563.0161095047
 20
425.7988257954
 30
0.0
 11
565.1742715005
 21
407.4824120772
 31
0.0
  0
LINE
  5
2A2
330
1F
100
AcDbEntity
  8
AM_0
100
AcDbLine
 10
565.1742715005
 20
407.4824120772
 30
0.0
 11
459.2175828219
 21
375.483990897
 31
0.0
  0
LINE
  5
2A3
330
1F
100
AcDbEntity
  8
AM_0
100
AcDbLine
 10
562.062131939
 20
426.9090607527
 30
0.0
 11
456.3456967234
 21
394.9831949873
 31
0.0
  0
LINE
  5
2A4
330
1F
100
AcDbEntity
  8
AM_0
100
AcDbLine
 10
562.062131939
 20
426.9090607527
 30
0.0
 11
563.0161095047
 21
425.7988257954
 31
0.0
  0
LINE
  5
2A5
330
1F
100
AcDbEntity
  8
AM_0
100
AcDbLine
 10
537.0615385608
 20
440.3339746137
 30
0.0
 11
515.1245310016
 21
433.7091016013
 31
0.0
  0
LINE
  5
2A6
330
1F
100
AcDbEntity
  8
AM_0
100
AcDbLine
 10
509.8904556883
 20
432.1284354965
 30
0.0
 11
454.8375982241
 21
415.5027317087
 31
0.0
  0
LINE
  5
2A7
330
1F
100
AcDbEntity
  8
AM_0
100
AcDbLine
 10
537.2206380709
 20
438.9836902255
 30
0.0
 11
516.0785085673
 21
432.5988666439
 31
0.0
  0
LINE
  5
2A8
330
1F
100
AcDbEntity
  8
AM_0
100
AcDbLine
 10
510.844433254
 20
431.0182005392
 30
0.0
 11
454.9966977342
 21
414.1524473205
 31
0.0
  0
LINE
  5
2A9
330
1F
100
AcDbEntity
  8
AM_0
100
AcDbLine
 10
440.8749844716
 20
243.7584075551
 30
0.0
 11
437.0590742087
 21
248.1993473845
 31
0.0
  0
LINE
  5
2AA
330
1F
100
AcDbEntity
  8
AM_0
100
AcDbLine
 10
440.8749844716
 20
243.7584075551
 30
0.0
 11
399.8265067894
 21
231.3619605345
 31
0.0
  0
LINE
  5
2AB
330
1F
100
AcDbEntity
  8
AM_0
100
AcDbLine
 10
437.0590742087
 20
248.1993473845
 30
0.0
 11
399.0377901593
 21
236.7170985902
 31
0.0
  0
LINE
  5
2AC
330
1F
100
AcDbEntity
  8
AM_0
100
AcDbLine
 10
443.3844751644
 20
222.4602520689
 30
0.0
 11
440.8749844716
 21
243.7584075551
 31
0.0
  0
LINE
  5
2AD
330
1F
100
AcDbEntity
  8
AM_0
100
AcDbLine
 10
402.9366311394
 20
210.2451935852
 30
0.0
 11
443.3844751644
 21
222.4602520689
 31
0.0
  0
LINE
  5
2AE
330
1F
100
AcDbEntity
  8
AM_0
100
AcDbLine
 10
440.7923057136
 20
199.748338115
 30
0.0
 11
476.8920282006
 21
157.7356375075
 31
0.0
  0
LINE
  5
2AF
330
1F
100
AcDbEntity
  8
AM_0
100
AcDbLine
 10
410.176519262
 20
459.5858350475
 30
0.0
 11
414.1510352227
 21
425.8539470761
 31
0.0
  0
LINE
  5
2B0
330
1F
100
AcDbEntity
  8
AM_0
100
AcDbLine
 10
420.4428126893
 20
372.4553609983
 30
0.0
 11
435.1513668753
 21
247.6232287505
 31
0.0
  0
LINE
  5
2B1
330
1F
100
AcDbEntity
  8
AM_0
100
AcDbLine
 10
438.2972556086
 20
220.9239357116
 30
0.0
 11
440.7923057136
 21
199.748338115
 31
0.0
  0
LINE
  5
2B2
330
1F
100
AcDbEntity
  8
AM_0
100
AcDbLine
 10
411.5825762549
 20
461.6249962301
 30
0.0
 11
410.176519262
 21
459.5858350475
 31
0.0
  0
LINE
  5
2B3
330
1F
100
AcDbEntity
  8
AM_0
100
AcDbLine
 10
434.6294628426
 20
434.8031294832
 30
0.0
 11
411.5825762549
 21
461.6249962301
 31
0.0
  0
LINE
  5
2B4
330
1F
100
AcDbEntity
  8
AM_0
100
AcDbLine
 10
434.6294628426
 20
434.8031294832
 30
0.0
 11
437.0393161126
 21
428.3230284713
 31
0.0
  0
LINE
  5
2B5
330
1F
100
AcDbEntity
  8
AM_0
100
AcDbLine
 10
476.8920282006
 20
157.7356375075
 30
0.0
 11
437.0393161126
 21
428.3230284713
 31
0.0
  0
ARC
  5
2B6
330
1F
100
AcDbEntity
  8
AM_0
100
AcDbCircle
 10
421.6446108962
 20
415.7285893214
 30
0.0
 40
6.986801747024114
100
AcDbArc
 50
6.0766602748
 51
34.72217935
  0
LINE
  5
2B7
330
1F
100
AcDbEntity
  8
AM_0
100
AcDbLine
 10
427.3872282091
 20
419.7082557709
 30
0.0
 11
419.373816657
 21
429.0342294125
 31
0.0
  0
LWPOLYLINE
  5
2B8
330
1F
100
AcDbEntity
  8
AM_0
100
AcDbPolyline
 90
        9
 70
   128
 43
0.0
 10
419.373816657
 20
429.0342294125
 10
419.1925267826
 20
429.2099016993
 10
419.0278476083
 20
429.2969753815
 10
418.8861076625
 20
429.2921042663
 10
418.7727539319
 20
429.195475548
 10
418.6921425367
 20
429.0108026141
 10
418.6473713277
 20
428.7451823417
 10
418.6401608373
 20
428.408822369
 10
418.6707881606
 20
428.0146488212
  0
LINE
  5
2B9
330
1F
100
AcDbEntity
  8
AM_0
100
AcDbLine
 10
418.6707881606
 20
428.0146488212
 30
0.0
 11
418.7613279451
 21
427.2462337749
 31
0.0
  0
LINE
  5
2BA
330
1F
100
AcDbEntity
  8
AM_0
100
AcDbLine
 10
432.365983523
 20
376.0561024607
 30
0.0
 11
432.5567790362
 21
375.8340554692
 31
0.0
  0
LWPOLYLINE
  5
2BB
330
1F
100
AcDbEntity
  8
AM_0
100
AcDbPolyline
 90
        9
 70
   128
 43
0.0
 10
432.5567790362
 20
375.8340554692
 10
432.7380689107
 20
375.6583831824
 10
432.902748085
 20
375.5713095002
 10
433.0444880307
 20
375.5761806154
 10
433.1578417613
 20
375.6728093337
 10
433.2384531565
 20
375.8574822677
 10
433.2832243655
 20
376.12310254
 10
433.2904348559
 20
376.4594625127
 10
433.2598075326
 20
376.8536360605
  0
LINE
  5
2BC
330
1F
100
AcDbEntity
  8
AM_0
100
AcDbLine
 10
433.2598075326
 20
376.8536360605
 30
0.0
 11
428.5921548441
 21
416.468205265
 31
0.0
  0
LINE
  5
2BD
330
1F
100
AcDbEntity
  8
AM_0
100
AcDbLine
 10
437.0393161126
 20
428.3230284713
 30
0.0
 11
450.8222856502
 21
432.4854203871
 31
0.0
  0
LINE
  5
2BE
330
1F
100
AcDbEntity
  8
AM_0
100
AcDbLine
 10
490.6749977382
 20
161.8980294232
 30
0.0
 11
450.8222856502
 21
432.4854203871
 31
0.0
  0
LINE
  5
2BF
330
1F
100
AcDbEntity
  8
AM_0
100
AcDbLine
 10
476.8920282006
 20
157.7356375075
 30
0.0
 11
490.6749977382
 21
161.8980294232
 31
0.0
  0
LINE
  5
2C0
330
1F
100
AcDbEntity
  8
AM_0
100
AcDbLine
 10
434.6294628426
 20
434.8031294832
 30
0.0
 11
448.4124323802
 21
438.965521399
 31
0.0
  0
LINE
  5
2C1
330
1F
100
AcDbEntity
  8
AM_0
100
AcDbLine
 10
448.4124323802
 20
438.965521399
 30
0.0
 11
450.8222856502
 21
432.4854203871
 31
0.0
  0
LINE
  5
2C2
330
1F
100
AcDbEntity
  8
AM_0
100
AcDbLine
 10
411.5825762549
 20
461.6249962301
 30
0.0
 11
425.3655457925
 21
465.7873881459
 31
0.0
  0
LINE
  5
2C3
330
1F
100
AcDbEntity
  8
AM_0
100
AcDbLine
 10
448.4124323802
 20
438.965521399
 30
0.0
 11
425.3655457925
 21
465.7873881459
 31
0.0
  0
LINE
  5
2C4
330
1F
100
AcDbEntity
  8
AM_0
100
AcDbLine
 10
490.6749977382
 20
161.8980294232
 30
0.0
 11
484.6746175661
 21
158.4714042687
 31
0.0
  0
LINE
  5
2C5
330
1F
100
AcDbEntity
  8
AM_0
100
AcDbLine
 10
480.0802943869
 20
157.0839402968
 30
0.0
 11
484.6746175661
 21
158.4714042687
 31
0.0
  0
LINE
  5
2C6
330
1F
100
AcDbEntity
  8
AM_0
100
AcDbLine
 10
480.0802943869
 20
157.0839402968
 30
0.0
 11
476.8920282006
 21
157.7356375075
 31
0.0
  0
LINE
  5
2C7
330
1F
100
AcDbEntity
  8
AM_0
100
AcDbLine
 10
363.6076763031
 20
176.4389433867
 30
0.0
 11
399.70739879
 21
134.4262427791
 31
0.0
  0
LINE
  5
2C8
330
1F
100
AcDbEntity
  8
AM_0
100
AcDbLine
 10
332.9918898514
 20
436.2764403192
 30
0.0
 11
336.9664058121
 21
402.5445523478
 31
0.0
  0
LINE
  5
2C9
330
1F
100
AcDbEntity
  8
AM_0
100
AcDbLine
 10
342.5909099059
 20
354.8091440963
 30
0.0
 11
363.6076763031
 21
176.4389433867
 31
0.0
  0
LINE
  5
2CA
330
1F
100
AcDbEntity
  8
AM_0
100
AcDbLine
 10
334.3979468443
 20
438.3156015018
 30
0.0
 11
332.9918898514
 21
436.2764403192
 31
0.0
  0
LINE
  5
2CB
330
1F
100
AcDbEntity
  8
AM_0
100
AcDbLine
 10
357.444833432
 20
411.4937347549
 30
0.0
 11
334.3979468443
 21
438.3156015018
 31
0.0
  0
LINE
  5
2CC
330
1F
100
AcDbEntity
  8
AM_0
100
AcDbLine
 10
357.444833432
 20
411.4937347549
 30
0.0
 11
359.854686702
 21
405.013633743
 31
0.0
  0
LINE
  5
2CD
330
1F
100
AcDbEntity
  8
AM_0
100
AcDbLine
 10
399.70739879
 20
134.4262427791
 30
0.0
 11
359.854686702
 21
405.013633743
 31
0.0
  0
ARC
  5
2CE
330
1F
100
AcDbEntity
  8
AM_0
100
AcDbCircle
 10
344.4599814856
 20
392.4191945931
 30
0.0
 40
6.986801747024313
100
AcDbArc
 50
6.0766602748
 51
34.72217935
  0
LINE
  5
2CF
330
1F
100
AcDbEntity
  8
AM_0
100
AcDbLine
 10
350.2025987986
 20
396.3988610426
 30
0.0
 11
342.1891872465
 21
405.7248346842
 31
0.0
  0
LWPOLYLINE
  5
2D0
330
1F
100
AcDbEntity
  8
AM_0
100
AcDbPolyline
 90
        9
 70
   128
 43
0.0
 10
342.1891872465
 20
405.7248346842
 10
342.007897372
 20
405.900506971
 10
341.8432181977
 20
405.9875806532
 10
341.701478252
 20
405.982709538
 10
341.5881245213
 20
405.8860808197
 10
341.5075131262
 20
405.7014078857
 10
341.4627419172
 20
405.4357876134
 10
341.4555314268
 20
405.0994276407
 10
341.4861587501
 20
404.7052540929
  0
LINE
  5
2D1
330
1F
100
AcDbEntity
  8
AM_0
100
AcDbLine
 10
341.4861587501
 20
404.7052540929
 30
0.0
 11
341.5766985345
 21
403.9368390466
 31
0.0
  0
LINE
  5
2D2
330
1F
100
AcDbEntity
  8
AM_0
100
AcDbLine
 10
355.1813541125
 20
352.7467077324
 30
0.0
 11
355.3721496256
 21
352.5246607409
 31
0.0
  0
LWPOLYLINE
  5
2D3
330
1F
100
AcDbEntity
  8
AM_0
100
AcDbPolyline
 90
        9
 70
   128
 43
0.0
 10
355.3721496256
 20
352.5246607409
 10
355.5534395001
 20
352.3489884541
 10
355.7181186744
 20
352.2619147719
 10
355.8598586202
 20
352.2667858871
 10
355.9732123508
 20
352.3634146054
 10
356.053823746
 20
352.5480875393
 10
356.098594955
 20
352.8137078117
 10
356.1058054454
 20
353.1500677844
 10
356.0751781221
 20
353.5442413322
  0
LINE
  5
2D4
330
1F
100
AcDbEntity
  8
AM_0
100
AcDbLine
 10
356.0751781221
 20
353.5442413322
 30
0.0
 11
351.4075254336
 21
393.1588105367
 31
0.0
  0
LINE
  5
2D5
330
1F
100
AcDbEntity
  8
AM_0
100
AcDbLine
 10
359.854686702
 20
405.013633743
 30
0.0
 11
373.6376562396
 21
409.1760256587
 31
0.0
  0
LINE
  5
2D6
330
1F
100
AcDbEntity
  8
AM_0
100
AcDbLine
 10
413.4903683276
 20
138.5886346949
 30
0.0
 11
373.6376562396
 21
409.1760256587
 31
0.0
  0
LINE
  5
2D7
330
1F
100
AcDbEntity
  8
AM_0
100
AcDbLine
 10
399.70739879
 20
134.4262427791
 30
0.0
 11
413.4903683276
 21
138.5886346949
 31
0.0
  0
LINE
  5
2D8
330
1F
100
AcDbEntity
  8
AM_0
100
AcDbLine
 10
357.444833432
 20
411.4937347549
 30
0.0
 11
371.2278029696
 21
415.6561266706
 31
0.0
  0
LINE
  5
2D9
330
1F
100
AcDbEntity
  8
AM_0
100
AcDbLine
 10
371.2278029696
 20
415.6561266706
 30
0.0
 11
373.6376562396
 21
409.1760256587
 31
0.0
  0
LINE
  5
2DA
330
1F
100
AcDbEntity
  8
AM_0
100
AcDbLine
 10
334.3979468443
 20
438.3156015018
 30
0.0
 11
348.1809163819
 21
442.4779934176
 31
0.0
  0
LINE
  5
2DB
330
1F
100
AcDbEntity
  8
AM_0
100
AcDbLine
 10
371.2278029696
 20
415.6561266706
 30
0.0
 11
348.1809163819
 21
442.4779934176
 31
0.0
  0
LINE
  5
2DC
330
1F
100
AcDbEntity
  8
AM_0
100
AcDbLine
 10
413.4903683276
 20
138.5886346949
 30
0.0
 11
407.4899881555
 21
135.1620095404
 31
0.0
  0
LINE
  5
2DD
330
1F
100
AcDbEntity
  8
AM_0
100
AcDbLine
 10
402.8956649763
 20
133.7745455685
 30
0.0
 11
407.4899881555
 21
135.1620095404
 31
0.0
  0
LINE
  5
2DE
330
1F
100
AcDbEntity
  8
AM_0
100
AcDbLine
 10
402.8956649763
 20
133.7745455685
 30
0.0
 11
399.70739879
 21
134.4262427791
 31
0.0
  0
LWPOLYLINE
  5
2DF
330
1F
100
AcDbEntity
  8
AM_0
100
AcDbPolyline
 90
       13
 70
   128
 43
0.0
 10
464.3848127247
 20
413.0311771481
 10
464.4973391545
 20
413.0337442663
 10
464.7290665343
 20
412.8990898635
 10
464.9888663912
 20
412.5967359158
 10
465.2574705583
 20
412.1491066323
 10
465.5149578933
 20
411.5894006293
 10
465.7422317386
 20
410.9591287403
 10
465.9224362326
 20
410.3050353483
 10
466.0422064326
 20
409.6756315677
 10
466.0926595306
 20
409.1175973976
 10
466.0700536512
 20
408.6723196797
 10
465.976065369
 20
408.3728226252
 10
465.8306404606
 20
408.2447818914
  0
LWPOLYLINE
  5
2E0
330
1F
100
AcDbEntity
  8
AM_0
100
AcDbPolyline
 90
       13
 70
   128
 43
0.0
 10
533.2996764117
 20
433.8431415593
 10
533.4121868425
 20
433.8457038452
 10
533.6439142223
 20
433.7110494424
 10
533.9037140792
 20
433.4086954947
 10
534.1723182463
 20
432.9610662112
 10
534.4298055813
 20
432.4013602081
 10
534.6570794265
 20
431.7710883192
 10
534.8372839206
 20
431.1169949271
 10
534.9570541206
 20
430.4875911465
 10
535.0075072186
 20
429.9295569765
 10
534.9849013392
 20
429.4842792586
 10
534.890913057
 20
429.1847822041
 10
534.745175322
 20
429.0566467144
  0
LWPOLYLINE
  5
2E1
330
1F
100
AcDbEntity
  8
AM_0
100
AcDbPolyline
 90
       14
 70
   128
 43
0.0
 10
538.8415798844
 20
438.8411472921
 10
538.8141830596
 20
438.8739208067
 10
538.5402887241
 20
439.3571831247
 10
538.4294142404
 20
439.9229578698
 10
538.4897826616
 20
440.5292841175
 10
538.7169167381
 20
441.1311934236
 10
539.0939709744
 20
441.6840449286
 10
539.5929809829
 20
442.1468361654
 10
540.176937474
 20
442.4852440251
 10
540.8025310662
 20
442.6741703449
 10
541.4233643446
 20
442.6996033239
 10
541.9933929452
 20
442.5596567145
 10
542.4703404542
 20
442.2647097163
 10
542.6346600281
 20
442.0988368992
  0
LWPOLYLINE
  5
2E2
330
1F
100
AcDbEntity
  8
AM_0
100
AcDbPolyline
 90
       14
 70
   128
 43
0.0
 10
529.3024113684
 20
449.9427898715
 10
529.2744074024
 20
449.97627038
 10
529.0005130669
 20
450.459532698
 10
528.8896385832
 20
451.0253074431
 10
528.9500070044
 20
451.6316336908
 10
529.1771410808
 20
452.2335429969
 10
529.5541953172
 20
452.7863945019
 10
530.0532053257
 20
453.2491857387
 10
530.6371618168
 20
453.5875935984
 10
531.262755409
 20
453.7765199182
 10
531.8835886874
 20
453.8019528972
 10
532.453617288
 20
453.6620062878
 10
532.930564797
 20
453.3670592896
 10
533.0947292897
 20
453.2013669818
  0
LWPOLYLINE
  5
2E3
330
1F
100
AcDbEntity
  8
AM_0
100
AcDbPolyline
 90
       13
 70
   128
 43
0.0
 10
515.6656240076
 20
451.261345861
 10
515.8113617426
 20
451.3894813507
 10
515.9053500247
 20
451.6889784052
 10
515.9279559041
 20
452.1342561231
 10
515.8775028061
 20
452.6922902932
 10
515.7577326062
 20
453.3216940737
 10
515.5775281121
 20
453.9757874658
 10
515.3502542669
 20
454.6060593547
 10
515.0927669319
 20
455.1657653578
 10
514.8241627648
 20
455.6133946413
 10
514.5643629079
 20
455.915748589
 10
514.3326355281
 20
456.0504029918
 10
514.2201250973
 20
456.0478407059
  0
LINE
  5
2E4
330
1F
100
AcDbEntity
  8
AM_0
100
AcDbLine
 10
544.2756906787
 20
429.6451577726
 30
0.0
 11
456.3016328944
 21
403.0774064676
 31
0.0
  0
LINE
  5
2E5
330
1F
100
AcDbEntity
  8
AM_0
100
AcDbLine
 10
418.6707881606
 20
428.0146488212
 30
0.0
 11
419.9245563719
 21
428.3932809188
 31
0.0
  0
LINE
  5
2E6
330
1F
100
AcDbEntity
  8
AM_0
100
AcDbLine
 10
432.5567790362
 20
375.8340554692
 30
0.0
 11
433.2757027612
 21
376.0511670498
 31
0.0
  0
LINE
  5
2E7
330
1F
100
AcDbEntity
  8
AM_0
100
AcDbLine
 10
341.4861587501
 20
404.7052540929
 30
0.0
 11
342.7399269613
 21
405.0838861905
 31
0.0
  0
LINE
  5
2E8
330
1F
100
AcDbEntity
  8
AM_0
100
AcDbLine
 10
355.3721496256
 20
352.5246607409
 30
0.0
 11
356.0910733506
 21
352.7417723214
 31
0.0
  0
ENDSEC
  0
SECTION
  2
OBJECTS
  0
DICTIONARY
  5
C
330
0
100
AcDbDictionary
281
     1
  3
ACAD_DETAILVIEWSTYLE
350
2F1
  3
ACAD_GROUP
350
D
  3
ACAD_LAYOUT
350
1A
  3
ACAD_MATERIAL
350
43
  3
ACAD_MLEADERSTYLE
350
5B
  3
ACAD_MLINESTYLE
350
17
  3
ACAD_PLOTSETTINGS
350
19
  3
ACAD_PLOTSTYLENAME
350
E
  3
ACAD_SCALELIST
350
47
  3
ACAD_SECTIONVIEWSTYLE
350
2F2
  3
ACAD_TABLESTYLE
350
59
  3
ACAD_VISUALSTYLE
350
2A
  3
ACDB_RECOMPOSE_DATA
350
2EE
  3
AcDbVariableDictionary
350
2E9
  0
SUN
  5
5D
330
29
100
AcDbSun
 90
        1
290
     0
 63
     7
421
 16777215
 40
1.0
291
     1
 91
  2455826
 92
 54000000
292
     0
 70
     2
 71
   256
280
     1
  0
DICTIONARY
  5
2F1
102
{ACAD_REACTORS
330
C
102
}
330
C
100
AcDbDictionary
281
     1
  0
DICTIONARY
  5
D
102
{ACAD_REACTORS
330
C
102
}
330
C
100
AcDbDictionary
281
     1
  0
DICTIONARY
  5
1A
102
{ACAD_REACTORS
330
C
102
}
330
C
100
AcDbDictionary
281
     1
  3
Layout1
350
1E
  3
Layout2
350
26
  3
Model
350
22
  0
DICTIONARY
  5
43
102
{ACAD_REACTORS
330
C
102
}
330
C
100
AcDbDictionary
281
     1
  3
ByBlock
350
45
  3
ByLayer
350
44
  3
Global
350
46
  0
DICTIONARY
  5
5B
102
{ACAD_REACTORS
330
C
102
}
330
C
100
AcDbDictionary
281
     1
  3
Standard
350
5C
  0
DICTIONARY
  5
17
102
{ACAD_REACTORS
330
C
102
}
330
C
100
AcDbDictionary
281
     1
  3
Standard
350
18
  0
DICTIONARY
  5
19
102
{ACAD_REACTORS
330
C
102
}
330
C
100
AcDbDictionary
281
     1
  0
ACDBDICTIONARYWDFLT
  5
E
102
{ACAD_REACTORS
330
C
102
}
330
C
100
AcDbDictionary
281
     1
  3
Normal
350
F
100
AcDbDictionaryWithDefault
340
F
  0
DICTIONARY
  5
47
102
{ACAD_REACTORS
330
C
102
}
330
C
100
AcDbDictionary
281
     1
  3
A0
350
48
  3
A1
350
49
  3
A2
350
4A
  3
A3
350
4B
  3
A4
350
4C
  3
A5
350
4D
  3
A6
350
4E
  3
A7
350
4F
  3
A8
350
50
  3
A9
350
51
  3
B0
350
52
  3
B1
350
53
  3
B2
350
54
  3
B3
350
55
  3
B4
350
56
  3
B5
350
57
  3
B6
350
58
  0
DICTIONARY
  5
2F2
102
{ACAD_REACTORS
330
C
102
}
330
C
100
AcDbDictionary
281
     1
  0
DICTIONARY
  5
59
102
{ACAD_REACTORS
330
C
102
}
330
C
100
AcDbDictionary
281
     1
  3
Standard
350
5A
  0
DICTIONARY
  5
2A
102
{ACAD_REACTORS
330
C
102
}
330
C
100
AcDbDictionary
281
     1
  3
2dWireframe
350
2F
  3
Basic
350
32
  3
Brighten
350
36
  3
ColorChange
350
3A
  3
Conceptual
350
34
  3
Dim
350
35
  3
EdgeColorOff
350
3D
  3
Facepattern
350
39
  3
Flat
350
2B
  3
FlatWithEdges
350
2C
  3
Gouraud
350
2D
  3
GouraudWithEdges
350
2E
  3
Hidden
350
31
  3
JitterOff
350
3B
  3
Linepattern
350
38
  3
OverhangOff
350
3C
  3
Realistic
350
33
  3
Shaded
350
42
  3
Shaded with edges
350
41
  3
Shades of Gray
350
3E
  3
Sketchy
350
3F
  3
Thicken
350
37
  3
Wireframe
350
30
  3
X-Ray
350
40
  0
XRECORD
  5
2EE
102
{ACAD_REACTORS
330
C
102
}
330
C
100
AcDbXrecord
280
     1
 90
        1
330
5A
  0
DICTIONARY
  5
2E9
102
{ACAD_REACTORS
330
C
102
}
330
C
100
AcDbDictionary
281
     1
  3
CANNOSCALE
350
2EA
  3
CENTEREXE
350
2F3
  3
CENTERLTYPEFILE
350
2F4
  3
CMLEADERSTYLE
350
2F0
  3
CTABLESTYLE
350
2EF
  0
LAYOUT
  5
1E
102
{ACAD_REACTORS
330
1A
102
}
330
1A
100
AcDbPlotSettings
  1

  2
none_device
  4

  6

 40
0.0
 41
0.0
 42
0.0
 43
0.0
 44
0.0
 45
0.0
 46
0.0
 47
0.0
 48
0.0
 49
0.0
140
0.0
141
0.0
142
1.0
143
1.0
 70
   688
 72
     1
 73
     0
 74
     5
  7

 75
    16
 76
     0
 77
     2
 78
   300
147
1.0
148
0.0
149
0.0
100
AcDbLayout
  1
Layout1
 70
     1
 71
     1
 10
0.0
 20
0.0
 11
420.0
 21
297.0
 12
0.0
 22
0.0
 32
0.0
 14
1.0000000000E+20
 24
1.0000000000E+20
 34
1.0000000000E+20
 15
-1.0000000000E+20
 25
-1.0000000000E+20
 35
-1.0000000000E+20
146
0.0
 13
0.0
 23
0.0
 33
0.0
 16
1.0
 26
0.0
 36
0.0
 17
0.0
 27
1.0
 37
0.0
 76
     0
330
1B
  0
LAYOUT
  5
26
102
{ACAD_REACTORS
330
1A
102
}
330
1A
100
AcDbPlotSettings
  1

  2
none_device
  4

  6

 40
0.0
 41
0.0
 42
0.0
 43
0.0
 44
0.0
 45
0.0
 46
0.0
 47
0.0
 48
0.0
 49
0.0
140
0.0
141
0.0
142
1.0
143
1.0
 70
   688
 72
     1
 73
     0
 74
     5
  7

 75
    16
 76
     0
 77
     2
 78
   300
147
1.0
148
0.0
149
0.0
100
AcDbLayout
  1
Layout2
 70
     1
 71
     2
 10
0.0
 20
0.0
 11
0.0
 21
0.0
 12
0.0
 22
0.0
 32
0.0
 14
0.0
 24
0.0
 34
0.0
 15
0.0
 25
0.0
 35
0.0
146
0.0
 13
0.0
 23
0.0
 33
0.0
 16
1.0
 26
0.0
 36
0.0
 17
0.0
 27
1.0
 37
0.0
 76
     0
330
23
  0
LAYOUT
  5
22
102
{ACAD_REACTORS
330
1A
102
}
330
1A
100
AcDbPlotSettings
  1

  2
none_device
  4
Letter_(8.50_x_11.00_Inches)
  6

 40
6.35
 41
6.35
 42
6.35000508
 43
6.35000508
 44
215.9
 45
279.4
 46
0.0
 47
0.0
 48
0.0
 49
0.0
140
0.0
141
0.0
142
1.0
143
1.0
 70
  1712
 72
     1
 73
     0
 74
     0
  7

 75
     0
 76
     0
 77
     2
 78
   300
147
1.0
148
0.0
149
0.0
100
AcDbLayout
  1
Model
 70
     1
 71
     0
 10
0.0
 20
0.0
 11
2100.0
 21
1485.0
 12
0.0
 22
0.0
 32
0.0
 14
0.0
 24
0.0
 34
0.0
 15
2100.0
 25
1485.0
 35
0.0
146
0.0
 13
0.0
 23
0.0
 33
0.0
 16
1.0
 26
0.0
 36
0.0
 17
0.0
 27
1.0
 37
0.0
 76
     0
330
1F
331
29
  0
MATERIAL
  5
45
102
{ACAD_REACTORS
330
43
102
}
330
43
100
AcDbMaterial
  1
ByBlock
 72
     1
 94
      127
  0
MATERIAL
  5
44
102
{ACAD_REACTORS
330
43
102
}
330
43
100
AcDbMaterial
  1
ByLayer
 72
     1
 94
      127
  0
MATERIAL
  5
46
102
{ACAD_REACTORS
330
43
102
}
330
43
100
AcDbMaterial
  1
Global
 72
     1
 94
      127
  0
MLEADERSTYLE
  5
5C
102
{ACAD_REACTORS
330
5B
102
}
330
5B
100
AcDbMLeaderStyle
170
     2
171
     1
172
     0
 90
        2
 40
0.0
 41
0.0
173
     1
 91
-1056964608
340
14
 92
       -2
290
     1
 42
2.0
291
     1
 43
8.0
  3
Standard
341
0
 44
4.0
300

342
11
174
     1
178
     6
175
     1
176
     0
 93
-1056964608
 45
4.0
292
     0
297
     0
 46
4.0
343
0
 94
-1056964608
 47
1.0
 49
1.0
140
1.0
293
     1
141
0.0
294
     1
177
     0
142
1.0
295
     0
296
     0
143
3.75
1001
ACAD_MLEADERVER
1070
     2
  0
MLINESTYLE
  5
18
102
{ACAD_REACTORS
330
17
102
}
330
17
100
AcDbMlineStyle
  2
Standard
 70
     0
  3

 62
   256
 51
90.0
 52
90.0
 71
     2
 49
0.5
 62
   256
  6
BYLAYER
 49
-0.5
 62
   256
  6
BYLAYER
  0
ACDBPLACEHOLDER
  5
F
102
{ACAD_REACTORS
330
E
102
}
330
E
  0
SCALE
  5
48
102
{ACAD_REACTORS
330
47
102
}
330
47
100
AcDbScale
 70
     0
300
1:1
140
1.0
141
1.0
290
     1
  0
SCALE
  5
49
102
{ACAD_REACTORS
330
47
102
}
330
47
100
AcDbScale
 70
     0
300
1:2
140
1.0
141
2.0
290
     0
  0
SCALE
  5
4A
102
{ACAD_REACTORS
330
47
102
}
330
47
100
AcDbScale
 70
     0
300
1:4
140
1.0
141
4.0
290
     0
  0
SCALE
  5
4B
102
{ACAD_REACTORS
330
47
102
}
330
47
100
AcDbScale
 70
     0
300
1:5
140
1.0
141
5.0
290
     0
  0
SCALE
  5
4C
102
{ACAD_REACTORS
330
47
102
}
330
47
100
AcDbScale
 70
     0
300
1:8
140
1.0
141
8.0
290
     0
  0
SCALE
  5
4D
102
{ACAD_REACTORS
330
47
102
}
330
47
100
AcDbScale
 70
     0
300
1:10
140
1.0
141
10.0
290
     0
  0
SCALE
  5
4E
102
{ACAD_REACTORS
330
47
102
}
330
47
100
AcDbScale
 70
     0
300
1:16
140
1.0
141
16.0
290
     0
  0
SCALE
  5
4F
102
{ACAD_REACTORS
330
47
102
}
330
47
100
AcDbScale
 70
     0
300
1:20
140
1.0
141
20.0
290
     0
  0
SCALE
  5
50
102
{ACAD_REACTORS
330
47
102
}
330
47
100
AcDbScale
 70
     0
300
1:30
140
1.0
141
30.0
290
     0
  0
SCALE
  5
51
102
{ACAD_REACTORS
330
47
102
}
330
47
100
AcDbScale
 70
     0
300
1:40
140
1.0
141
40.0
290
     0
  0
SCALE
  5
52
102
{ACAD_REACTORS
330
47
102
}
330
47
100
AcDbScale
 70
     0
300
1:50
140
1.0
141
50.0
290
     0
  0
SCALE
  5
53
102
{ACAD_REACTORS
330
47
102
}
330
47
100
AcDbScale
 70
     0
300
1:100
140
1.0
141
100.0
290
     0
  0
SCALE
  5
54
102
{ACAD_REACTORS
330
47
102
}
330
47
100
AcDbScale
 70
     0
300
2:1
140
2.0
141
1.0
290
     0
  0
SCALE
  5
55
102
{ACAD_REACTORS
330
47
102
}
330
47
100
AcDbScale
 70
     0
300
4:1
140
4.0
141
1.0
290
     0
  0
SCALE
  5
56
102
{ACAD_REACTORS
330
47
102
}
330
47
100
AcDbScale
 70
     0
300
8:1
140
8.0
141
1.0
290
     0
  0
SCALE
  5
57
102
{ACAD_REACTORS
330
47
102
}
330
47
100
AcDbScale
 70
     0
300
10:1
140
10.0
141
1.0
290
     0
  0
SCALE
  5
58
102
{ACAD_REACTORS
330
47
102
}
330
47
100
AcDbScale
 70
     0
300
100:1
140
100.0
141
1.0
290
     0
  0
TABLESTYLE
  5
5A
102
{ACAD_REACTORS
330
59
102
}
102
{ACAD_XDICTIONARY
360
2EB
102
}
330
59
100
AcDbTableStyle
  3
Standard
 70
     0
 71
     0
 40
0.06
 41
0.06
280
     0
281
     0
  7
STANDARD
140
4.5
170
     2
 62
     0
 63
   257
283
     0
 90
        4
 91
        0
  1

274
    -2
284
     1
 64
     0
275
    -2
285
     1
 65
     0
276
    -2
286
     1
 66
     0
277
    -2
287
     1
 67
     0
278
    -2
288
     1
 68
     0
279
    -2
289
     1
 69
     0
  7
STANDARD
140
6.0
170
     5
 62
     0
 63
   257
283
     0
 90
        4
 91
        0
  1

274
    -2
284
     1
 64
     0
275
    -2
285
     1
 65
     0
276
    -2
286
     1
 66
     0
277
    -2
287
     1
 67
     0
278
    -2
288
     1
 68
     0
279
    -2
289
     1
 69
     0
  7
STANDARD
140
4.5
170
     5
 62
     0
 63
   257
283
     0
 90
        4
 91
        0
  1

274
    -2
284
     1
 64
     0
275
    -2
285
     1
 65
     0
276
    -2
286
     1
 66
     0
277
    -2
287
     1
 67
     0
278
    -2
288
     1
 68
     0
279
    -2
289
     1
 69
     0
  0
VISUALSTYLE
  5
2F
102
{ACAD_REACTORS
330
2A
102
}
330
2A
100
AcDbVisualStyle
  2
2dWireframe
 70
     4
 71
     0
 72
     2
 73
     0
 90
        0
 40
0.6
 41
30.0
 62
     5
 63
     7
421
 16777215
 74
     1
 91
        4
 64
     7
 65
   257
 75
     1
175
     1
 42
1.0
 92
        0
 66
   257
 43
1.0
 76
     1
 77
     6
 78
     2
 67
     7
 79
     5
170
     0
171
     0
290
     0
174
     0
 93
        1
 44
0.0
173
     0
291
     0
 45
0.0
  0
VISUALSTYLE
  5
32
102
{ACAD_REACTORS
330
2A
102
}
330
2A
100
AcDbVisualStyle
  2
Basic
 70
     7
 71
     1
 72
     0
 73
     1
 90
        0
 40
0.6
 41
30.0
 62
     5
 63
     7
421
 16777215
 74
     0
 91
        4
 64
     7
 65
   257
 75
     1
175
     1
 42
1.0
 92
        8
 66
     7
 43
1.0
 76
     1
 77
     6
 78
     2
 67
     7
 79
     5
170
     0
171
     0
290
     0
174
     0
 93
        1
 44
0.0
173
     0
291
     1
 45
0.0
  0
VISUALSTYLE
  5
36
102
{ACAD_REACTORS
330
2A
102
}
330
2A
100
AcDbVisualStyle
  2
Brighten
 70
    12
 71
     2
 72
     2
 73
     0
 90
        0
 40
0.6
 41
30.0
 62
     5
 63
     7
421
 16777215
 74
     1
 91
        4
 64
     7
 65
   257
 75
     1
175
     1
 42
1.0
 92
        8
 66
     7
 43
1.0
 76
     1
 77
     6
 78
     2
 67
     7
 79
     5
170
     0
171
     0
290
     0
174
     0
 93
        1
 44
50.0
173
     0
291
     1
 45
0.0
  0
VISUALSTYLE
  5
3A
102
{ACAD_REACTORS
330
2A
102
}
330
2A
100
AcDbVisualStyle
  2
ColorChange
 70
    16
 71
     2
 72
     2
 73
     3
 90
        0
 40
0.6
 41
30.0
 62
     5
 63
     8
421
  8421504
 74
     1
 91
        4
 64
     7
 65
   257
 75
     1
175
     1
 42
1.0
 92
        8
 66
     8
424
  8421504
 43
1.0
 76
     1
 77
     6
 78
     2
 67
     7
 79
     5
170
     0
171
     0
290
     0
174
     0
 93
        1
 44
0.0
173
     0
291
     1
 45
0.0
  0
VISUALSTYLE
  5
34
102
{ACAD_REACTORS
330
2A
102
}
330
2A
100
AcDbVisualStyle
  2
Conceptual
 70
     9
 71
     3
 72
     2
 73
     0
 90
        0
 40
0.6
 41
30.0
 62
     5
 63
     7
421
 16777215
 74
     2
 91
        2
 64
     7
 65
   257
 75
     1
175
     1
 42
179.0
 92
        8
 66
     7
 43
1.0
 76
     1
 77
     6
 78
     2
 67
     7
 79
     3
170
     0
171
     0
290
     0
174
     0
 93
        1
 44
0.0
173
     0
291
     0
 45
0.0
  0
VISUALSTYLE
  5
35
102
{ACAD_REACTORS
330
2A
102
}
330
2A
100
AcDbVisualStyle
  2
Dim
 70
    11
 71
     2
 72
     2
 73
     0
 90
        0
 40
0.6
 41
30.0
 62
     5
 63
     7
421
 16777215
 74
     1
 91
        4
 64
     7
 65
   257
 75
     1
175
     1
 42
1.0
 92
        8
 66
     7
 43
1.0
 76
     1
 77
     6
 78
     2
 67
     7
 79
     5
170
     0
171
     0
290
     0
174
     0
 93
        1
 44
-50.0
173
     0
291
     1
 45
0.0
  0
VISUALSTYLE
  5
3D
102
{ACAD_REACTORS
330
2A
102
}
330
2A
100
AcDbVisualStyle
  2
EdgeColorOff
 70
    22
 71
     2
 72
     2
 73
     0
 90
        0
 40
0.6
 41
30.0
 62
     5
 63
     7
421
 16777215
 74
     1
 91
        4
 64
     7
 65
   257
 75
     1
175
     1
 42
1.0
 92
        8
 66
     7
 43
1.0
 76
     1
 77
     6
 78
     2
 67
     7
 79
     5
170
     0
171
     0
290
     0
174
     0
 93
        1
 44
0.0
173
     0
291
     1
 45
0.0
  0
VISUALSTYLE
  5
39
102
{ACAD_REACTORS
330
2A
102
}
330
2A
100
AcDbVisualStyle
  2
Facepattern
 70
    15
 71
     2
 72
     2
 73
     0
 90
        0
 40
0.6
 41
30.0
 62
     5
 63
     7
421
 16777215
 74
     1
 91
        4
 64
     7
 65
   257
 75
     1
175
     1
 42
1.0
 92
        8
 66
     7
 43
1.0
 76
     1
 77
     6
 78
     2
 67
     7
 79
     5
170
     0
171
     0
290
     0
174
     0
 93
        1
 44
0.0
173
     0
291
     1
 45
0.0
  0
VISUALSTYLE
  5
2B
102
{ACAD_REACTORS
330
2A
102
}
330
2A
100
AcDbVisualStyle
  2
Flat
 70
     0
 71
     2
 72
     1
 73
     1
 90
        2
 40
0.6
 41
30.0
 62
     5
 63
     7
421
 16777215
 74
     0
 91
        0
 64
     7
 65
   257
 75
     1
175
     1
 42
1.0
 92
        8
 66
     7
 43
1.0
 76
     1
 77
     6
 78
     2
 67
     7
 79
     5
170
     0
171
     0
290
     0
174
     0
 93
       13
 44
0.0
173
     0
291
     1
 45
0.0
  0
VISUALSTYLE
  5
2C
102
{ACAD_REACTORS
330
2A
102
}
330
2A
100
AcDbVisualStyle
  2
FlatWithEdges
 70
     1
 71
     2
 72
     1
 73
     1
 90
        2
 40
0.6
 41
30.0
 62
     5
 63
     7
421
 16777215
 74
     1
 91
        0
 64
     7
 65
   257
 75
     1
175
     1
 42
1.0
 92
        0
 66
   257
 43
1.0
 76
     1
 77
     6
 78
     2
 67
     7
 79
     5
170
     0
171
     0
290
     0
174
     0
 93
       13
 44
0.0
173
     0
291
     1
 45
0.0
  0
VISUALSTYLE
  5
2D
102
{ACAD_REACTORS
330
2A
102
}
330
2A
100
AcDbVisualStyle
  2
Gouraud
 70
     2
 71
     2
 72
     2
 73
     1
 90
        2
 40
0.6
 41
30.0
 62
     5
 63
     7
421
 16777215
 74
     0
 91
        0
 64
     7
 65
   257
 75
     1
175
     1
 42
1.0
 92
        0
 66
     7
 43
1.0
 76
     1
 77
     6
 78
     2
 67
     7
 79
     5
170
     0
171
     0
290
     0
174
     0
 93
       13
 44
0.0
173
     0
291
     1
 45
0.0
  0
VISUALSTYLE
  5
2E
102
{ACAD_REACTORS
330
2A
102
}
330
2A
100
AcDbVisualStyle
  2
GouraudWithEdges
 70
     3
 71
     2
 72
     2
 73
     1
 90
        2
 40
0.6
 41
30.0
 62
     5
 63
     7
421
 16777215
 74
     1
 91
        0
 64
     7
 65
   257
 75
     1
175
     1
 42
1.0
 92
        0
 66
   257
 43
1.0
 76
     1
 77
     6
 78
     2
 67
     7
 79
     5
170
     0
171
     0
290
     0
174
     0
 93
       13
 44
0.0
173
     0
291
     1
 45
0.0
  0
VISUALSTYLE
  5
31
102
{ACAD_REACTORS
330
2A
102
}
330
2A
100
AcDbVisualStyle
  2
Hidden
 70
     6
 71
     1
 72
     2
 73
     2
 90
        0
 40
0.6
 41
30.0
 62
     5
 63
     7
421
 16777215
 74
     2
 91
        2
 64
     7
 65
   257
 75
     2
175
     1
 42
40.0
 92
        0
 66
   257
 43
1.0
 76
     1
 77
     6
 78
     2
 67
     7
 79
     3
170
     0
171
     0
290
     0
174
     0
 93
        1
 44
0.0
173
     0
291
     0
 45
0.0
  0
VISUALSTYLE
  5
3B
102
{ACAD_REACTORS
330
2A
102
}
330
2A
100
AcDbVisualStyle
  2
JitterOff
 70
    20
 71
     2
 72
     2
 73
     0
 90
        0
 40
0.6
 41
30.0
 62
     5
 63
     7
421
 16777215
 74
     1
 91
        4
 64
     7
 65
   257
 75
     1
175
     1
 42
1.0
 92
       10
 66
     7
 43
1.0
 76
     1
 77
     6
 78
     2
 67
     7
 79
     5
170
     0
171
     0
290
     0
174
     0
 93
        1
 44
0.0
173
     0
291
     1
 45
0.0
  0
VISUALSTYLE
  5
38
102
{ACAD_REACTORS
330
2A
102
}
330
2A
100
AcDbVisualStyle
  2
Linepattern
 70
    14
 71
     2
 72
     2
 73
     0
 90
        0
 40
0.6
 41
30.0
 62
     5
 63
     7
421
 16777215
 74
     1
 91
        4
 64
     7
 65
   257
 75
     7
175
     7
 42
1.0
 92
        8
 66
     7
 43
1.0
 76
     1
 77
     6
 78
     2
 67
     7
 79
     5
170
     0
171
     0
290
     0
174
     0
 93
        1
 44
0.0
173
     0
291
     1
 45
0.0
  0
VISUALSTYLE
  5
3C
102
{ACAD_REACTORS
330
2A
102
}
330
2A
100
AcDbVisualStyle
  2
OverhangOff
 70
    21
 71
     2
 72
     2
 73
     0
 90
        0
 40
0.6
 41
30.0
 62
     5
 63
     7
421
 16777215
 74
     1
 91
        4
 64
     7
 65
   257
 75
     1
175
     1
 42
1.0
 92
        9
 66
     7
 43
1.0
 76
     1
 77
     6
 78
     2
 67
     7
 79
     5
170
     0
171
     0
290
     0
174
     0
 93
        1
 44
0.0
173
     0
291
     1
 45
0.0
  0
VISUALSTYLE
  5
33
102
{ACAD_REACTORS
330
2A
102
}
330
2A
100
AcDbVisualStyle
  2
Realistic
 70
     8
 71
     2
 72
     3
 73
     0
 90
        2
 40
0.6
 41
30.0
 62
     5
 63
     7
421
 16777215
 74
     0
 91
        0
 64
     7
 65
   257
 75
     1
175
     1
 42
1.0
 92
        8
 66
   257
 43
1.0
 76
     1
 77
     6
 78
     2
 67
     7
 79
     3
170
     0
171
     0
290
     0
174
     0
 93
       13
 44
0.0
173
     0
291
     0
 45
0.0
  0
VISUALSTYLE
  5
42
102
{ACAD_REACTORS
330
2A
102
}
330
2A
100
AcDbVisualStyle
  2
Shaded
 70
    27
 71
     2
 72
     2
 73
     1
 90
        2
 40
0.6
 41
30.0
 62
     5
 63
     7
421
 16777215
 74
     0
 91
        4
 64
     7
 65
   257
 75
     1
175
     1
 42
1.0
 92
        8
 66
   257
 43
1.0
 76
     1
 77
     6
 78
     2
 67
     8
425
  7895160
 79
     3
170
     0
171
     0
290
     0
174
     0
 93
        5
 44
0.0
173
     0
291
     0
 45
0.0
  0
VISUALSTYLE
  5
41
102
{ACAD_REACTORS
330
2A
102
}
330
2A
100
AcDbVisualStyle
  2
Shaded with edges
 70
    26
 71
     2
 72
     2
 73
     1
 90
        2
 40
0.6
 41
30.0
 62
     5
 63
     7
421
 16777215
 74
     1
 91
       10
 64
     7
 65
   257
 75
     2
175
     1
 42
1.0
 92
        8
 66
   257
 43
1.0
 76
     1
 77
     6
 78
     2
 67
     7
 79
     3
170
     0
171
     0
290
     0
174
     0
 93
        5
 44
0.0
173
     0
291
     0
 45
0.0
  0
VISUALSTYLE
  5
3E
102
{ACAD_REACTORS
330
2A
102
}
330
2A
100
AcDbVisualStyle
  2
Shades of Gray
 70
    23
 71
     2
 72
     2
 73
     3
 90
        0
 40
0.6
 41
30.0
 62
     5
 63
     7
421
 16777215
 74
     2
 91
        2
 64
     7
 65
     7
 75
     1
175
     1
 42
40.0
 92
        8
 66
     7
 43
1.0
 76
     1
 77
     6
 78
     2
 67
     7
 79
     3
170
     0
171
     0
290
     0
174
     0
 93
        1
 44
0.0
173
     0
291
     0
 45
0.0
  0
VISUALSTYLE
  5
3F
102
{ACAD_REACTORS
330
2A
102
}
330
2A
100
AcDbVisualStyle
  2
Sketchy
 70
    24
 71
     1
 72
     2
 73
     2
 90
        0
 40
0.6
 41
30.0
 62
     5
 63
     7
421
 16777215
 74
     2
 91
        2
 64
     7
 65
     7
 75
     1
175
     1
 42
40.0
 92
       11
 66
     7
 43
1.0
 76
     1
 77
     6
 78
     2
 67
     7
 79
     6
170
     0
171
     0
290
     0
174
     0
 93
        1
 44
0.0
173
     0
291
     0
 45
0.0
  0
VISUALSTYLE
  5
37
102
{ACAD_REACTORS
330
2A
102
}
330
2A
100
AcDbVisualStyle
  2
Thicken
 70
    13
 71
     2
 72
     2
 73
     0
 90
        0
 40
0.6
 41
30.0
 62
     5
 63
     7
421
 16777215
 74
     1
 91
        4
 64
     7
 65
   257
 75
     1
175
     1
 42
1.0
 92
       12
 66
     7
 43
1.0
 76
     1
 77
     6
 78
     2
 67
     7
 79
     5
170
     0
171
     0
290
     0
174
     0
 93
        1
 44
0.0
173
     0
291
     1
 45
0.0
  0
VISUALSTYLE
  5
30
102
{ACAD_REACTORS
330
2A
102
}
330
2A
100
AcDbVisualStyle
  2
Wireframe
 70
     5
 71
     0
 72
     2
 73
     0
 90
        0
 40
0.6
 41
30.0
 62
     5
 63
     7
421
 16777215
 74
     1
 91
        4
 64
     7
 65
   257
 75
     1
175
     1
 42
1.0
 92
        0
 66
   257
 43
1.0
 76
     1
 77
     6
 78
     2
 67
     7
 79
     3
170
     0
171
     0
290
     0
174
     0
 93
        1
 44
0.0
173
     0
291
     0
 45
0.0
  0
VISUALSTYLE
  5
40
102
{ACAD_REACTORS
330
2A
102
}
330
2A
100
AcDbVisualStyle
  2
X-Ray
 70
    25
 71
     2
 72
     2
 73
     1
 90
        1
 40
0.5
 41
30.0
 62
     5
 63
     7
421
 16777215
 74
     1
 91
        0
 64
     7
 65
   257
 75
     1
175
     1
 42
1.0
 92
        8
 66
     7
 43
1.0
 76
     1
 77
     6
 78
     2
 67
     7
 79
     3
170
     0
171
     0
290
     0
174
     0
 93
       13
 44
0.0
173
     0
291
     0
 45
0.0
  0
DICTIONARYVAR
  5
2EA
102
{ACAD_REACTORS
330
2E9
102
}
330
2E9
100
DictionaryVariables
280
     0
  1
1:1
  0
DICTIONARYVAR
  5
2F3
102
{ACAD_REACTORS
330
2E9
102
}
330
2E9
100
DictionaryVariables
280
     0
  1
3.500000
  0
DICTIONARYVAR
  5
2F4
102
{ACAD_REACTORS
330
2E9
102
}
330
2E9
100
DictionaryVariables
280
     0
  1
acadiso.lin
  0
DICTIONARYVAR
  5
2F0
102
{ACAD_REACTORS
330
2E9
102
}
330
2E9
100
DictionaryVariables
280
     0
  1
Standard
  0
DICTIONARYVAR
  5
2EF
102
{ACAD_REACTORS
330
2E9
102
}
330
2E9
100
DictionaryVariables
280
     0
  1
Standard
  0
DICTIONARY
  5
2EB
330
5A
100
AcDbDictionary
280
     1
281
     1
  3
ACAD_ROUNDTRIP_2008_TABLESTYLE_CELLSTYLEMAP
360
2EC
  0
CELLSTYLEMAP
  5
2EC
102
{ACAD_REACTORS
330
2EB
102
}
330
2EB
100
AcDbCellStyleMap
 90
        3
300
CELLSTYLE
  1
TABLEFORMAT_BEGIN
 90
        5
170
     1
 91
        0
 92
    32768
 62
   257
 93
        1
300
CONTENTFORMAT
  1
CONTENTFORMAT_BEGIN
 90
        0
 91
        0
 92
        4
 93
        0
300

 40
0.0
140
1.0
 94
        5
 62
     0
340
11
144
6.0
309
CONTENTFORMAT_END
171
     1
301
MARGIN
  1
CELLMARGIN_BEGIN
 40
1.5
 40
1.5
 40
1.5
 40
1.5
 40
1.5
 40
1.5
309
CELLMARGIN_END
 94
        6
 95
        1
302
GRIDFORMAT
  1
GRIDFORMAT_BEGIN
 90
        0
 91
        1
 62
     0
 92
       -2
340
14
 93
        0
 40
0.045
309
GRIDFORMAT_END
 95
        2
302
GRIDFORMAT
  1
GRIDFORMAT_BEGIN
 90
        0
 91
        1
 62
     0
 92
       -2
340
14
 93
        0
 40
0.045
309
GRIDFORMAT_END
 95
        4
302
GRIDFORMAT
  1
GRIDFORMAT_BEGIN
 90
        0
 91
        1
 62
     0
 92
       -2
340
14
 93
        0
 40
0.045
309
GRIDFORMAT_END
 95
        8
302
GRIDFORMAT
  1
GRIDFORMAT_BEGIN
 90
        0
 91
        1
 62
     0
 92
       -2
340
14
 93
        0
 40
0.045
309
GRIDFORMAT_END
 95
       16
302
GRIDFORMAT
  1
GRIDFORMAT_BEGIN
 90
        0
 91
        1
 62
     0
 92
       -2
340
14
 93
        0
 40
0.045
309
GRIDFORMAT_END
 95
       32
302
GRIDFORMAT
  1
GRIDFORMAT_BEGIN
 90
        0
 91
        1
 62
     0
 92
       -2
340
14
 93
        0
 40
0.045
309
GRIDFORMAT_END
309
TABLEFORMAT_END
  1
CELLSTYLE_BEGIN
 90
        1
 91
        1
300
_TITLE
309
CELLSTYLE_END
300
CELLSTYLE
  1
TABLEFORMAT_BEGIN
 90
        5
170
     1
 91
        0
 92
        0
 62
   257
 93
        1
300
CONTENTFORMAT
  1
CONTENTFORMAT_BEGIN
 90
        0
 91
        0
 92
        4
 93
        0
300

 40
0.0
140
1.0
 94
        5
 62
     0
340
11
144
4.5
309
CONTENTFORMAT_END
171
     1
301
MARGIN
  1
CELLMARGIN_BEGIN
 40
1.5
 40
1.5
 40
1.5
 40
1.5
 40
1.5
 40
1.5
309
CELLMARGIN_END
 94
        6
 95
        1
302
GRIDFORMAT
  1
GRIDFORMAT_BEGIN
 90
        0
 91
        1
 62
     0
 92
       -2
340
14
 93
        0
 40
0.045
309
GRIDFORMAT_END
 95
        2
302
GRIDFORMAT
  1
GRIDFORMAT_BEGIN
 90
        0
 91
        1
 62
     0
 92
       -2
340
14
 93
        0
 40
0.045
309
GRIDFORMAT_END
 95
        4
302
GRIDFORMAT
  1
GRIDFORMAT_BEGIN
 90
        0
 91
        1
 62
     0
 92
       -2
340
14
 93
        0
 40
0.045
309
GRIDFORMAT_END
 95
        8
302
GRIDFORMAT
  1
GRIDFORMAT_BEGIN
 90
        0
 91
        1
 62
     0
 92
       -2
340
14
 93
        0
 40
0.045
309
GRIDFORMAT_END
 95
       16
302
GRIDFORMAT
  1
GRIDFORMAT_BEGIN
 90
        0
 91
        1
 62
     0
 92
       -2
340
14
 93
        0
 40
0.045
309
GRIDFORMAT_END
 95
       32
302
GRIDFORMAT
  1
GRIDFORMAT_BEGIN
 90
        0
 91
        1
 62
     0
 92
       -2
340
14
 93
        0
 40
0.045
309
GRIDFORMAT_END
309
TABLEFORMAT_END
  1
CELLSTYLE_BEGIN
 90
        2
 91
        1
300
_HEADER
309
CELLSTYLE_END
300
CELLSTYLE
  1
TABLEFORMAT_BEGIN
 90
        5
170
     1
 91
        0
 92
        0
 62
   257
 93
        1
300
CONTENTFORMAT
  1
CONTENTFORMAT_BEGIN
 90
        0
 91
        0
 92
        4
 93
        0
300

 40
0.0
140
1.0
 94
        2
 62
     0
340
11
144
4.5
309
CONTENTFORMAT_END
171
     1
301
MARGIN
  1
CELLMARGIN_BEGIN
 40
1.5
 40
1.5
 40
1.5
 40
1.5
 40
1.5
 40
1.5
309
CELLMARGIN_END
 94
        6
 95
        1
302
GRIDFORMAT
  1
GRIDFORMAT_BEGIN
 90
        0
 91
        1
 62
     0
 92
       -2
340
14
 93
        0
 40
0.045
309
GRIDFORMAT_END
 95
        2
302
GRIDFORMAT
  1
GRIDFORMAT_BEGIN
 90
        0
 91
        1
 62
     0
 92
       -2
340
14
 93
        0
 40
0.045
309
GRIDFORMAT_END
 95
        4
302
GRIDFORMAT
  1
GRIDFORMAT_BEGIN
 90
        0
 91
        1
 62
     0
 92
       -2
340
14
 93
        0
 40
0.045
309
GRIDFORMAT_END
 95
        8
302
GRIDFORMAT
  1
GRIDFORMAT_BEGIN
 90
        0
 91
        1
 62
     0
 92
       -2
340
14
 93
        0
 40
0.045
309
GRIDFORMAT_END
 95
       16
302
GRIDFORMAT
  1
GRIDFORMAT_BEGIN
 90
        0
 91
        1
 62
     0
 92
       -2
340
14
 93
        0
 40
0.045
309
GRIDFORMAT_END
 95
       32
302
GRIDFORMAT
  1
GRIDFORMAT_BEGIN
 90
        0
 91
        1
 62
     0
 92
       -2
340
14
 93
        0
 40
0.045
309
GRIDFORMAT_END
309
TABLEFORMAT_END
  1
CELLSTYLE_BEGIN
 90
        3
 91
        2
300
_DATA
309
CELLSTYLE_END
  0
ENDSEC
  0
EOF
